<?xml version="1.0" encoding="UTF-8"?>
<!-- Generator: visioncortex VTracer 0.6.4 -->
<svg version="1.1" xmlns="http://www.w3.org/2000/svg" width="2788" height="1194">
<path d="M0 0 C0 0.66 0 1.32 0 2 C3.96 2.5 3.96 2.5 8 3 C16 8 16 8 20 12 C22.97 12.99 25.94 13.98 29 15 C31.31 16.98 33.62 18.96 36 21 C39.66 22.34 43.33 23.68 47 25 C49.47 27.47 49.47 27.47 52 30 C55.32 31.37 58.65 32.7 62 34 C67 38 67 38 68 40 C71.33 41.01 74.66 42.01 78 43 C83 46 83 46 84 50 C85.73 50.45 87.47 50.91 89.25 51.38 C95 53 95 53 100 59 C104.66 60.68 109.33 62.34 114 64 C115.49 66.47 115.49 66.47 117 69 C119.64 69.66 122.28 70.32 125 71 C133 75 133 75 135 79 C137.97 79.66 140.94 80.32 144 81 C147.36 83.64 150.69 86.3 154 89 C157.32 90.37 160.65 91.71 164 93 C164.99 94.32 165.98 95.64 167 97 C170.99 98.68 174.99 100.35 179 102 C183 106 183 106 183 108 C186.96 108.5 186.96 108.5 191 109 C199.54 114.08 199.54 114.08 201 117 C202.55 117.41 204.09 117.83 205.69 118.25 C211 120 211 120 217 126 C219.21 126.85 221.41 127.69 223.69 128.56 C230 131 230 131 233 136 C236.31 137.07 239.65 138.07 243 139 C249 143 249 143 252 146 C254.64 146.99 257.28 147.98 260 149 C268 154 268 154 268 156 C270.97 156.66 273.94 157.32 277 158 C279.69 160.3 282.36 162.64 285 165 C288.66 166.67 292.33 168.34 296 170 C297.32 171.65 298.64 173.3 300 175 C302.64 175.66 305.28 176.32 308 177 C316 181 316 181 320 185 C322.31 185.66 324.62 186.32 327 187 C328.24 188.11 329.48 189.23 330.75 190.38 C335.59 194.5 340.06 195.88 346 198 C347.32 199.65 348.64 201.3 350 203 C353.98 204.72 357.98 206.39 362 208 C365 211 365 211 365 214 C366.65 214.29 368.3 214.58 370 214.88 C376 216 376 216 384 221 C389.2 224.27 389.2 224.27 396 227 C397.32 228.65 398.64 230.3 400 232 C404.31 233.72 408.64 235.39 413 237 C416 240 416 240 416 242 C417.65 242.33 419.3 242.66 421 243 C431.69 249.11 436.85 256.3 431 268 C429.02 268.99 427.04 269.98 425 271 C423.68 272.98 422.36 274.96 421 277 C416 279.25 416 279.25 411 281 C406.47 283 406.47 283 402 288 C400.39 288.47 398.78 288.95 397.12 289.44 C391.21 290.87 391.21 290.87 385 297 C375.4 301.8 362.02 298.02 355 291 C352.98 289.99 350.96 288.98 348.88 287.94 C343 285 343 285 340 281 C336.67 279.98 333.34 278.98 330 278 C325 274 325 274 322 271 C318.67 269.98 315.34 268.98 312 268 C307 265 307 265 305 262 C303.39 261.4 301.78 260.8 300.12 260.19 C295 258 295 258 291 252 C286.69 250.59 282.36 249.26 278 248 C274 244 274 244 274 242 C271.74 241.66 271.74 241.66 269.44 241.31 C264 240 264 240 257 233 C253.02 231.62 249.02 230.28 245 229 C242.36 227.02 239.72 225.04 237 223 C235.23 222.15 233.45 221.31 231.62 220.44 C227 218 227 218 225 213 C222.36 212.67 219.72 212.34 217 212 C208 208 208 208 205 204 C200.54 202.51 200.54 202.51 196 201 C194.02 199.02 192.04 197.04 190 195 C187.77 194.15 185.54 193.31 183.25 192.44 C177 190 177 190 175 185 C171.37 183.89 167.69 182.89 164 182 C159 179 159 179 158 175 C155.03 174.34 152.06 173.68 149 173 C144.92 170.45 140.85 167.88 137 165 C134.36 164.01 131.72 163.02 129 162 C127.68 160.35 126.36 158.7 125 157 C119.68 154.97 114.34 152.97 109 151 C107.02 149.35 105.04 147.7 103 146 C101.14 144.99 99.29 143.98 97.38 142.94 C92 140 92 140 88 136 C86.37 135.55 84.74 135.09 83.06 134.62 C78 133 78 133 73 127 C69.35 125.63 65.68 124.3 62 123 C60.35 121.35 58.7 119.7 57 118 C55 117.17 53 116.35 50.94 115.5 C45 113 45 113 41 108 C37.69 106.94 34.35 105.94 31 105 C25 101 25 101 21 97 C19.35 96.5 17.7 96.01 16 95.5 C7 92.8 7 92.8 7 88 C4.03 87.34 1.06 86.68 -2 86 C-5.13 84.12 -8.2 82.16 -11.19 80.06 C-25.86 70.73 -36.76 74.41 -50 85 C-52.14 85.62 -54.29 86.24 -56.5 86.88 C-63.51 88.53 -63.51 88.53 -68 95 C-71.31 96.06 -74.65 97.07 -78 98 C-79.98 99.98 -79.98 99.98 -82 102 C-88 106 -88 106 -96 108 C-97.49 110.47 -97.49 110.47 -99 113 C-103.66 114.68 -108.33 116.35 -113 118 C-114.32 119.65 -115.64 121.3 -117 123 C-121.29 124.91 -125.55 126.52 -130 128 C-130 128.66 -130 129.32 -130 130 C-135 134 -135 134 -140.06 135.5 C-145.29 136.67 -145.29 136.67 -149 141 C-158 145 -158 145 -164 146 C-164.66 147.32 -165.32 148.64 -166 150 C-177.67 157 -177.67 157 -180 157 C-180 157.66 -180 158.32 -180 159 C-187 163 -187 163 -192.38 164.56 C-197.25 165.39 -197.25 165.39 -198 169 C-202 172 -202 172 -208.62 173.44 C-215.23 174.2 -215.23 174.2 -217 179 C-223 183 -223 183 -231 184 C-231.66 185.65 -232.32 187.3 -233 189 C-238 192 -238 192 -247 196 C-248.98 197.65 -250.96 199.3 -253 201 C-254.79 201.64 -256.59 202.28 -258.44 202.94 C-264.69 204.89 -264.69 204.89 -271 211 C-274.66 212.02 -278.33 213.03 -282 214 C-282.66 215.32 -283.32 216.64 -284 218 C-292 222 -292 222 -299 223 C-299.33 224.32 -299.66 225.64 -300 227 C-304.97 229.72 -309.97 232.38 -315 235 C-316.32 236.32 -317.64 237.64 -319 239 C-320.96 239.64 -322.92 240.28 -324.94 240.94 C-331.36 242.62 -331.36 242.62 -336 248 C-338.97 248.99 -341.94 249.98 -345 251 C-346.65 252.65 -348.3 254.3 -350 256 C-357 260 -357 260 -366 263 C-367.32 264.65 -368.64 266.3 -370 268 C-373.67 269.34 -377.33 270.67 -381 272 C-383.31 273.98 -385.62 275.96 -388 278 C-389.84 278.66 -391.67 279.32 -393.56 280 C-399.64 281.81 -399.64 281.81 -405 288 C-407.97 288.99 -410.94 289.98 -414 291 C-415.65 292.65 -417.3 294.3 -419 296 C-423.64 297.74 -428.3 299.43 -433 301 C-437.75 309.63 -437.75 309.63 -429 312 C-423 315 -423 315 -419 319 C-417.19 319.8 -415.37 320.61 -413.5 321.44 C-408 324 -408 324 -404 329 C-400.68 330.05 -397.35 331.05 -394 332 C-389 336 -389 336 -386 339 C-383.49 339.74 -383.49 339.74 -380.94 340.5 C-374 342.61 -374 342.61 -374 348 C-359.6 351.06 -359.6 351.06 -349 345 C-341 340 -341 340 -335 339 C-334.34 337.68 -333.68 336.36 -333 335 C-327.4 332.51 -321.74 330.15 -316 328 C-314.68 326.35 -313.36 324.7 -312 323 C-307.05 320.76 -302.15 318.72 -297 317 C-297 316.34 -297 315.68 -297 315 C-285.81 310 -285.81 310 -283 310 C-282.34 308.68 -281.68 307.36 -281 306 C-273 301 -273 301 -267 298 C-265.35 296.68 -263.7 295.36 -262 294 C-254 291 -254 291 -249 291 C-248.34 289.68 -247.68 288.36 -247 287 C-241 283 -241 283 -234 281 C-233.01 280.01 -232.02 279.02 -231 278 C-230.34 278 -229.68 278 -229 278 C-229 277.34 -229 276.68 -229 276 C-224.73 273.87 -220.39 271.88 -216 270 C-213.36 268.02 -210.72 266.04 -208 264 C-205.36 262.68 -202.72 261.36 -200 260 C-198.35 258.68 -196.7 257.36 -195 256 C-191.5 254.79 -191.5 254.79 -187.94 253.56 C-180.77 251.59 -180.77 251.59 -177 246 C-172 244.33 -167 242.67 -162 241 C-161.34 239.68 -160.68 238.36 -160 237 C-156.35 235.3 -152.68 233.64 -149 232 C-147.02 230.35 -145.04 228.7 -143 227 C-134 223 -134 223 -132 223 C-131.34 221.68 -130.68 220.36 -130 219 C-122 215 -122 215 -114 212 C-112.35 210.35 -110.7 208.7 -109 207 C-106.34 206.04 -106.34 206.04 -103.62 205.06 C-97.32 203.12 -97.32 203.12 -91 197 C-88.03 196.01 -85.06 195.02 -82 194 C-79.28 191.72 -76.61 189.39 -74 187 C-69 185 -69 185 -65 185 C-64.34 183.68 -63.68 182.36 -63 181 C-57.59 177.76 -51.46 175 -45 175 C-44.34 173.68 -43.68 172.36 -43 171 C-29.69 164.34 -17.67 166.24 -6 175 C-4.35 175.99 -2.7 176.98 -1 178 C-0.01 179.65 0.98 181.3 2 183 C3.98 185.64 5.96 188.28 8 191 C10.54 200.98 10.21 210.93 10.16 221.18 C10.15 222.95 10.15 224.72 10.14 226.55 C10.13 230.35 10.11 234.15 10.09 237.95 C10.04 247.96 10.03 257.97 10.02 267.98 C10.01 269.99 10.01 272.01 10.01 274.09 C9.98 293.48 10.09 312.86 10.31 332.25 C10.35 336.67 10.35 336.67 10.38 341.18 C10.42 343.87 10.45 346.56 10.49 349.33 C10.51 351.67 10.54 354.01 10.57 356.42 C11.51 368.56 18.55 368.6 29 372 C30.98 373.65 32.96 375.3 35 377 C36.65 377.82 38.3 378.65 40 379.5 C45 382 45 382 51 387 C54.96 388.49 54.96 388.49 59 390 C62.67 392.33 66.33 394.67 70 397 C73.96 398.49 73.96 398.49 78 400 C80.31 401.98 82.62 403.96 85 406 C86.73 406.68 88.47 407.36 90.25 408.06 C95 410 95 410 98 415 C102.66 416.69 107.32 418.36 112 420 C113.65 421.65 115.3 423.3 117 425 C120.96 426.49 120.96 426.49 125 428 C127 429 127 429 127 431 C128.32 431.66 129.64 432.32 131 433 C133.47 434.49 133.47 434.49 136 436 C139.96 437.49 139.96 437.49 144 439 C145.32 440.65 146.64 442.3 148 444 C150.12 444.64 152.25 445.28 154.44 445.94 C161 448 161 448 166 454 C168.64 455.32 171.28 456.64 174 458 C174.99 459.65 175.98 461.3 177 463 C178.98 464.32 180.96 465.64 183 467 C186 472 186 472 186 474 C186.66 474 187.32 474 188 474 C195.62 496.85 191.1 528.41 190.99 552.34 C190.98 557.36 190.97 562.38 190.95 567.4 C190.92 579.6 190.88 591.81 190.83 604.01 C190.8 610.93 190.78 617.85 190.76 624.78 C190.75 631.26 190.72 637.74 190.69 644.22 C190.68 647.13 190.68 650.03 190.68 653.03 C190.67 655.59 190.66 658.15 190.65 660.79 C190.6 667.19 190.6 667.19 194 673 C194 673.99 194 674.98 194 676 C196.31 676.33 198.62 676.66 201 677 C208 680 208 680 208 682 C208.66 682 209.32 682 210 682 C210.66 682.99 211.32 683.98 212 685 C214.32 685.68 214.32 685.68 216.69 686.38 C222.97 688.3 227.35 691.35 232 696 C235.96 697.49 235.96 697.49 240 699 C241.32 700.65 242.64 702.3 244 704 C247.99 705.37 251.99 706.7 256 708 C260 712 260 712 261 714 C263.97 714.33 266.94 714.66 270 715 C270.66 715.33 271.32 715.66 272 716 C271.92 708.72 271.92 708.72 270 707 C269.9 703.4 269.87 699.79 269.86 696.18 C269.86 693.81 269.85 691.44 269.85 688.99 C269.84 686.36 269.84 683.73 269.84 681.02 C269.83 676.9 269.83 676.9 269.83 672.69 C269.82 666.69 269.81 660.69 269.8 654.7 C269.79 645.22 269.77 635.74 269.75 626.26 C269.69 599.3 269.63 572.34 269.6 545.38 C269.58 528.92 269.54 512.46 269.5 495.99 C269.48 489.7 269.47 483.41 269.47 477.12 C269.47 468.33 269.44 459.54 269.42 450.76 C269.42 448.14 269.42 445.52 269.43 442.82 C269.41 440.43 269.4 438.04 269.39 435.58 C269.39 433.5 269.39 431.42 269.38 429.28 C269.26 423.54 269.26 423.54 266 417 C266 416.34 266 415.68 266 415 C264.02 414.67 262.04 414.34 260 414 C254 411 254 411 251 407 C246.68 405.3 242.35 403.63 238 402 C235 399 235 399 235 396 C232.36 395.67 229.72 395.34 227 395 C223 392 219 389 215 386 C212.03 385.01 209.06 384.02 206 383 C203.69 381.02 201.38 379.04 199 377 C196.03 375.68 193.06 374.36 190 373 C186 369 186 369 186 367 C183.36 366.67 180.72 366.34 178 366 C171 363 171 363 166 358 C164.16 357.34 162.33 356.68 160.44 356 C155 354 155 354 151 349 C146.67 347.32 142.34 345.65 138 344 C136.35 342.35 134.7 340.7 133 339 C130.96 338.18 128.92 337.35 126.81 336.5 C121 334 121 334 119 329 C116.03 328.34 113.06 327.68 110 327 C103 322 103 322 102 320 C100.18 319.44 98.37 318.89 96.5 318.31 C89.98 315.99 86.36 313.23 81 309 C77.35 307.63 73.68 306.3 70 305 C68.02 303.35 66.04 301.7 64 300 C62.29 299.34 60.58 298.68 58.81 298 C54 296 54 296 51 291 C49.51 290.59 48.03 290.18 46.5 289.75 C39.58 287.55 35.45 283.72 30 279 C28.68 278.34 27.36 277.68 26 277 C21.8 270.7 22.87 263.3 22.87 256 C22.87 253.42 22.86 250.84 22.86 248.19 C22.87 245.49 22.87 242.78 22.88 240 C22.87 237.3 22.87 234.6 22.86 231.81 C22.86 229.23 22.87 226.66 22.87 224 C22.87 220.44 22.87 220.44 22.87 216.81 C23.11 206 23.11 206 26 206 C26.33 204.68 26.66 203.36 27 202 C34.13 197.25 39.63 199.76 46 204 C47.67 204.45 49.34 204.91 51.06 205.38 C56 207 56 207 61 213 C62.98 213.66 64.96 214.32 67 215 C73 217 73 217 78 223 C81.31 224.06 84.65 225.06 88 226 C95 231 95 231 95 233 C97.97 233.66 100.94 234.32 104 235 C105.22 236.07 106.43 237.15 107.69 238.25 C113.23 243.07 119.25 245.2 126 248 C126.66 248.99 127.32 249.98 128 251 C131.16 252.18 131.16 252.18 134.38 253.38 C141 256 141 256 145 261 C147.31 261.82 149.62 262.65 152 263.5 C159 266 159 266 163 271 C164.67 271.66 166.34 272.32 168.06 273 C173 275 173 275 176 280 C180.64 281.74 185.31 283.41 190 285 C193 288 193 288 193 291 C195.64 291.33 198.28 291.66 201 292 C210 296 210 296 213 300 C215.97 300.99 218.94 301.98 222 303 C224.67 305.33 227.34 307.66 230 310 C233.31 311.4 236.64 312.74 240 314 C243 317 243 317 243 320 C245.64 320.33 248.28 320.66 251 321 C260 325.5 260 325.5 260 329 C262.97 329.66 265.94 330.32 269 331 C276 336 276 336 277 338 C280.12 339.14 280.12 339.14 283.31 340.31 C290 343 290 343 294 348 C310.29 352.72 317.59 353.07 330 342 C333.65 340.29 337.31 338.62 341 337 C342.32 335.68 343.64 334.36 345 333 C346.9 332.4 348.79 331.8 350.75 331.19 C357.16 328.94 360.01 326.42 365 322 C368.33 321 371.67 320 375 319 C376.65 317.02 378.3 315.04 380 313 C388 309 388 309 390 309 C390 308.34 390 307.68 390 307 C396.32 303.59 402.08 300.98 409 299 C409.66 297.68 410.32 296.36 411 295 C416 293.33 421 291.67 426 290 C426.66 288.68 427.32 287.36 428 286 C432.46 284.02 432.46 284.02 437 282 C438.98 281.01 440.96 280.02 443 279 C443.66 279 444.32 279 445 279 C445.66 277.68 446.32 276.36 447 275 C459.85 269.86 474.88 270.63 483 282 C484.98 283.32 486.96 284.64 489 286 C492.4 291.66 492.45 295.53 493 302 C493.66 302 494.32 302 495 302 C499.51 311.01 498.58 320.29 498.67 330.19 C498.7 332.69 498.74 335.19 498.77 337.77 C499.31 385.5 499.23 433.25 499.27 480.98 C499.28 489.19 499.28 489.19 499.29 497.55 C499.32 526.4 499.34 555.24 499.35 584.08 C499.36 607.94 499.39 631.8 499.43 655.65 C499.48 684.55 499.51 713.44 499.51 742.33 C499.52 753.33 499.54 764.33 499.56 775.32 C499.59 790.63 499.59 805.94 499.58 821.25 C499.6 825.8 499.62 830.35 499.63 835.04 C499.62 839.2 499.62 843.36 499.61 847.65 C499.61 851.26 499.61 854.88 499.62 858.6 C499.03 867.5 497.41 873.83 494 882 C493.29 885.03 493.29 885.03 492.56 888.12 C490.98 893.07 489.14 897 483 897 C482.67 898.65 482.34 900.3 482 902 C478 905 478 905 471 907 C469.35 908.65 467.7 910.3 466 912 C457 916 457 916 454 917 C452.35 918.65 450.7 920.3 449 922 C442 925 442 925 434 926 C433.34 927.32 432.68 928.64 432 930 C428 933 428 933 422.5 934.31 C416.38 935.55 416.38 935.55 413 942 C409.7 943.4 406.36 944.74 403 946 C401.68 947.32 400.36 948.64 399 950 C394 953 394 953 386 956 C384.35 957.65 382.7 959.3 381 961 C377.78 961.96 377.78 961.96 374.5 962.94 C367.49 964.52 367.49 964.52 363 971 C358.68 972.69 354.34 974.36 350 976 C348.68 977.65 347.36 979.3 346 981 C342.67 982.01 339.34 983.01 336 984 C334.35 985.65 332.7 987.3 331 989 C326 992 326 992 318 995 C317.01 996.32 316.02 997.64 315 999 C312.52 999.8 310.05 1000.61 307.5 1001.44 C299.76 1003.18 299.76 1003.18 297 1009 C292.34 1010.68 287.67 1012.35 283 1014 C281.68 1015.65 280.36 1017.3 279 1019 C275 1020.02 271 1021.02 267 1022 C266.34 1023.32 265.68 1024.64 265 1026 C260 1030 260 1030 251 1033 C249.68 1034.65 248.36 1036.3 247 1038 C244.67 1038.66 242.34 1039.32 239.94 1040 C232.69 1041.24 232.69 1041.24 230 1047 C225.67 1048.67 221.34 1050.34 217 1052 C215.02 1053.98 213.04 1055.96 211 1058 C207.35 1059.38 203.68 1060.71 200 1062 C198.68 1063.32 197.36 1064.64 196 1066 C191 1069 191 1069 184 1071 C182.68 1072.65 181.36 1074.3 180 1076 C177.5 1076.83 175.01 1077.65 172.44 1078.5 C164.75 1080.19 164.75 1080.19 162 1086 C157.67 1087.69 153.34 1089.35 149 1091 C146.69 1092.98 144.38 1094.96 142 1097 C137.54 1098.49 137.54 1098.49 133 1100 C131.35 1101.65 129.7 1103.3 128 1105 C123 1108 123 1108 116 1109 C115.67 1110.32 115.34 1111.64 115 1113 C106 1117 106 1117 97 1119 C96.67 1120.32 96.34 1121.64 96 1123 C92 1126 92 1126 86.56 1127.88 C80.6 1129.72 80.6 1129.72 76 1135 C72.67 1136 69.33 1137 66 1138 C64.35 1139.65 62.7 1141.3 61 1143 C49 1148.33 49 1148.33 44 1150 C44 1150.66 44 1151.32 44 1152 C30.5 1152 30.5 1152 27 1145 C26.34 1145 25.68 1145 25 1145 C21.23 1135.58 22.63 1124.85 22.62 1114.81 C22.6 1112.49 22.58 1110.16 22.55 1107.76 C22.55 1105.52 22.54 1103.27 22.54 1100.96 C22.53 1098.9 22.52 1096.85 22.51 1094.74 C23.69 1080.8 28.93 1074.13 43 1071 C43.66 1069.35 44.32 1067.7 45 1066 C53 1062 53 1062 59 1060 C60.32 1058.35 61.64 1056.7 63 1055 C68.29 1052.78 73.56 1050.81 79 1049 C79.66 1047.68 80.32 1046.36 81 1045 C82.71 1044.38 84.42 1043.76 86.19 1043.12 C92.66 1041.14 92.66 1041.14 99 1035 C102.33 1033.66 105.66 1032.33 109 1031 C110.65 1029.35 112.3 1027.7 114 1026 C117.66 1024.32 121.33 1022.65 125 1021 C126.98 1019.35 128.96 1017.7 131 1016 C133.94 1015.04 133.94 1015.04 136.94 1014.06 C143.64 1012.2 143.64 1012.2 150 1006 C153.33 1004.67 156.67 1003.33 160 1002 C162.31 1000.02 164.62 998.04 167 996 C170.67 995.33 174.33 994.66 178 994 C178.66 992.35 179.32 990.7 180 989 C188 985 188 985 194 983 C195.32 981.35 196.64 979.7 198 978 C201.95 976.53 205.96 975.19 210 974 C213.47 973.24 213.47 973.24 215 969 C221 965 221 965 225 965 C225 964.34 225 963.68 225 963 C230.95 959.11 236.29 956.52 243 954 C245.97 951.53 245.97 951.53 249 949 C251.21 948.34 253.41 947.68 255.69 947 C262.36 945.65 262.36 945.65 265 940 C269.33 938.31 273.66 936.65 278 935 C280.31 933.02 282.62 931.04 285 929 C288.32 927.96 291.65 926.95 295 926 C295.33 925.01 295.66 924.02 296 923 C296.66 923 297.32 923 298 923 C298 922.34 298 921.68 298 921 C306 917 306 917 310 916 C311.65 914.35 313.3 912.7 315 911 C324 907 324 907 327 907 C327 906.34 327 905.68 327 905 C327.66 905 328.32 905 329 905 C329 904.34 329 903.68 329 903 C335.64 899.68 341.97 897.34 349 895 C349.66 893.68 350.32 892.36 351 891 C353 889 353 889 360 886 C361.63 885.01 363.26 884.02 364.94 883 C370 880 370 880 378 877 C379.65 875.35 381.3 873.7 383 872 C393.7 868 393.7 868 397 868 C397.66 866.35 398.32 864.7 399 863 C404.29 860.74 409.55 858.82 415 857 C415 856.34 415 855.68 415 855 C415.66 855 416.32 855 417 855 C417.66 853.68 418.32 852.36 419 851 C420.65 850.34 422.3 849.68 424 849 C423.67 847.35 423.34 845.7 423 844 C422.88 840.51 422.82 837.02 422.79 833.53 C422.76 831.32 422.74 829.12 422.72 826.85 C422.7 824.41 422.68 821.98 422.66 819.47 C422.64 816.89 422.62 814.32 422.6 811.67 C422.52 803.02 422.46 794.37 422.4 785.72 C422.38 782.71 422.36 779.7 422.34 776.6 C421.98 725.64 421.99 674.68 422.19 623.72 C422.2 620.23 422.22 616.74 422.23 613.15 C422.35 584.58 422.48 556.01 422.62 527.44 C422.72 505.78 422.81 484.13 422.9 462.47 C422.94 452.46 422.99 442.45 423.05 432.45 C423.07 426.4 423.1 420.36 423.12 414.31 C423.14 411.56 423.16 408.81 423.17 405.97 C423.18 402.2 423.18 402.2 423.2 398.35 C423.21 395.08 423.21 395.08 423.23 391.74 C423.98 380.71 423.98 380.71 416 377 C414.68 378.65 413.36 380.3 412 382 C403 386 403 386 396 387 C395.34 388.65 394.68 390.3 394 392 C389.14 394.3 385.41 396 380 396 C379.34 397.32 378.68 398.64 378 400 C372.12 403.92 366.69 405.77 360 408 C359.67 408.99 359.34 409.98 359 411 C352 415 352 415 348 415 C346.8 424.59 346.76 434.08 346.68 443.72 C346.66 445.84 346.64 447.96 346.62 450.15 C346.55 457.23 346.49 464.31 346.43 471.39 C346.41 473.86 346.39 476.32 346.36 478.85 C346.02 519.07 345.94 559.29 346.01 599.51 C346.01 602.19 346.02 604.86 346.02 607.62 C346.06 632.3 346.1 656.97 346.17 681.64 C346.21 695.37 346.23 709.11 346.25 722.84 C346.25 727.99 346.27 733.15 346.29 738.31 C346.31 745.41 346.32 752.52 346.32 759.63 C346.34 761.71 346.35 763.8 346.36 765.95 C346.34 779.26 345.75 790.19 339 802 C338.01 803.98 337.02 805.96 336 808 C333.69 808.99 331.38 809.98 329 811 C328.34 812.32 327.68 813.64 327 815 C314.06 821.47 293.86 821.86 283 811 C280.03 810.01 277.06 809.02 274 808 C272.74 806.87 271.48 805.73 270.19 804.56 C265.13 800.26 260.27 798.97 254 797 C253.67 796.01 253.34 795.02 253 794 C249.67 792.33 246.31 790.72 242.94 789.12 C237 786 237 786 234 782 C231.03 781.01 228.06 780.02 225 779 C219 775 219 775 216 772 C213.03 771.01 210.06 770.02 207 769 C202 765 202 765 201 763 C198.88 762.2 196.75 761.39 194.56 760.56 C186 757.22 186 757.22 186 752 C183.03 751.67 180.06 751.34 177 751 C171 747 171 747 167 743 C163.68 741.97 160.34 740.97 157 740 C157 739.34 157 738.68 157 738 C155.35 737.67 153.7 737.34 152 737 C150.35 736.34 148.7 735.68 147 735 C144.03 737.47 144.03 737.47 141 740 C137 741.67 133 743.33 129 745 C126.03 747.47 126.03 747.47 123 750 C120.56 750.96 120.56 750.96 118.06 751.94 C112.27 753.99 112.27 753.99 106 760 C103.36 760.99 100.72 761.98 98 763 C97.34 764.32 96.68 765.64 96 767 C91 769.01 86 771.01 81 773 C79.35 774.65 77.7 776.3 76 778 C73.59 778.96 73.59 778.96 71.12 779.94 C65.27 781.97 65.27 781.97 59 788 C55.67 789.34 52.34 790.67 49 792 C47.35 793.65 45.7 795.3 44 797 C34.27 801 34.27 801 30 801 C29.34 802.65 28.68 804.3 28 806 C23.19 808.19 23.19 808.19 18 810 C12.54 811.8 12.54 811.8 8 817 C4.67 818.33 1.33 819.67 -2 821 C-3.65 822.65 -5.3 824.3 -7 826 C-16.57 828.73 -47.6 834.2 -52 821 C-53.9 820.22 -55.8 819.43 -57.75 818.62 C-64 816 -64 816 -69 811 C-70.98 810.34 -72.96 809.68 -75 809 C-81 807 -81 807 -86 802 C-88.64 800.68 -91.28 799.36 -94 798 C-94 797.34 -94 796.68 -94 796 C-95.65 795.67 -97.3 795.34 -99 795 C-99 794.34 -99 793.68 -99 793 C-101.97 792.01 -104.94 791.02 -108 790 C-114 785 -114 785 -115 783 C-118.87 781.58 -118.87 781.58 -122.81 780.12 C-131 777 -131 777 -135 773 C-138.5 771.51 -138.5 771.51 -142.06 770 C-149 767 -149 767 -152 763 C-154.97 761.68 -157.94 760.36 -161 759 C-166 756 -166 756 -168 753 C-170.32 752.35 -170.32 752.35 -172.69 751.69 C-178 750 -178 750 -185 744 C-187.06 743.15 -189.12 742.31 -191.25 741.44 C-197 739 -197 739 -200 734 C-210.28 732.61 -210.28 732.61 -214 740 C-217.65 741.38 -221.32 742.72 -225 744 C-226.65 745.65 -228.3 747.3 -230 749 C-235 751 -235 751 -242 752 C-242.66 753.65 -243.32 755.3 -244 757 C-251 761 -251 761 -259 763 C-260.49 765.47 -260.49 765.47 -262 768 C-265.99 769.69 -269.99 771.35 -274 773 C-277.04 775.28 -280.05 777.6 -283 780 C-284.32 780.33 -285.64 780.66 -287 781 C-284.96 781.72 -282.92 782.44 -280.81 783.19 C-274 786 -274 786 -269 791 C-265.04 792.49 -265.04 792.49 -261 794 C-259.58 795.13 -258.15 796.27 -256.69 797.44 C-251.62 801.29 -246.95 802.87 -241 805 C-238.52 807.47 -238.52 807.47 -236 810 C-232.35 811.7 -228.68 813.37 -225 815 C-222 818 -222 818 -221 820 C-218.68 820.68 -218.68 820.68 -216.31 821.38 C-205 824.84 -205 824.84 -205 830 C-202.03 830.62 -202.03 830.62 -199 831.25 C-191.67 833.08 -189.32 834.94 -184 840 C-181.03 841.32 -178.06 842.64 -175 844 C-174.01 845.65 -173.02 847.3 -172 849 C-168.35 850.07 -164.68 851.07 -161 852 C-155 856 -155 856 -154 859 C-151.69 859.33 -149.38 859.66 -147 860 C-138 865.24 -138 865.24 -138 869 C-134.67 869.68 -131.33 870.34 -128 871 C-126.02 872.32 -124.04 873.64 -122 875 C-117.06 878.09 -112.06 881.11 -107 884 C-106.67 885.32 -106.34 886.64 -106 888 C-102.68 888.73 -99.34 889.39 -96 890 C-88 894 -88 894 -86 897 C-83.03 897.99 -80.06 898.98 -77 900 C-71 905 -71 905 -71 907 C-68.4 907.68 -68.4 907.68 -65.75 908.38 C-56 911.13 -56 911.13 -56 916 C-52.67 917.02 -49.34 918.02 -46 919 C-41 922 -41 922 -40 926 C-24.54 929.63 -24.54 929.63 -13 922 C-6 918 -6 918 3 917 C3.33 915.35 3.66 913.7 4 912 C9 909 9 909 14 907.12 C19.44 905.18 19.44 905.18 24 900 C27.33 899 30.67 898 34 897 C35.65 895.35 37.3 893.7 39 892 C44 889 44 889 52 886 C53.32 884.68 54.64 883.36 56 882 C59.33 880.32 62.66 878.65 66 877 C66.33 876.34 66.66 875.68 67 875 C70.98 873.28 74.98 871.62 79 870 C86.45 867.22 86.45 867.22 93 861 C95.97 860.34 98.94 859.68 102 859 C102.66 857.68 103.32 856.36 104 855 C108.78 852.02 112.46 850.11 118 849 C119.32 847.35 120.64 845.7 122 844 C126.64 841.94 131.29 839.89 136 838 C137.65 836.35 139.3 834.7 141 833 C143.41 832.04 143.41 832.04 145.88 831.06 C151.73 829.03 151.73 829.03 158 823 C162 821 162 821 167 821 C167 820.34 167 819.68 167 819 C173.37 814.79 178.64 812.45 186 810 C187.32 808.35 188.64 806.7 190 805 C201.78 800 201.78 800 205 800 C205.66 798.68 206.32 797.36 207 796 C216.35 791.33 227.6 791.7 236 798 C236 798.66 236 799.32 236 800 C238.97 800.99 241.94 801.98 245 803 C251 806 251 806 255 810 C257 810.83 259 811.65 261.06 812.5 C270 816.26 270 816.26 270 821 C271.98 821.66 273.96 822.32 276 823 C282.03 829.03 279.78 833.6 277 841 C268 850 268 850 264 850 C264 850.66 264 851.32 264 852 C256 856 256 856 248 859 C246.72 860.13 245.44 861.27 244.12 862.44 C239.62 866.33 235.53 867.93 230 870 C229.01 870.99 228.02 871.98 227 873 C218 877 218 877 212 878 C211.67 879.32 211.34 880.64 211 882 C203 886 203 886 194 888 C192.51 890.47 192.51 890.47 191 893 C182.35 897 182.35 897 178 897 C177.67 897.99 177.34 898.98 177 900 C176.34 900 175.68 900 175 900 C174.67 900.99 174.34 901.98 174 903 C171.34 903.93 171.34 903.93 168.62 904.88 C162.61 906.48 162.61 906.48 160 912 C155.04 914.05 150.2 915.7 145 917 C143.68 918.65 142.36 920.3 141 922 C137.03 924.05 133.02 926.05 129 928 C127.35 929.32 125.7 930.64 124 932 C122.18 932.64 120.37 933.28 118.5 933.94 C112.59 935.72 112.59 935.72 108 941 C103 944 103 944 96 945 C95.67 945.99 95.34 946.98 95 948 C88.69 951.85 84.39 953.94 77 955 C76.34 956.65 75.68 958.3 75 960 C69.39 962.44 65.14 964 59 964 C58.34 965.65 57.68 967.3 57 969 C53 972 53 972 44 976 C42.68 977.32 41.36 978.64 40 980 C36 982 36 982 28 984 C26.51 986.47 26.51 986.47 25 989 C18 992 18 992 11 993 C9.94 999.96 9.94 999.96 10.16 1008.68 C10.15 1011.17 10.15 1011.17 10.14 1013.7 C10.13 1019.21 10.17 1024.71 10.2 1030.22 C10.2 1034.04 10.2 1037.85 10.19 1041.66 C10.17 1051.73 10.2 1061.8 10.23 1071.87 C10.28 1087.97 10.28 1104.06 10.26 1120.16 C10.27 1125.79 10.29 1131.42 10.31 1137.05 C10.32 1140.5 10.32 1143.96 10.32 1147.41 C10.34 1151.94 10.34 1151.94 10.35 1156.55 C9.82 1167.78 8.7 1170.94 -1 1177 C-2.32 1178.65 -3.64 1180.3 -5 1182 C-19.71 1186.9 -41.84 1190.16 -54 1178 C-54 1177.34 -54 1176.68 -54 1176 C-56.97 1175.34 -59.94 1174.68 -63 1174 C-64.26 1172.89 -65.52 1171.77 -66.81 1170.62 C-71.88 1166.24 -76.67 1165.04 -83 1163 C-84.65 1161.35 -86.3 1159.7 -88 1158 C-90.02 1156.99 -92.04 1155.98 -94.12 1154.94 C-100 1152 -100 1152 -103 1148 C-104.71 1147.38 -106.42 1146.76 -108.19 1146.12 C-114 1144 -114 1144 -122 1138 C-124.97 1137.01 -127.94 1136.02 -131 1135 C-134 1132.67 -137 1130.34 -140 1128 C-143.33 1126.65 -146.66 1125.32 -150 1124 C-151.65 1122.35 -153.3 1120.7 -155 1119 C-156.84 1118.36 -158.67 1117.72 -160.56 1117.06 C-166 1115 -166 1115 -170 1109 C-173.65 1107.94 -177.32 1106.94 -181 1106 C-187 1101 -187 1101 -187 1099 C-188.55 1098.71 -190.09 1098.42 -191.69 1098.12 C-197.82 1096.83 -200.63 1094.37 -205 1090 C-207.12 1089.2 -209.25 1088.39 -211.44 1087.56 C-218 1085 -218 1085 -222 1081 C-224.97 1079.68 -227.94 1078.36 -231 1077 C-237 1073 -237 1073 -237 1070 C-239.64 1069.67 -242.28 1069.34 -245 1069 C-253 1063 -253 1063 -253 1061 C-254.86 1060.59 -256.71 1060.17 -258.62 1059.75 C-265 1058 -265 1058 -271 1052 C-275 1050.33 -279 1048.66 -283 1047 C-284.32 1045.35 -285.64 1043.7 -287 1042 C-290.65 1040.63 -294.32 1039.3 -298 1038 C-302 1034 -302 1034 -302 1032 C-303.86 1031.59 -305.71 1031.17 -307.62 1030.75 C-314 1029 -314 1029 -320 1023 C-324 1021.65 -328 1020.32 -332 1019 C-333.32 1017.35 -334.64 1015.7 -336 1014 C-340.32 1012.3 -344.65 1010.63 -349 1009 C-353 1005 -353 1005 -353 1003 C-354.51 1002.75 -356.01 1002.5 -357.56 1002.25 C-370 999.39 -370 999.39 -370 993 C-371.46 992.77 -372.93 992.55 -374.44 992.31 C-380.89 990.79 -383.89 988.12 -389 984 C-392.33 982.65 -395.66 981.31 -399 980 C-402 976 -402 976 -402 974 C-403.53 973.71 -405.05 973.42 -406.62 973.12 C-413.43 971.7 -417.12 968.88 -422 964 C-426.45 962.51 -426.45 962.51 -431 961 C-434.47 958.03 -434.47 958.03 -438 955 C-442 953.65 -446 952.32 -450 951 C-451.65 949.35 -453.3 947.7 -455 946 C-457.02 944.99 -459.04 943.98 -461.12 942.94 C-467 940 -467 940 -470 936 C-473.64 934.59 -477.31 933.26 -481 932 C-487 929 -487 929 -490 926 C-493.96 924.51 -493.96 924.51 -498 923 C-504 918 -504 918 -504 916 C-506.97 915.34 -509.94 914.68 -513 914 C-518 911 -518 911 -522 907 C-524.31 906.01 -526.62 905.02 -529 904 C-535 900 -535 900 -535 897 C-536.98 896.34 -538.96 895.68 -541 895 C-545.49 890.51 -546.71 886.86 -549 881 C-550.98 878.03 -550.98 878.03 -553 875 C-555.28 868.16 -554.13 859.51 -554.14 852.46 C-554.15 848.21 -554.15 843.95 -554.16 839.57 C-554.16 834.86 -554.16 830.15 -554.16 825.29 C-554.17 820.36 -554.17 815.43 -554.18 810.36 C-554.19 793.97 -554.2 777.58 -554.2 761.2 C-554.21 749.87 -554.21 738.54 -554.22 727.21 C-554.23 703.43 -554.24 679.64 -554.24 655.86 C-554.25 625.3 -554.27 594.74 -554.3 564.18 C-554.32 540.77 -554.32 517.37 -554.32 493.96 C-554.33 482.69 -554.33 471.42 -554.35 460.15 C-554.36 444.42 -554.36 428.69 -554.36 412.97 C-554.37 408.26 -554.37 403.55 -554.38 398.7 C-554.38 394.44 -554.37 390.18 -554.37 385.79 C-554.37 382.07 -554.37 378.34 -554.37 374.51 C-553.84 362.37 -549.96 359.35 -540 353 C-534 354 -534 354 -532 358 C-528.01 358.74 -524.01 359.4 -520 360 C-511 364.5 -511 364.5 -511 368 C-508.03 368.66 -505.06 369.32 -502 370 C-500 371 -500 371 -500 373 C-498.68 373.66 -497.36 374.32 -496 375 C-486.17 381.14 -483.09 383.18 -480 394 C-479.01 394.33 -478.02 394.66 -477 395 C-476.7 400.66 -476.62 406.33 -476.61 412 C-476.61 415.74 -476.6 419.48 -476.59 423.34 C-476.59 427.49 -476.59 431.65 -476.6 435.93 C-476.59 442.43 -476.59 442.43 -476.58 449.07 C-476.56 463.51 -476.56 477.94 -476.56 492.38 C-476.55 502.36 -476.53 512.34 -476.52 522.32 C-476.48 548.66 -476.46 575.01 -476.45 601.35 C-476.42 643.5 -476.38 685.65 -476.33 727.81 C-476.31 742.58 -476.31 757.35 -476.3 772.12 C-476.29 781.14 -476.28 790.15 -476.27 799.17 C-476.27 803.31 -476.28 807.45 -476.28 811.71 C-476.27 815.47 -476.27 819.24 -476.26 823.11 C-476.26 828.03 -476.26 828.03 -476.25 833.05 C-476.24 846.51 -476.24 846.51 -465 853 C-462 857 -462 857 -462 859 C-460.49 859.29 -458.99 859.58 -457.44 859.88 C-451.38 861.13 -446.57 862.64 -443 868 C-440.77 868.62 -440.77 868.62 -438.5 869.25 C-432.31 871.22 -428.24 874.22 -423 878 C-420.03 879.32 -417.06 880.64 -414 882 C-412.68 883.65 -411.36 885.3 -410 887 C-407.83 887.83 -405.67 888.65 -403.44 889.5 C-397 892 -397 892 -394 897 C-391.03 897.66 -388.06 898.32 -385 899 C-376 904.33 -376 904.33 -376 907 C-373.03 907.66 -370.06 908.32 -367 909 C-361 914 -361 914 -360 916 C-358.41 916.43 -356.82 916.87 -355.19 917.31 C-349.69 919.1 -347.66 920.69 -345 926 C-343.29 926.45 -341.58 926.91 -339.81 927.38 C-333.6 929.11 -329.57 931.43 -325 936 C-322.69 936.66 -320.38 937.32 -318 938 C-315 940 -312 942 -309 944 C-307.37 944.62 -305.74 945.24 -304.06 945.88 C-298.11 948.37 -294.02 951.98 -289 956 C-285.69 957.39 -282.36 958.73 -279 960 C-275.98 961.96 -272.97 963.96 -270 966 C-267.36 967.32 -264.72 968.64 -262 970 C-261.01 971.32 -260.02 972.64 -259 974 C-257.27 974.62 -255.54 975.24 -253.75 975.88 C-248 978 -248 978 -241 984 C-238.03 984.99 -235.06 985.98 -232 987 C-230.02 988.98 -228.04 990.96 -226 993 C-222 994.67 -218 996.34 -214 998 C-212.68 999.65 -211.36 1001.3 -210 1003 C-207.03 1003.99 -204.06 1004.98 -201 1006 C-195 1009 -195 1009 -193 1013 C-190.03 1013.66 -187.06 1014.32 -184 1015 C-178 1019 -178 1019 -178 1022 C-174.69 1023.07 -171.35 1024.06 -168 1025 C-162 1028 -162 1028 -157 1032 C-154.46 1033.24 -154.46 1033.24 -151.88 1034.5 C-147 1037 -147 1037 -144 1041 C-140.01 1042.36 -136.01 1043.69 -132 1045 C-127 1049 -127 1049 -124 1052 C-120.04 1053.49 -120.04 1053.49 -116 1055 C-112 1059 -112 1059 -112 1061 C-109.68 1061.46 -109.68 1061.46 -107.31 1061.94 C-97.42 1063.92 -97.42 1063.92 -96 1071 C-93.36 1071.33 -90.72 1071.66 -88 1072 C-79 1076 -79 1076 -78 1080 C-74.37 1081.13 -70.7 1082.13 -67 1083 C-66.34 1083.33 -65.68 1083.66 -65 1084 C-64.78 1071.08 -64.61 1058.15 -64.51 1045.23 C-64.46 1040.83 -64.4 1036.43 -64.32 1032.03 C-64.21 1025.72 -64.16 1019.41 -64.12 1013.1 C-64.07 1011.12 -64.03 1009.14 -63.98 1007.1 C-62.95 994.78 -62.95 994.78 -74 991 C-80 986 -80 986 -80 984 C-83.66 982.97 -87.33 981.97 -91 981 C-94 979 -94 979 -94 977 C-98.27 974.78 -98.27 974.78 -104.06 972.69 C-110 970 -110 970 -113 965 C-117.33 963.64 -121.66 962.31 -126 961 C-128.48 958.53 -128.48 958.53 -131 956 C-134.33 954.66 -137.66 953.33 -141 952 C-144.96 949.03 -144.96 949.03 -149 946 C-150.88 945.32 -152.75 944.64 -154.69 943.94 C-160 942 -160 942 -165 937 C-169.33 934.65 -173.66 932.32 -178 930 C-179.32 928.68 -180.64 927.36 -182 926 C-185.33 924.98 -188.66 923.98 -192 923 C-198 919 -198 919 -199 917 C-201.97 916.01 -204.94 915.02 -208 914 C-214 909 -214 909 -214 907 C-216.35 906.32 -216.35 906.32 -218.75 905.62 C-224.61 903.81 -226.76 901.24 -231 897 C-233.12 896.38 -235.25 895.76 -237.44 895.12 C-244 893 -244 893 -248 888 C-251.66 886.65 -255.33 885.32 -259 884 C-261.48 881.53 -261.48 881.53 -264 879 C-267.47 877.51 -267.47 877.51 -271 876 C-277 873 -277 873 -281 869 C-285.32 867.31 -289.66 865.64 -294 864 C-297 861 -297 861 -297 859 C-299.64 858.34 -302.28 857.68 -305 857 C-313 852 -313 852 -314 849 C-315.55 848.69 -317.09 848.38 -318.69 848.06 C-324.97 846.81 -329.33 845.66 -331 839 C-333.97 838.34 -336.94 837.68 -340 837 C-345 834 -345 834 -350 830 C-353.09 828.51 -353.09 828.51 -356.25 827 C-362 824 -362 824 -363 820 C-366.32 819.29 -369.66 818.63 -373 818 C-379 814 -379 814 -383 809 C-385.31 807.68 -387.62 806.36 -390 805 C-392.69 799.63 -392.69 799.63 -395 794 C-396.98 791.03 -396.98 791.03 -399 788 C-401.26 778.96 -399.53 771.93 -395 764 C-394.34 764 -393.68 764 -393 764 C-392.67 762.02 -392.34 760.04 -392 758 C-387 754 -387 754 -383 752 C-382.01 750.35 -381.02 748.7 -380 747 C-371.24 743 -371.24 743 -368 743 C-367.67 742.01 -367.34 741.02 -367 740 C-362 736 -362 736 -353 733 C-351.35 731.68 -349.7 730.36 -348 729 C-340 725 -340 725 -334 723 C-332.02 720.53 -332.02 720.53 -330 718 C-323 715 -323 715 -316 714 C-315.01 711.53 -315.01 711.53 -314 709 C-310.01 707.31 -306.01 705.65 -302 704 C-299.3 701.7 -296.63 699.37 -294 697 C-291.36 696.01 -288.72 695.02 -286 694 C-284.02 692.35 -282.04 690.7 -280 689 C-274 686 -274 686 -268 685 C-266.51 682.53 -266.51 682.53 -265 680 C-262.9 679.2 -260.79 678.39 -258.62 677.56 C-251.54 675.44 -251.54 675.44 -247 669 C-245.35 668.34 -243.7 667.68 -242 667 C-241.54 660.86 -241.4 655 -241.48 648.86 C-241.48 646.99 -241.49 645.13 -241.49 643.21 C-241.51 637.2 -241.57 631.2 -241.62 625.19 C-241.64 621.27 -241.66 617.35 -241.67 613.44 C-241.76 592.36 -242.15 571.31 -242.77 550.25 C-243.09 538.83 -243.22 527.42 -243.25 516 C-243.27 513.94 -243.29 511.88 -243.31 509.75 C-243.34 499.33 -242.83 490.12 -240 480 C-239.66 476.84 -239.66 476.84 -239.31 473.62 C-237.73 466.84 -235.45 465.11 -230 461 C-229.01 459.35 -228.02 457.7 -227 456 C-221 451 -221 451 -219 451 C-219 450.34 -219 449.68 -219 449 C-213 447 -207 445 -201 443 C-200.34 441.68 -199.68 440.36 -199 439 C-190.11 435 -190.11 435 -187 435 C-186.34 433.68 -185.68 432.36 -185 431 C-174.04 425 -174.04 425 -170 425 C-169.34 423.68 -168.68 422.36 -168 421 C-164.71 419.25 -161.37 417.58 -158 416 C-152.84 413.06 -152.84 413.06 -148 409 C-146.08 408.4 -144.16 407.8 -142.19 407.19 C-135.86 404.95 -132.83 402.51 -128 398 C-125.69 397.01 -123.38 396.02 -121 395 C-120.01 394.01 -119.02 393.02 -118 392 C-114.36 390.28 -110.69 388.62 -107 387 C-102.68 385.11 -102.68 385.11 -99 381 C-95.57 379.79 -95.57 379.79 -92.06 378.56 C-84.78 376.48 -84.78 376.48 -80 371 C-76.02 369.29 -72.02 367.61 -68 366 C-63.54 361.54 -64.79 354.46 -64.68 348.57 C-64.64 346.25 -64.6 343.92 -64.56 341.53 C-64.5 337.86 -64.5 337.86 -64.44 334.12 C-64.39 331.75 -64.35 329.38 -64.31 326.93 C-63.65 298.44 -63.65 298.44 -65 270 C-73.68 269.54 -73.68 269.54 -78 276 C-80.97 277.32 -83.94 278.64 -87 280 C-93.16 283.95 -93.16 283.95 -99 289 C-102.96 290.98 -102.96 290.98 -107 293 C-108.86 294.03 -110.71 295.06 -112.62 296.12 C-118 299 -118 299 -124 301 C-124.33 301.66 -124.66 302.32 -125 303 C-125.66 303 -126.32 303 -127 303 C-127 303.66 -127 304.32 -127 305 C-132.59 307.29 -136.93 309 -143 309 C-143.66 310.65 -144.32 312.3 -145 314 C-149 317 -149 317 -154 318.38 C-159.47 319.65 -159.47 319.65 -163 325 C-172.73 329 -172.73 329 -176 329 C-176.33 329.99 -176.66 330.98 -177 332 C-181.59 335.31 -185.73 337.89 -191 340 C-192.98 341.65 -194.96 343.3 -197 345 C-199.17 345.64 -201.33 346.28 -203.56 346.94 C-210.52 348.53 -210.52 348.53 -215 355 C-224.8 358 -224.8 358 -230 358 C-230.33 359.65 -230.66 361.3 -231 363 C-240 367 -240 367 -243 368 C-244.32 369.65 -245.64 371.3 -247 373 C-250.99 374.68 -254.99 376.35 -259 378 C-260.65 379.65 -262.3 381.3 -264 383 C-266.14 383.64 -268.29 384.28 -270.5 384.94 C-277.51 386.52 -277.51 386.52 -282 393 C-292.42 397 -292.42 397 -296 397 C-296.66 398.32 -297.32 399.64 -298 401 C-302 404 -302 404 -310 407 C-311.32 408.32 -312.64 409.64 -314 411 C-316.64 412.65 -319.28 414.3 -322 416 C-324.04 422.12 -324.26 426.26 -324.27 432.66 C-324.27 434.88 -324.28 437.09 -324.29 439.37 C-324.29 443.01 -324.29 443.01 -324.29 446.73 C-324.29 449.28 -324.3 451.84 -324.31 454.47 C-324.32 460.03 -324.33 465.6 -324.34 471.16 C-324.34 479.96 -324.36 488.76 -324.39 497.56 C-324.44 516.25 -324.47 534.94 -324.5 553.62 C-324.54 575.26 -324.58 596.89 -324.64 618.52 C-324.66 627.19 -324.66 635.87 -324.67 644.54 C-324.69 649.86 -324.7 655.18 -324.71 660.5 C-324.71 664.12 -324.71 664.12 -324.71 667.82 C-324.72 670.05 -324.73 672.28 -324.73 674.57 C-324.74 676.5 -324.74 678.43 -324.74 680.42 C-325.63 699.78 -325.63 699.78 -336 706 C-338.48 708.47 -338.48 708.47 -341 711 C-343.14 711.8 -345.29 712.61 -347.5 713.44 C-354.47 715.58 -354.47 715.58 -359 722 C-361.97 723.32 -364.94 724.64 -368 726 C-370.44 727.36 -370.44 727.36 -372.94 728.75 C-385.22 734.21 -390.85 730.76 -397 720 C-398.87 713.46 -399.24 708.95 -399.23 702.23 C-399.24 700.02 -399.24 697.81 -399.24 695.53 C-399.23 693.11 -399.22 690.68 -399.21 688.19 C-399.21 685.63 -399.21 683.08 -399.21 680.44 C-399.2 671.96 -399.18 663.48 -399.16 655 C-399.15 649.1 -399.15 643.2 -399.14 637.29 C-399.13 621.71 -399.11 606.13 -399.08 590.56 C-399.04 565.7 -399.01 540.85 -398.98 516 C-398.97 507.35 -398.96 498.69 -398.94 490.04 C-398.92 477.45 -398.94 464.86 -398.99 452.28 C-399 446.65 -398.96 441.02 -398.91 435.39 C-398.92 432.56 -398.93 429.72 -398.94 426.8 C-398.92 423.35 -398.92 423.35 -398.9 419.83 C-399.54 413.68 -399.54 413.68 -409 413 C-412 410 -412 410 -413 407 C-416.65 405.61 -420.31 404.28 -424 403 C-429 400 -429 400 -430 396 C-432.64 395.67 -435.28 395.34 -438 395 C-445 391 -445 391 -450 386 C-454.45 384.51 -454.45 384.51 -459 383 C-460.65 381.35 -462.3 379.7 -464 378 C-468.32 376.29 -472.65 374.62 -477 373 C-480 370 -480 370 -480 368 C-482.64 367.34 -485.28 366.68 -488 366 C-494 363 -494 363 -499 358 C-503.45 356.51 -503.45 356.51 -508 355 C-513 352 -513 352 -514 348 C-515.51 347.73 -517.01 347.46 -518.56 347.19 C-524.97 345.79 -527.17 343.31 -532 339 C-533.88 338.36 -535.75 337.72 -537.69 337.06 C-543 335 -543 335 -548 327 C-549.32 325.68 -550.64 324.36 -552 323 C-555.46 312.61 -556.18 300.18 -548 292 C-547.01 289.03 -546.02 286.06 -545 283 C-543.02 282.01 -541.04 281.02 -539 280 C-537.68 278.02 -536.36 276.04 -535 274 C-530.54 272.02 -530.54 272.02 -526 270 C-524.51 268.02 -524.51 268.02 -523 266 C-513.33 262 -513.33 262 -508 262 C-507.34 260.35 -506.68 258.7 -506 257 C-500.7 254.27 -495.37 251.6 -490 249 C-488.68 247.68 -487.36 246.36 -486 245 C-484.43 244.38 -482.87 243.76 -481.25 243.12 C-475.21 240.94 -475.21 240.94 -468 235 C-463.55 234.01 -463.55 234.01 -459 233 C-458.34 231.35 -457.68 229.7 -457 228 C-451.68 225.74 -446.67 224.13 -441 223 C-440.01 221.35 -439.02 219.7 -438 218 C-433.68 215.97 -429.35 213.97 -425 212 C-422.69 210.02 -420.38 208.04 -418 206 C-415.03 205.01 -412.06 204.02 -409 203 C-407.35 201.35 -405.7 199.7 -404 198 C-400 196.33 -396 194.67 -392 193 C-390.35 191.35 -388.7 189.7 -387 188 C-377.16 184 -377.16 184 -374 184 C-373.34 182.68 -372.68 181.36 -372 180 C-369 178 -369 178 -364.12 176.69 C-358.52 175.27 -358.52 175.27 -354 170 C-351.36 168.68 -348.72 167.36 -346 166 C-340.56 162.83 -340.56 162.83 -334 158 C-332.31 157.5 -330.62 157.01 -328.88 156.5 C-323.47 155.25 -323.47 155.25 -319 150 C-312 147 -312 147 -306 146 C-305.01 144.35 -304.02 142.7 -303 141 C-298.55 139.02 -298.55 139.02 -294 137 C-288.88 134.2 -288.88 134.2 -285 130 C-283.37 129.53 -281.74 129.05 -280.06 128.56 C-274.5 127.28 -274.5 127.28 -270 122 C-263 118 -263 118 -257 116 C-255.35 114.35 -253.7 112.7 -252 111 C-248.01 109.31 -244.01 107.65 -240 106 C-238.02 104.02 -238.02 104.02 -236 102 C-226.89 98 -226.89 98 -224 98 C-223.34 96.68 -222.68 95.36 -222 94 C-217.06 91.53 -212.07 89.17 -207 87 C-206.01 86.01 -205.02 85.02 -204 84 C-196 80 -196 80 -189 79 C-188.34 77.68 -187.68 76.36 -187 75 C-181.38 71.63 -177.37 69.82 -171 68 C-169.51 65.53 -169.51 65.53 -168 63 C-166.12 62.38 -164.25 61.76 -162.31 61.12 C-155.82 58.94 -152.99 56.5 -148 52 C-145.03 51.01 -142.06 50.02 -139 49 C-137.68 47.84 -136.36 46.69 -135 45.5 C-131 42 -131 42 -122 39 C-120.35 37.35 -118.7 35.7 -117 34 C-111 31.5 -111 31.5 -105 29 C-103.35 27.35 -101.7 25.7 -100 24 C-96.34 22.99 -92.67 21.99 -89 21 C-88.34 19.68 -87.68 18.36 -87 17 C-81 13 -81 13 -73 12 C-72.34 10.68 -71.68 9.36 -71 8 C-64.86 4 -61.49 2.94 -54 2 C-53.67 0.68 -53.34 -0.64 -53 -2 C-39.11 -10.33 -12.17 -12.17 0 0 Z M-30 425 C-30 425.66 -30 426.32 -30 427 C-30.66 427 -31.32 427 -32 427 C-32 427.66 -32 428.32 -32 429 C-33.98 429.66 -35.96 430.32 -38 431 C-44.97 433.54 -44.97 433.54 -49 439 C-50.98 439.66 -52.96 440.32 -55 441 C-63.63 444.14 -63.63 444.14 -68 451 C-70.97 451.66 -73.94 452.32 -77 453 C-80.47 455.97 -80.47 455.97 -84 459 C-87.47 459.96 -87.47 459.96 -91 460.94 C-98.72 462.61 -98.72 462.61 -105 470 C-107.97 471.32 -110.94 472.64 -114 474 C-116.48 476.48 -116.48 476.48 -119 479 C-122.63 480.44 -126.29 481.79 -130 483 C-128.68 484.65 -127.36 486.3 -126 488 C-125.34 489.65 -124.68 491.3 -124 493 C-120.7 494.11 -117.36 495.11 -114 496 C-109 499 -109 499 -105 504 C-100.68 505.05 -96.35 506.05 -92 507 C-91.67 507.99 -91.34 508.98 -91 510 C-85.69 514.59 -85.69 514.59 -77 518 C-75.68 519.32 -74.36 520.64 -73 522 C-70.36 522.99 -67.72 523.98 -65 525 C-57 528 -57 528 -53 532 C-49.35 534.04 -45.69 536.03 -42 538 C-40.02 539.32 -38.04 540.64 -36 542 C-29.04 544.23 -16.89 545.66 -14 537 C-12.35 536.67 -10.7 536.34 -9 536 C0.16 532.44 0.16 532.44 7 526 C10.67 524.67 14.33 523.33 18 522 C20.31 520.02 22.62 518.04 25 516 C29 514.67 33 513.33 37 512 C39.31 510.02 41.62 508.04 44 506 C46.97 505.01 49.94 504.02 53 503 C53 502.34 53 501.68 53 501 C53.66 501 54.32 501 55 501 C55 500.34 55 499.68 55 499 C60 497 60 497 65.06 495.5 C71.37 492.31 73.05 490 74 483 C68.92 480.01 68.92 480.01 63 478 C62.01 476.35 61.02 474.7 60 473 C57.9 472.36 55.79 471.72 53.62 471.06 C47 469 47 469 42 463 C37.67 461.64 33.34 460.31 29 459 C27.02 456.52 27.02 456.52 25 454 C21.67 452.66 18.34 451.33 15 450 C12.69 448.02 10.38 446.04 8 444 C4.34 442.31 0.68 440.64 -3 439 C-4.32 437.68 -5.64 436.36 -7 435 C-10.32 433.64 -13.66 432.31 -17 431 C-23 427 -23 427 -25 425 C-26.65 425 -28.3 425 -30 425 Z M-163 551 C-168.91 556.91 -166.46 568.39 -166.48 576.47 C-166.5 579.86 -166.5 579.86 -166.52 583.32 C-166.57 590.56 -166.6 597.81 -166.62 605.06 C-166.66 612.29 -166.7 619.51 -166.75 626.73 C-166.77 631.24 -166.8 635.74 -166.81 640.24 C-166.82 642.29 -166.83 644.34 -166.84 646.46 C-166.85 648.26 -166.86 650.05 -166.86 651.91 C-167 657 -167 657 -167.64 662.36 C-168.63 675.11 -158.5 677.92 -148 681 C-145 682 -145 682 -143 686 C-139.71 687.43 -136.37 688.77 -133 690 C-129 692 -129 692 -127 696 C-123.33 697.34 -119.67 698.67 -116 700 C-113.52 702.48 -113.52 702.48 -111 705 C-106.34 707.01 -101.67 709.01 -97 711 C-96.67 711.99 -96.34 712.98 -96 714 C-94.51 714.58 -93.03 715.15 -91.5 715.75 C-86 718 -86 718 -81.44 721.56 C-76.43 725.45 -71.57 728 -65 728 C-62.48 722.96 -62.75 719.51 -62.76 713.87 C-62.75 711.75 -62.75 709.64 -62.75 707.46 C-62.75 705.17 -62.76 702.88 -62.77 700.52 C-62.77 698.17 -62.77 695.82 -62.77 693.4 C-62.77 688.43 -62.78 683.45 -62.79 678.48 C-62.81 670.86 -62.81 663.25 -62.81 655.63 C-62.82 650.8 -62.83 645.97 -62.83 641.14 C-62.83 638.86 -62.83 636.58 -62.84 634.23 C-62.84 632.1 -62.85 629.97 -62.85 627.78 C-62.86 625.91 -62.86 624.04 -62.87 622.12 C-62.4 609.82 -62.4 609.82 -73 604 C-74.32 602.35 -75.64 600.7 -77 599 C-82.32 596.98 -87.66 594.98 -93 593 C-93.99 591.68 -94.98 590.36 -96 589 C-97.94 588.2 -99.88 587.39 -101.88 586.56 C-108 584 -108 584 -113 579 C-116.32 577.62 -119.65 576.29 -123 575 C-125.64 573.35 -128.28 571.7 -131 570 C-135.45 568.02 -135.45 568.02 -140 566 C-141.98 564.02 -143.96 562.04 -146 560 C-149.99 558.64 -153.99 557.31 -158 556 C-159.65 554.35 -161.3 552.7 -163 551 Z M108 552 C107.67 552.99 107.34 553.98 107 555 C106.34 555 105.68 555 105 555 C105 555.66 105 556.32 105 557 C102.03 557.66 99.06 558.32 96 559 C92.72 560.58 92.72 560.58 93 563 C89 565 89 565 83.25 567.31 C76.52 570.02 76.52 570.02 69 575 C67.1 575.85 65.21 576.69 63.25 577.56 C57.83 579.71 57.83 579.71 54 584 C50.81 585.45 50.81 585.45 47.56 586.94 C40.79 589.64 40.79 589.64 36 595 C34.06 595.64 32.12 596.28 30.12 596.94 C23.36 598.79 23.36 598.79 17 605 C14.69 605.99 12.38 606.98 10 608 C8.96 613.08 8.96 613.08 9.17 619.22 C9.17 621.59 9.16 623.96 9.16 626.41 C9.19 628.98 9.22 631.56 9.25 634.22 C9.25 636.85 9.26 639.48 9.26 642.19 C9.28 647.76 9.31 653.33 9.36 658.9 C9.44 667.46 9.46 676.02 9.48 684.58 C9.51 689.98 9.53 695.38 9.56 700.78 C9.57 703.36 9.58 705.94 9.59 708.59 C9.62 710.97 9.64 713.34 9.66 715.78 C9.68 717.88 9.7 719.98 9.71 722.14 C9.59 726.92 9.59 726.92 12 730 C13.32 729.01 14.64 728.02 16 727 C18.64 726.01 21.28 725.02 24 724 C24.33 723.01 24.66 722.02 25 721 C29 719 29 719 35.44 717.25 C42.49 715.47 42.49 715.47 47 709 C50.99 707.64 54.99 706.31 59 705 C60.32 703.35 61.64 701.7 63 700 C67 698.32 71 696.66 75 695 C77.31 693.02 79.62 691.04 82 689 C85.33 687.99 88.66 686.98 92 686 C94.48 683.52 94.48 683.52 97 681 C98.61 680.09 100.22 679.18 101.88 678.25 C111.29 672.28 114.87 666.46 114.93 655.34 C114.96 653.24 114.99 651.14 115.02 648.97 C115.02 645.59 115.02 645.59 115.01 642.14 C115.03 639.82 115.05 637.49 115.07 635.1 C115.1 630.19 115.12 625.27 115.12 620.36 C115.12 612.83 115.18 605.3 115.25 597.77 C115.28 593 115.3 588.23 115.32 583.46 C115.34 581.2 115.35 578.94 115.37 576.61 C115.36 574.52 115.36 572.42 115.36 570.27 C115.36 568.43 115.37 566.58 115.37 564.69 C114.87 558.4 113.79 554.9 108 552 Z " fill="#739C9F" transform="translate(554,8)"/>
<path d="M0 0 C4.15 -1.83 4.15 -1.83 7.38 -5.19 C30.91 -24.59 64.05 -23.07 87 -4 C100.14 12.47 101.47 30.13 101.29 50.5 C101.29 52.41 101.28 54.32 101.28 56.28 C101.26 62.33 101.23 68.39 101.19 74.44 C101.17 78.56 101.16 82.68 101.15 86.81 C101.04 119.61 101.04 119.61 70.88 122.04 C45.4 120.84 50.09 96.48 50.89 76.61 C51.29 68.67 51.86 60.77 52.57 52.86 C53.36 38.38 51.38 23.85 34.12 22.56 C16.38 23.83 11.69 36.23 12.31 51.95 C12.59 54.95 12.86 57.95 13.14 61.04 C16.91 120.64 16.91 120.64 -5.83 125.72 C-25.81 126.56 -36.85 122.43 -39.27 101.33 C-39.77 85.46 -38.88 69.69 -37.43 53.88 C-36.63 39.2 -38.2 23.75 -55.94 22.62 C-72.79 23.67 -78.2 34.64 -77.78 50.13 C-77.5 53.22 -77.22 56.3 -76.92 59.48 C-76.72 62.86 -76.54 66.24 -76.36 69.63 C-76.09 74.96 -75.74 80.25 -75.17 85.56 C-74.99 87.32 -74.81 89.07 -74.62 90.88 C-74.44 92.43 -74.25 93.99 -74.06 95.6 C-75.2 130.63 -87.54 117 -127 117 C-127 73.11 -127 29.22 -127 -16 C-81 -16 -81 -16 -80 -5 C-78.76 -6.05 -77.53 -7.1 -76.25 -8.19 C-52.59 -25.37 -19.01 -22.17 0 0 Z " fill="#475159" transform="translate(2237,563)"/>
<path d="M0 0 C27 1.05 28.65 25.89 33.27 48.29 C34.95 56.02 37.43 63.31 40.19 70.72 C41.21 73.65 41.21 73.65 42.26 76.63 C42.71 77.92 43.16 79.2 43.63 80.53 C50.64 62.23 56.94 43.67 63.37 25.16 C64.29 22.53 65.2 19.9 66.15 17.19 C66.98 14.78 67.82 12.38 68.68 9.9 C73.39 -3.08 95.98 -1.92 107.65 0.64 C124.34 10.32 127.7 40.77 131.78 58.13 C133.69 65.76 136.06 73.11 138.63 80.53 C142.07 75.36 143.56 69.38 145.57 63.54 C146.91 59.67 148.28 55.8 149.68 51.94 C152.94 42.86 155.68 34.28 157.59 24.78 C163.95 -4.2 183.58 0.43 208.63 3.53 C206.12 13.49 202.68 23.07 199.19 32.72 C197.85 36.45 196.5 40.19 195.16 43.93 C194.43 45.94 193.71 47.96 192.96 50.03 C187.84 64.28 182.77 78.55 177.68 92.81 C161.92 136.98 161.92 136.98 138.82 137.28 C135.58 137.39 135.58 137.39 132.28 137.51 C130.22 137.53 128.17 137.55 126.05 137.58 C124.15 137.62 122.25 137.65 120.29 137.7 C113.47 135.99 113.49 133.08 111.63 126.53 C110.95 124.62 110.27 122.7 109.57 120.73 C108.86 118.65 108.14 116.57 107.41 114.42 C106.62 112.14 105.83 109.86 105.02 107.51 C103.38 102.72 101.74 97.93 100.09 93.14 C98.92 89.72 98.92 89.72 97.72 86.24 C97.01 84.16 96.29 82.08 95.56 79.94 C94.06 75.75 92.38 71.62 90.63 67.53 C90.05 69.16 89.47 70.79 88.87 72.46 C86.23 79.88 83.59 87.3 80.94 94.72 C80.03 97.28 79.12 99.84 78.18 102.48 C77.29 104.96 76.4 107.45 75.49 110.01 C74.68 112.29 73.87 114.57 73.03 116.91 C72.24 119.1 71.45 121.28 70.63 123.53 C69.91 125.9 69.2 128.26 68.46 130.7 C61.32 145.38 31.83 141.68 18.63 136.53 C10.26 125.27 8.04 113.67 5.19 100.1 C2.46 88.59 -1.86 77.66 -6 66.59 C-7.61 62.13 -9.21 57.67 -10.81 53.2 C-13.69 45.2 -16.57 37.2 -19.47 29.2 C-20.08 27.5 -20.69 25.81 -21.32 24.07 C-22.95 19.59 -24.57 15.11 -26.2 10.64 C-31.08 -3.07 -10.17 0.54 0 0 Z " fill="#475159" transform="translate(1791.371826171875,812.47119140625)"/>
<path d="M0 0 C-6.53 6.53 -13.02 12.96 -20 19 C-21.73 20.65 -23.46 22.3 -25.25 24 C-31.45 29.22 -32.21 28.65 -38 23.31 C-59.93 4.4 -92.34 5.92 -112 27 C-126.07 51.24 -124.77 82.49 -100.06 99.38 C-83.44 107.99 -66.22 107.89 -49 101 C-48.95 96.21 -48.95 96.21 -49.84 90.52 C-53.31 53.36 -53.31 53.36 -38.16 50.89 C-26.57 50.52 -15.4 52.04 -4 54 C-3.73 64.13 -3.53 74.25 -3.4 84.38 C-3.34 87.82 -3.27 91.27 -3.17 94.71 C-3.04 99.66 -2.98 104.61 -2.93 109.57 C-2.87 112.55 -2.81 115.53 -2.75 118.6 C-4.33 127.94 -6.6 129.14 -15 133 C-17.35 134.2 -19.7 135.39 -22.12 136.62 C-73.96 158.84 -138.47 149.51 -164.88 95 C-183.97 46.12 -163.61 -3.55 -116 -25 C-76.1 -38.8 -28.56 -33.32 0 0 Z " fill="#48525A" transform="translate(1334,805)"/>
<path d="M0 0 C-6.53 6.53 -13.02 12.96 -20 19 C-21.73 20.65 -23.46 22.3 -25.25 24 C-31.45 29.22 -32.21 28.65 -38 23.31 C-58.89 5.29 -90.65 5.87 -110.25 25.19 C-127.06 46.76 -124.26 77.02 -105 96 C-87.68 107.84 -68.25 108.7 -49 101 C-48.95 96.21 -48.95 96.21 -49.84 90.52 C-53.31 53.36 -53.31 53.36 -38.16 50.89 C-26.57 50.52 -15.4 52.04 -4 54 C-3.73 64.13 -3.53 74.25 -3.4 84.38 C-3.34 87.82 -3.27 91.27 -3.17 94.71 C-3.04 99.66 -2.98 104.61 -2.93 109.57 C-2.87 112.55 -2.81 115.53 -2.75 118.6 C-4.33 127.94 -6.6 129.14 -15 133 C-17.35 134.2 -19.7 135.39 -22.12 136.62 C-77.27 160.26 -140.9 147.34 -167 90 C-181.54 39.28 -160.38 -9.65 -109.31 -27.31 C-70.58 -37.67 -27.13 -31.65 0 0 Z " fill="#48525A" transform="translate(1334,536)"/>
<path d="M0 0 C25.61 0.85 28.68 16.84 34.15 39.1 C36.53 48.05 40.1 56.42 43.69 64.94 C44.82 67.8 45.96 70.65 47.13 73.6 C48.98 79.3 48.98 79.3 50.69 80.88 C52.59 76.24 54.48 71.59 56.37 66.95 C58.01 62.96 59.68 58.98 61.37 55 C65.36 45.54 69 36.37 71.42 26.38 C80.11 -4.76 99.82 -0.69 127.69 2.88 C126.22 10.23 123.1 16.71 120.19 23.63 C118.81 26.91 117.43 30.19 116.06 33.47 C115.34 35.19 114.62 36.9 113.88 38.66 C110.33 47.12 106.82 55.59 103.32 64.06 C101.89 67.5 100.46 70.94 99.04 74.38 C96.08 81.51 93.13 88.64 90.19 95.78 C46.33 201.91 46.33 201.91 -15.31 181.88 C-28.51 175.88 -28.51 175.88 -27.31 169.88 C-25.12 165.07 -22.83 160.3 -20.5 155.56 C-19.25 153.01 -18.01 150.46 -16.73 147.83 C-12.44 140.37 -11.93 140.51 -4.62 144.31 C7.16 150 19.42 149.41 25.69 136.88 C22.95 129.79 20.07 122.88 17 115.94 C15.14 111.64 13.27 107.33 11.41 103.03 C10.45 100.84 9.5 98.64 8.51 96.38 C4.27 86.6 0.13 76.77 -4 66.94 C-8.73 55.69 -13.48 44.46 -18.28 33.24 C-19.47 30.45 -19.47 30.45 -20.68 27.61 C-22.2 24.06 -23.71 20.52 -25.23 16.98 C-34.24 -4.11 -18.75 0.69 0 0 Z " fill="#47515A" transform="translate(2180.309814453125,813.123779296875)"/>
<path d="M0 0 C0.25 7.02 0.35 13.94 0.29 20.96 C0.29 22.94 0.28 24.92 0.28 26.95 C0.26 33.24 0.23 39.53 0.19 45.81 C0.17 50.09 0.16 54.37 0.15 58.64 C0.04 92.74 0.04 92.74 -30.13 95.32 C-56.05 94.04 -50.83 66.99 -50.03 47.25 C-49.62 38.84 -49.04 30.49 -48.31 22.11 C-47.73 6.91 -51.64 -3.4 -68.44 -4.38 C-85.06 -3.43 -93.37 6.19 -92.67 22.79 C-92.39 25.89 -92.11 28.99 -91.82 32.19 C-91.53 37.34 -91.27 42.49 -91.02 47.65 C-90.8 51.24 -90.49 54.82 -90.12 58.4 C-89.94 60.16 -89.76 61.92 -89.57 63.73 C-89.39 65.29 -89.21 66.86 -89.02 68.47 C-90.21 103.61 -102.4 90 -142 90 C-142 46.11 -142 2.22 -142 -43 C-97 -43 -97 -43 -96 -31 C-93.36 -32.98 -90.72 -34.96 -88 -37 C-51.97 -57.12 -7.36 -42.44 0 0 Z " fill="#475159" transform="translate(2666,590)"/>
<path d="M0 0 C0.08 6.5 0.12 12.99 0.1 19.5 C0.1 22.34 0.1 22.34 0.09 25.25 C0.09 31.31 0.08 37.38 0.06 43.44 C0.06 47.55 0.05 51.66 0.05 55.77 C0.02 84.54 -0.21 88.86 -30.77 91.53 C-57.45 90.2 -51.87 61.69 -51.01 41.45 C-50.57 32.7 -49.98 24 -49.22 15.27 C-48.84 0.92 -54.23 -7.56 -68.56 -8.38 C-84.1 -7.59 -90.33 -0.69 -94 14 C-93.69 19.52 -93.26 25.03 -92.76 30.53 C-92.5 35.48 -92.23 40.42 -92 45.37 C-91.79 48.81 -91.5 52.25 -91.14 55.68 C-89.87 68 -91.14 73.41 -95 86 C-110.51 86 -126.02 86 -142 86 C-142 42.11 -142 -1.78 -142 -47 C-97 -47 -97 -47 -96 -35 C-94.74 -36.05 -93.48 -37.1 -92.19 -38.19 C-54.65 -65.78 -6.36 -44.54 0 0 Z " fill="#475059" transform="translate(2082,594)"/>
<path d="M0 0 C0.82 13.55 0.63 27.13 0.63 40.71 C0.64 46.07 0.65 51.44 0.67 56.81 C0.68 60.21 0.68 63.6 0.68 67 C0.68 70.09 0.69 73.18 0.69 76.37 C0.21 90.26 -10.89 85.62 -22.05 85.55 C-23.98 85.55 -25.91 85.55 -27.9 85.55 C-44.72 85.5 -44.72 85.5 -45.55 72.36 C-47.86 74.67 -50.17 76.98 -52.55 79.36 C-74.73 94.38 -111.42 90.42 -127.55 68.36 C-139.34 47.1 -134.68 24.06 -112.8 11.68 C-98.45 5.35 -84.02 5.14 -68.55 4.8 C-66.73 4.76 -64.9 4.72 -63.02 4.67 C-58.53 4.56 -54.04 4.46 -49.55 4.36 C-52.24 -14.42 -69.67 -14.82 -85.3 -12.95 C-94.06 -11.11 -101.87 -8.24 -109.55 -3.64 C-115.68 -5.17 -116.03 -9.16 -118.55 -14.76 C-121.36 -20.93 -124.18 -26.74 -127.55 -32.64 C-120.82 -66.32 -5.9 -60.21 0 0 Z M-86.55 48.36 C-78.11 58.92 -66.85 58.16 -55.55 52.36 C-48.32 43.93 -47.98 42.33 -48.55 31.36 C-65.83 27.04 -86.55 27.89 -86.55 48.36 Z " fill="#72CAC7" transform="translate(2142.552001953125,325.635986328125)"/>
<path d="M0 0 C1.47 8.84 1.27 17.14 0 26 C-7.19 26.64 -13.91 26.81 -21.1 26.68 C-23.23 26.67 -25.36 26.66 -27.55 26.65 C-34.39 26.61 -41.22 26.53 -48.06 26.44 C-52.68 26.4 -57.3 26.37 -61.92 26.34 C-73.28 26.26 -84.64 26.14 -96 26 C-85.7 46.59 -65.26 48.78 -45 41 C-41.98 39.03 -38.98 37.03 -36 35 C-29.86 36.53 -26.9 40.79 -22.5 45.25 C-20.82 46.95 -19.14 48.64 -17.41 50.39 C-8.73 59.46 -8.73 59.46 -11 64 C-47.52 96.34 -100.87 86.13 -133 54 C-155.13 22.13 -146.86 -18.58 -117.62 -42.38 C-73.97 -70.51 -10.88 -55.05 0 0 Z M-97 -3 C-95.24 2.28 -90.01 0.39 -85 0.4 C-81.63 0.4 -81.63 0.4 -78.19 0.41 C-74.63 0.39 -74.63 0.39 -71 0.38 C-68.63 0.39 -66.26 0.4 -63.81 0.41 C-61.56 0.41 -59.32 0.4 -57 0.4 C-54.92 0.4 -52.83 0.39 -50.69 0.39 C-45.72 0.7 -45.72 0.7 -45 -3 C-57.05 -27.09 -84.95 -27.11 -97 -3 Z " fill="#72C9C7" transform="translate(1887,330)"/>
<path d="M0 0 C0.39 19.88 0.39 19.88 -9.93 20.79 C-13.98 20.79 -18.04 20.75 -22.1 20.68 C-24.23 20.67 -26.36 20.66 -28.55 20.65 C-35.39 20.61 -42.22 20.53 -49.06 20.44 C-53.68 20.4 -58.3 20.37 -62.92 20.34 C-74.28 20.26 -85.64 20.14 -97 20 C-87.29 39.42 -67.71 43.04 -48 36 C-44.63 34.06 -41.29 32.07 -38 30 C-31.36 28.34 -29.06 33.43 -24.56 38.06 C-22.89 39.77 -21.22 41.47 -19.5 43.22 C-9.77 53.54 -9.77 53.54 -12 58 C-45.13 87.35 -102.23 83.38 -131.75 50.75 C-155.69 18.36 -149.72 -23.48 -118.44 -48.44 C-71.17 -79.41 -9.5 -56.98 0 0 Z M-98 -7 C-94.09 -3.09 -77.39 -5.76 -72 -5.75 C-69.63 -5.73 -67.26 -5.71 -64.81 -5.69 C-62.56 -5.68 -60.32 -5.68 -58 -5.67 C-55.92 -5.66 -53.83 -5.65 -51.69 -5.64 C-46.72 -5.3 -46.72 -5.3 -46 -9 C-57.99 -32.98 -89.03 -33.91 -98 -7 Z " fill="#72C9C7" transform="translate(1462,336)"/>
<path d="M0 0 C2.77 42.91 -22.18 73.6 -65.25 79.75 C-106.85 81.94 -145.56 61.4 -151 17 C-154.45 -72.75 -14.62 -87.72 0 0 Z M-103.31 10.06 C-102.27 29.84 -92.46 42 -72 42 C-51.02 37.49 -47.17 21.45 -48 2 C-56.89 -33.94 -101.21 -23.97 -103.31 10.06 Z " fill="#47515A" transform="translate(1500,603)"/>
<path d="M0 0 C0.68 21.94 0.68 21.94 -9.93 22.34 C-13.98 22.34 -18.04 22.32 -22.1 22.29 C-24.23 22.29 -26.36 22.28 -28.55 22.28 C-35.39 22.26 -42.23 22.23 -49.06 22.19 C-53.68 22.17 -58.3 22.16 -62.92 22.15 C-74.28 22.11 -85.64 22.06 -97 22 C-86.04 42.28 -64.44 46.03 -44 37 C-41.36 35.02 -38.72 33.04 -36 31 C-30.33 32.42 -28.85 35.51 -25 40 C-21 43.9 -16.98 47.77 -12.94 51.61 C-8.67 56.53 -9.97 57.97 -14.38 62.38 C-49.95 90.26 -103.74 82.52 -132.88 49.62 C-154.17 18.12 -147.35 -22.45 -118 -46 C-73.95 -74.88 -6.7 -57.23 0 0 Z M-98 -4 C-80.51 -4 -63.02 -4 -45 -4 C-50.2 -35.2 -89.22 -30.34 -98 -4 Z " fill="#49525B" transform="translate(1810,604)"/>
<path d="M0 0 C0.77 22.23 0.77 22.23 -1 24 C-7.96 24.16 -14.92 24.26 -21.88 24.32 C-25.04 24.35 -25.04 24.35 -28.26 24.38 C-35.03 24.45 -41.8 24.5 -48.56 24.56 C-53.13 24.61 -57.71 24.65 -62.28 24.69 C-73.52 24.8 -84.76 24.9 -96 25 C-86.73 44.11 -64.81 47.88 -46 40 C-44.06 38.74 -42.12 37.48 -40.12 36.19 C-31.66 30.92 -29.11 36.74 -23.12 43.19 C-21.06 45.41 -21.06 45.41 -18.95 47.67 C-8.8 58.8 -8.8 58.8 -16 66 C-52.63 90.54 -109.37 86.29 -135.19 47.75 C-154.03 14.39 -145.12 -25.59 -113 -47 C-69.29 -69.58 -7.95 -55.13 0 0 Z M-98 -2 C-80.18 -2 -62.36 -2 -44 -2 C-53.19 -29.56 -89.41 -32.06 -98 -2 Z " fill="#49525B" transform="translate(2503,602)"/>
<path d="M0 0 C0.77 22.23 0.77 22.23 -1 24 C-7.96 24.16 -14.92 24.26 -21.88 24.32 C-25.04 24.35 -25.04 24.35 -28.26 24.38 C-35.03 24.45 -41.8 24.5 -48.56 24.56 C-53.13 24.61 -57.71 24.65 -62.28 24.69 C-73.52 24.8 -84.76 24.9 -96 25 C-86.73 44.11 -64.81 47.88 -46 40 C-44.06 38.74 -42.12 37.48 -40.12 36.19 C-31.83 31.03 -29.52 36.33 -23.69 42.69 C-18.88 47.91 -14.03 52.97 -9 58 C-37.03 90.7 -92.8 87.15 -124 61 C-151.76 33.24 -151.99 -9.24 -125 -38 C-83.24 -73.26 -8.73 -60.57 0 0 Z M-98 -2 C-80.18 -2 -62.36 -2 -44 -2 C-53.19 -29.56 -89.41 -32.06 -98 -2 Z " fill="#49525B" transform="translate(1758,871)"/>
<path d="M0 0 C0.16 6.5 0.23 12.95 0.2 19.45 C0.19 21.3 0.19 23.15 0.19 25.05 C0.18 30.93 0.15 36.81 0.12 42.69 C0.11 46.68 0.11 50.68 0.1 54.68 C0.03 84.2 0.03 84.2 -21.94 84.81 C-24.03 84.92 -26.12 85.03 -28.27 85.14 C-43.58 85.47 -43.58 85.47 -45.88 77.45 C-45.59 75.32 -45.3 73.19 -45 71 C-46.11 72.22 -47.23 73.43 -48.38 74.69 C-68.84 93.77 -102.67 89.87 -123.06 72.75 C-136.46 56.59 -137.13 34.75 -123 19 C-105.44 5.83 -87.3 4.83 -65.94 4.94 C-64.21 4.94 -62.49 4.95 -60.71 4.95 C-56.48 4.96 -52.24 4.98 -48 5 C-53.48 -16.93 -72.79 -16.36 -92 -12.31 C-98.07 -10.31 -103.4 -8.05 -109 -5 C-115.1 -2.97 -117.51 -14.3 -119.69 -18.75 C-121.05 -21.51 -122.42 -24.27 -123.82 -27.11 C-128.1 -36.38 -128.1 -36.38 -121.06 -40.38 C-76.82 -60.27 -8.42 -59.14 0 0 Z M-87 47 C-78.81 59.28 -67.24 58.12 -55 52 C-47.48 44.24 -46.87 40.69 -47 30 C-51.15 29.92 -55.29 29.86 -59.44 29.81 C-61.75 29.78 -64.05 29.74 -66.43 29.71 C-79.46 30.29 -87 33.14 -87 47 Z " fill="#47515A" transform="translate(2139,865)"/>
<path d="M0 0 C0.16 6.5 0.23 12.95 0.2 19.45 C0.19 21.3 0.19 23.15 0.19 25.05 C0.18 30.93 0.15 36.81 0.12 42.69 C0.11 46.68 0.11 50.68 0.1 54.68 C0.03 84.2 0.03 84.2 -21.94 84.81 C-24.03 84.92 -26.12 85.03 -28.27 85.14 C-43.58 85.47 -43.58 85.47 -45.88 77.45 C-45.59 75.32 -45.3 73.19 -45 71 C-46.11 72.22 -47.23 73.43 -48.38 74.69 C-68.84 93.77 -102.67 89.87 -123.06 72.75 C-136.46 56.59 -137.13 34.75 -123 19 C-105.44 5.83 -87.3 4.83 -65.94 4.94 C-64.21 4.94 -62.49 4.95 -60.71 4.95 C-56.48 4.96 -52.24 4.98 -48 5 C-53.48 -16.93 -72.79 -16.36 -92 -12.31 C-98.07 -10.31 -103.4 -8.05 -109 -5 C-115.1 -2.97 -117.51 -14.3 -119.69 -18.75 C-121.05 -21.51 -122.42 -24.27 -123.82 -27.11 C-128.1 -36.38 -128.1 -36.38 -121.06 -40.38 C-76.82 -60.27 -8.42 -59.14 0 0 Z M-87 47 C-78.81 59.28 -67.24 58.12 -55 52 C-47.48 44.24 -46.87 40.69 -47 30 C-51.15 29.92 -55.29 29.86 -59.44 29.81 C-61.75 29.78 -64.05 29.74 -66.43 29.71 C-79.46 30.29 -87 33.14 -87 47 Z " fill="#47515A" transform="translate(1483,865)"/>
<path d="M0 0 C3.1 0 6.21 0 9.4 0 C12.82 0.01 16.24 0.01 19.66 0.02 C23.14 0.02 26.61 0.02 30.08 0.02 C39.25 0.02 48.41 0.03 57.58 0.04 C66.92 0.06 76.27 0.06 85.61 0.06 C140.69 0.1 140.69 0.1 140.78 19.55 C140.8 21.4 140.82 23.25 140.83 25.16 C140.88 39 140.88 39 138.66 40.11 C134.98 39.48 131.3 38.82 127.63 38.15 C99.36 33.7 99.36 33.7 84.59 53.35 C83.14 70.96 84.47 88.47 85.72 106.05 C86 112.29 86.25 118.53 86.48 124.78 C87 138.52 87.74 152.23 88.68 165.94 C88.64 175.12 83.14 173.36 75.37 173.34 C73.32 173.34 71.26 173.34 69.14 173.34 C66.98 173.33 64.82 173.31 62.6 173.3 C60.43 173.3 58.27 173.3 56.04 173.3 C37.41 173.25 37.41 173.25 37.43 159.88 C37.43 157.24 37.43 154.6 37.43 151.87 C37.44 148.99 37.45 146.11 37.46 143.14 C37.47 140.21 37.47 137.28 37.47 134.27 C37.48 124.86 37.51 115.46 37.53 106.05 C37.54 99.7 37.55 93.34 37.56 86.99 C37.58 71.36 37.62 55.74 37.66 40.11 C35.36 40.13 35.36 40.13 33.01 40.15 C26.1 40.19 19.19 40.21 12.28 40.24 C8.66 40.26 8.66 40.26 4.96 40.29 C1.52 40.3 1.52 40.3 -1.99 40.31 C-4.12 40.32 -6.24 40.33 -8.43 40.34 C-19.62 39.82 -15.59 28.2 -15.53 19.55 C-15.53 16.93 -15.53 16.93 -15.53 14.26 C-15.48 -0.01 -15.48 -0.01 0 0 Z " fill="#6DC7C4" transform="translate(1169.342041015625,237.886474609375)"/>
<path d="M0 0 C-1.07 7.47 -3.3 12.98 -6.31 19.88 C-7.28 22.12 -8.24 24.37 -9.24 26.68 C-12.97 33.87 -14.01 33.83 -21.38 30.75 C-33.16 25.86 -60.29 18.29 -71 29 C-71 41.69 -55.17 40.18 -45 42 C-15.96 47.24 6 55.19 6 88 C-4.69 132.49 -58.98 132.2 -95.19 124.19 C-120.31 117.15 -120.31 117.15 -119 108 C-117.33 103.69 -115.54 99.42 -113.69 95.19 C-112.24 91.84 -112.24 91.84 -110.76 88.42 C-106.4 79.85 -106.4 79.85 -99.56 83.12 C-97.73 84.07 -95.89 85.02 -94 86 C-81.25 90.33 -52.47 99.47 -41 88 C-41 75.69 -59.72 76.68 -69.7 75.1 C-98.1 70.48 -119.89 60.41 -118 28 C-108.2 -17.72 -32.88 -21.92 0 0 Z " fill="#73CAC7" transform="translate(1726,285)"/>
<path d="M0 0 C-1.21 7.27 -3.83 13.17 -6.75 19.94 C-8.32 23.63 -8.32 23.63 -9.92 27.4 C-14.69 36.07 -17.44 32.2 -26.38 29 C-35.31 25.89 -42.67 24.85 -52 24.81 C-53.71 24.8 -55.42 24.78 -57.19 24.77 C-63.87 25.09 -67.87 25.49 -72 31 C-70.06 40.71 -57.08 39.97 -48.56 41.38 C-17.35 46.83 6.36 54.61 5 91 C-6.52 133.55 -61.11 131.14 -95.5 124.31 C-120.36 117.55 -120.36 117.55 -119 108 C-117.17 103.29 -115.21 98.63 -113.19 94 C-112.13 91.55 -111.07 89.09 -109.98 86.56 C-105.69 78.55 -104.68 81.22 -96.94 84.81 C-84.23 89.92 -52.84 99.84 -41 88 C-41 75.36 -61.88 76.47 -72.34 74.78 C-101.54 69.83 -119.86 58.32 -118 26 C-103.24 -20.52 -35.67 -17.83 0 0 Z " fill="#73CAC7" transform="translate(1592,285)"/>
<path d="M0 0 C-5.95 3.61 -11.81 6.86 -18 10 C-19.52 10.8 -21.05 11.6 -22.62 12.43 C-36.84 19.78 -36.84 19.78 -40.69 13.88 C-49.94 0.26 -63.32 -0.5 -78 5 C-93.28 18.1 -94.62 39.23 -82 55 C-63.48 67.35 -49.72 60.57 -37 45 C-30.5 46.3 -25.32 49.44 -19.54 52.58 C-15.42 54.78 -11.21 56.81 -7 58.81 C0.19 62.63 1.35 63.37 -2.38 70.62 C-26.67 106.65 -77.11 110.01 -112 87 C-143.36 60.81 -148.91 21.26 -125.12 -12.5 C-97.43 -42.71 -11.05 -55.26 0 0 Z " fill="#72CAC7" transform="translate(2302,312)"/>
<path d="M0 0 C3.38 -0.11 3.38 -0.11 6.84 -0.23 C8.99 -0.26 11.14 -0.29 13.36 -0.32 C15.35 -0.36 17.34 -0.41 19.39 -0.46 C28.29 1.41 29.89 13.59 33.02 21.51 C33.93 23.8 34.84 26.1 35.77 28.46 C37.18 32.04 37.18 32.04 38.62 35.69 C41.37 42.63 44.11 49.57 46.85 56.5 C48.85 61.56 50.85 66.62 52.85 71.68 C54.59 77.03 54.59 77.03 56.25 78.56 C58.28 73.65 60.31 68.74 62.34 63.82 C64.08 59.63 65.85 55.44 67.64 51.27 C71.7 41.72 75.49 32.52 77.79 22.38 C85.7 -7.88 107.76 -2.54 134.25 0.56 C130.26 11.38 126.03 22.06 121.56 32.69 C120.24 35.85 118.91 39.02 117.59 42.19 C116.89 43.86 116.19 45.53 115.46 47.26 C111.51 56.72 107.6 66.21 103.69 75.69 C102.89 77.62 102.09 79.55 101.27 81.54 C97.49 90.69 93.72 99.85 89.96 109.01 C89.31 110.6 88.66 112.19 87.99 113.83 C86.24 118.1 84.49 122.37 82.74 126.64 C77.96 138.01 66.35 134.19 55.06 134.44 C52.78 134.54 50.5 134.65 48.15 134.75 C27.89 135.1 27.89 135.1 24.25 120.56 C23.17 117.95 22.09 115.33 20.98 112.64 C19.23 108.27 19.23 108.27 17.44 103.81 C11.97 90.24 6.43 76.7 0.81 63.19 C-0.6 59.78 -2.02 56.38 -3.43 52.97 C-5.64 47.65 -7.85 42.33 -10.06 37 C-12.32 31.57 -14.57 26.13 -16.81 20.69 C-17.51 19.01 -18.21 17.33 -18.93 15.61 C-27.21 -4.49 -18.18 0.32 0 0 Z " fill="#475159" transform="translate(1527.75,546.4375)"/>
<path d="M0 0 C2.07 -0 4.15 -0.01 6.28 -0.01 C23.97 -0 23.97 -0 24.2 8.66 C24.17 11.8 24.15 14.95 24.12 18.19 C24.11 21.33 24.09 24.48 24.07 27.72 C24.05 30.17 24.02 32.61 24 35.12 C33.9 35.12 43.8 35.12 54 35.12 C54.03 41.1 54.05 47.08 54.06 53.06 C54.07 54.77 54.08 56.48 54.09 58.24 C54.11 71.01 54.11 71.01 53 72.12 C49.92 71.48 49.92 71.48 46.78 70.82 C32.36 68.28 32.36 68.28 23.63 77.59 C20.49 105.86 20.49 105.86 33 128.12 C39.18 128.48 43.23 128.43 49 126.12 C55.89 127.85 56.07 134.58 58.25 140.88 C59.14 143.41 60.03 145.94 60.95 148.55 C64.68 160.53 62.42 161.25 51 165.12 C16.92 172.21 -15.21 163.64 -24 127.12 C-24.41 115.29 -23.95 103.45 -23.39 91.63 C-22.02 76.94 -22.02 76.94 -33.45 71.12 C-36.27 71.45 -39.09 71.78 -42 72.12 C-46.13 68 -44.21 58.99 -44.19 53.62 C-44.18 49.09 -44.18 49.09 -44.17 44.47 C-43.85 30.35 -36.52 34.96 -24 35.12 C-24.02 32.68 -24.05 30.24 -24.07 27.72 C-24.09 24.58 -24.11 21.43 -24.12 18.19 C-24.16 13.47 -24.16 13.47 -24.2 8.66 C-23.83 -5.44 -11.42 -0.02 0 0 Z " fill="#72CAC7" transform="translate(2348,245.875)"/>
<path d="M0 0 C15.84 0 31.68 0 48 0 C48 11.22 48 22.44 48 34 C55.15 33.97 55.15 33.97 62.44 33.94 C77.99 33.87 77.99 33.87 78.1 42.75 C78.09 45.99 78.07 49.23 78.06 52.56 C78.05 55.8 78.04 59.04 78.04 62.38 C78 70 78 70 48 70 C48.06 78.21 48.15 86.42 48.25 94.62 C48.26 96.96 48.28 99.29 48.29 101.7 C48.33 103.94 48.36 106.17 48.39 108.48 C48.42 111.57 48.42 111.57 48.45 114.73 C49.49 124.74 54.08 128.25 63.94 127.75 C69.38 127.06 69.38 127.06 76 125 C79.12 132 79.12 132 82 141 C83.45 144.84 83.45 144.84 84.94 148.75 C88.31 158.97 87.4 158.38 77 163 C47.55 170.36 12.49 165.24 2 133 C0.38 124.78 -0.24 117.04 -0.2 108.67 C-0.19 106.41 -0.18 104.15 -0.18 101.82 C-0.15 98.32 -0.15 98.32 -0.12 94.75 C-0.12 92.37 -0.11 89.99 -0.1 87.54 C-0.07 81.7 -0.04 75.85 0 70 C-6.27 70 -12.54 70 -19 70 C-19.03 64.19 -19.05 58.38 -19.06 52.56 C-19.07 49.33 -19.09 46.09 -19.1 42.75 C-18.93 29.1 -12.2 33.91 0 34 C0 22.78 0 11.56 0 0 Z " fill="#49525B" transform="translate(1517,786)"/>
<path d="M0 0 C15.84 0 31.68 0 48 0 C48 11.22 48 22.44 48 34 C55.15 33.97 55.15 33.97 62.44 33.94 C77.99 33.87 77.99 33.87 78.1 42.75 C78.09 45.99 78.07 49.23 78.06 52.56 C78.05 55.8 78.04 59.04 78.04 62.38 C78 70 78 70 48 70 C48.09 78.04 48.19 86.08 48.31 94.12 C48.34 96.41 48.36 98.7 48.38 101.05 C48.42 103.25 48.45 105.44 48.49 107.7 C48.51 109.72 48.54 111.74 48.57 113.82 C49.45 124.38 53.91 128.17 64.56 127.81 C70.17 127.13 70.17 127.13 76 125 C78.44 129.56 78.44 129.56 81 137 C82.06 139.64 82.06 139.64 83.15 142.34 C83.86 144.21 84.58 146.08 85.31 148 C86.01 149.79 86.71 151.59 87.43 153.44 C88.58 162.59 76.27 163.29 69 165 C35.72 168.7 5.11 158.88 0.38 122.2 C-0.02 116.7 -0.11 111.26 -0.1 105.74 C-0.09 103.65 -0.09 101.57 -0.09 99.41 C-0.08 97.26 -0.07 95.1 -0.06 92.88 C-0.06 90.68 -0.05 88.48 -0.05 86.22 C-0.04 80.81 -0.02 75.41 0 70 C-6.27 70 -12.54 70 -19 70 C-19.03 64.19 -19.05 58.38 -19.06 52.56 C-19.07 49.33 -19.09 46.09 -19.1 42.75 C-18.93 29.1 -12.2 33.91 0 34 C0 22.78 0 11.56 0 0 Z " fill="#48525B" transform="translate(2700,517)"/>
<path d="M0 0 C0.48 7.15 0.84 14.28 1.12 21.44 C1.28 23.48 1.43 25.52 1.58 27.63 C2.03 42.59 2.03 42.59 -8.71 44.77 C-13.31 44.39 -13.31 44.39 -18 44 C-38.55 48.69 -41.23 62.92 -41.31 81.96 C-41.33 85.09 -41.36 88.22 -41.38 91.45 C-41.42 98.09 -41.45 104.73 -41.48 111.37 C-41.5 114.49 -41.53 117.62 -41.56 120.84 C-41.57 123.72 -41.59 126.6 -41.6 129.57 C-42.38 142.13 -56.39 137.14 -66.56 137.12 C-68.58 137.13 -70.6 137.13 -72.69 137.14 C-90.25 137.12 -90.25 137.12 -90.24 123.69 C-90.25 121.03 -90.25 118.37 -90.25 115.63 C-90.24 111.28 -90.24 111.28 -90.23 106.84 C-90.23 103.9 -90.23 100.95 -90.23 97.91 C-90.23 91.66 -90.22 85.41 -90.21 79.16 C-90.19 69.54 -90.19 59.93 -90.19 50.32 C-90.18 44.26 -90.17 38.21 -90.17 32.16 C-90.17 29.26 -90.17 26.35 -90.16 23.37 C-90.16 20.71 -90.15 18.05 -90.15 15.31 C-90.14 12.95 -90.14 10.59 -90.13 8.16 C-89.84 -3.14 -76.31 1.82 -67.56 1.81 C-64.52 1.79 -64.52 1.79 -61.41 1.78 C-44.05 1.76 -44.05 1.76 -43.88 9.62 C-43.92 11.4 -43.96 13.17 -44 15 C-42.43 13.78 -40.87 12.57 -39.25 11.31 C-26.64 2.61 -15.08 -0.12 0 0 Z " fill="#72C9C6" transform="translate(1998,274)"/>
<path d="M0 0 C0.37 7.1 0.46 13.97 0.31 21.06 C0.29 23.06 0.27 25.06 0.24 27.12 C0.07 42 0.07 42 -6.11 41.96 C-25.61 42.08 -38.55 48.31 -42 69 C-41.6 74.01 -41.14 79.02 -40.66 84.02 C-40.31 90.14 -39.97 96.26 -39.62 102.38 C-39.27 105.5 -38.92 108.62 -38.56 111.83 C-38.23 120.77 -38.23 120.77 -43 135 C-58.51 135 -74.02 135 -90 135 C-90 91.11 -90 47.22 -90 2 C-45 2 -45 2 -44 15 C-42.89 13.95 -41.77 12.9 -40.62 11.81 C-29.57 2.7 -14.35 -2.87 0 0 Z " fill="#465059" transform="translate(1921,545)"/>
<path d="M0 0 C3.1 0 6.21 0 9.4 0 C12.82 0.01 16.24 0.01 19.66 0.02 C23.14 0.02 26.61 0.02 30.08 0.02 C39.25 0.02 48.41 0.03 57.58 0.04 C66.92 0.06 76.27 0.06 85.61 0.06 C140.69 0.1 140.69 0.1 140.78 19.55 C140.8 21.4 140.82 23.25 140.83 25.16 C140.88 39 140.88 39 138.66 40.11 C134.98 39.48 131.3 38.82 127.63 38.14 C99.35 33.7 99.35 33.7 84.57 53.36 C83.1 70.99 84.42 88.51 85.66 106.11 C85.93 112.36 86.17 118.61 86.39 124.86 C86.9 138.61 87.64 152.34 88.56 166.06 C88.66 171.11 88.66 171.11 86.66 172.11 C86.66 127.89 86.66 83.67 86.66 38.11 C104.15 38.11 121.64 38.11 139.66 38.11 C139.66 25.9 139.66 13.69 139.66 1.11 C89.17 1.11 38.68 1.11 -13.34 1.11 C-18.41 39.17 -18.41 39.17 -1.2 39.61 C3.55 38.73 8.29 37.78 13.02 36.77 C28.65 35.17 39.37 34.26 42.86 51.52 C44.4 69.61 43.08 87.6 41.85 105.68 C41.59 112.08 41.36 118.48 41.15 124.89 C39.46 172.11 39.46 172.11 37.66 172.11 C37.66 128.55 37.66 84.99 37.66 40.11 C20.83 40.11 4 40.11 -13.34 40.11 C-17.7 35.75 -15.57 25.63 -15.53 19.55 C-15.53 16.93 -15.53 16.93 -15.53 14.26 C-15.48 -0.01 -15.48 -0.01 0 0 Z " fill="#C7EAE9" transform="translate(1169.342041015625,237.886474609375)"/>
<path d="" fill="#F0FAF9" transform="translate(0,0)"/>
</svg>
