<svg xmlns="http://www.w3.org/2000/svg" width="450" height="206">
  <path d="M444.142 184.566c-.43-1.016-1.016-1.902-1.759-2.632a8.069 8.069 0 0 0-2.606-1.76c-.99-.43-2.098-.65-3.31-.65-1.212 0-2.372.208-3.375.65a7.88 7.88 0 0 0-2.594 1.786 8.751 8.751 0 0 0-1.694 2.645c-.417.99-.651 2.072-.73 3.206h16.837a9.7 9.7 0 0 0-.769-3.232zm1.16 18.844c-2.202 1.655-4.952 2.489-8.288 2.489-2.346 0-4.365-.378-6.086-1.134-1.72-.756-3.18-1.811-4.34-3.166-1.172-1.369-2.058-2.998-2.645-4.887-.586-1.89-.912-3.949-.99-6.19 0-2.229.339-4.262 1.016-6.125.678-1.838 1.63-3.453 2.867-4.822a13.016 13.016 0 0 1 4.366-3.166c1.668-.77 3.519-1.134 5.525-1.134 2.607 0 4.77.547 6.49 1.616 1.72 1.081 3.102 2.45 4.131 4.118a15.888 15.888 0 0 1 2.15 5.447c.404 1.968.56 3.831.483 5.603h-21.946a11.586 11.586 0 0 0 .456 3.662 8.193 8.193 0 0 0 1.642 3.063c.756.886 1.72 1.59 2.88 2.124 1.173.534 2.555.795 4.144.795 2.033 0 3.714-.47 5.018-1.408 1.303-.95 2.163-2.384 2.58-4.313h4.77c-.652 3.284-2.06 5.773-4.249 7.428zm-49.546-8.549c.365 1.303.912 2.476 1.642 3.493a8.122 8.122 0 0 0 2.828 2.437c1.16.6 2.502.899 4.053.899 1.564 0 3.01-.313 4.157-.952 1.134-.651 2.059-1.485 2.776-2.528a11.025 11.025 0 0 0 1.55-3.544 17.002 17.002 0 0 0-.013-8.197c-.339-1.33-.886-2.528-1.629-3.545-.73-1.016-1.68-1.837-2.854-2.463-1.185-.625-2.593-.938-4.248-.938-1.655 0-3.01.313-4.13.951-1.148.652-2.047 1.499-2.724 2.555-.678 1.055-1.173 2.267-1.473 3.622a18.696 18.696 0 0 0-.456 4.21c0 1.355.182 2.684.547 4zm17.32 10.412v-3.961h-.118c-.795 1.629-2.033 2.789-3.727 3.505-1.708.717-3.571 1.082-5.63 1.082-2.255 0-4.235-.417-5.916-1.251a12.039 12.039 0 0 1-4.197-3.336c-1.12-1.394-1.967-3.023-2.528-4.887-.573-1.837-.86-3.818-.86-5.89 0-2.085.274-4.053.834-5.904.548-1.85 1.382-3.466 2.49-4.847 1.107-1.382 2.514-2.49 4.195-3.284 1.669-.821 3.636-1.225 5.865-1.225.756 0 1.563.078 2.437.221.873.144 1.733.404 2.606.77a11.39 11.39 0 0 1 2.463 1.42 7.957 7.957 0 0 1 1.968 2.189h.104v-15.09h4.821v40.488h-4.821zm-32.88-15.142c-.599.456-1.407.782-2.384.99a47.75 47.75 0 0 1-3.089.508 75.18 75.18 0 0 0-3.258.457c-1.107.169-2.085.43-2.945.807a5.513 5.513 0 0 0-2.137 1.603c-.534.704-.821 1.655-.821 2.867 0 .782.156 1.46.482 1.994.326.547.743.99 1.251 1.33.508.338 1.108.573 1.785.742.678.144 1.395.222 2.164.222 1.577 0 2.932-.222 4.066-.652 1.133-.43 2.072-.964 2.775-1.629.717-.651 1.251-1.368 1.59-2.137.339-.769.508-1.499.508-2.176v-4.9zm7.832 15.025c-.834.495-1.993.743-3.466.743-1.238 0-2.241-.352-2.971-1.056-.743-.703-1.108-1.85-1.108-3.427-1.33 1.577-2.867 2.724-4.626 3.427-1.76.704-3.662 1.056-5.695 1.056-1.33 0-2.58-.143-3.78-.456-1.185-.3-2.214-.769-3.088-1.408a6.817 6.817 0 0 1-2.072-2.528c-.508-1.042-.768-2.306-.768-3.779 0-1.668.286-3.023.847-4.079.573-1.055 1.316-1.915 2.241-2.58.938-.652 1.98-1.16 3.18-1.512a40.512 40.512 0 0 1 3.662-.847 58.795 58.795 0 0 1 3.766-.6c1.186-.13 2.241-.312 3.14-.56.913-.247 1.63-.599 2.164-1.081.52-.47.795-1.16.795-2.072 0-1.056-.209-1.903-.613-2.541a3.933 3.933 0 0 0-1.525-1.473 6.11 6.11 0 0 0-2.098-.677 15.23 15.23 0 0 0-2.293-.183c-2.046 0-3.74.391-5.109 1.173-1.355.769-2.098 2.241-2.215 4.392h-4.822c.078-1.812.456-3.337 1.134-4.588a8.73 8.73 0 0 1 2.724-3.036c1.12-.769 2.41-1.33 3.883-1.668 1.447-.339 3.01-.508 4.678-.508 1.317 0 2.633.078 3.936.273 1.303.196 2.476.587 3.545 1.16a6.809 6.809 0 0 1 2.554 2.463c.638 1.043.964 2.424.964 4.131v15.052c0 1.133.065 1.954.196 2.489.143.534.573.795 1.342.795.417 0 .899-.079 1.472-.222v3.727zm-39.954-29.204v6.177h.117c1.16-2.371 2.606-4.144 4.313-5.264 1.695-1.147 3.845-1.668 6.464-1.59v5.108c-1.929 0-3.557.26-4.939.795-1.355.521-2.45 1.303-3.284 2.32-.82 1.016-1.433 2.267-1.811 3.714-.378 1.46-.56 3.127-.56 5.017v13.044h-4.835v-29.308h4.548zm-34.769-6.633v-4.535h32.384v4.535h-13.5v35.954h-5.396V169.32h-13.5zm-34.195 9.813a11.64 11.64 0 0 0 1.76-1.525 7.59 7.59 0 0 0 1.303-1.902c.339-.704.508-1.486.508-2.359 0-1.173-.417-2.19-1.25-3.036-.822-.847-1.969-1.277-3.402-1.277-1.12 0-2.19.351-3.167 1.055-.977.704-1.472 1.786-1.472 3.258 0 .6.13 1.212.377 1.811.248.6.548 1.2.939 1.786.378.586.795 1.173 1.25 1.733.444.573.9 1.134 1.356 1.707.56-.378 1.16-.795 1.811-1.25zm-6.098 8.223a11.89 11.89 0 0 0-2.242 1.929 8.594 8.594 0 0 0-1.524 2.41c-.378.9-.56 1.942-.56 3.154 0 1.017.208 1.955.65 2.802.43.847 1.004 1.577 1.734 2.15a8.354 8.354 0 0 0 2.476 1.395 8.237 8.237 0 0 0 2.854.508c1.85 0 3.518-.43 4.965-1.303a11.584 11.584 0 0 0 3.662-3.506l-9.305-11.168a44.898 44.898 0 0 0-2.697 1.642zm9.708 17.124c-2.098.938-4.261 1.42-6.503 1.42-2.71 0-4.912-.417-6.58-1.251-1.656-.821-2.946-1.838-3.845-2.997-.912-1.16-1.512-2.385-1.785-3.623-.287-1.251-.43-2.294-.43-3.115 0-1.59.26-2.997.769-4.209a11.824 11.824 0 0 1 2.033-3.258c.847-.964 1.863-1.837 3.01-2.606a42.9 42.9 0 0 1 3.649-2.19c-.56-.781-1.108-1.55-1.642-2.254a27.567 27.567 0 0 1-1.447-2.19 11.097 11.097 0 0 1-1.016-2.319c-.248-.82-.378-1.733-.378-2.75 0-1.107.208-2.15.6-3.153a7.89 7.89 0 0 1 1.759-2.659c.768-.781 1.733-1.394 2.867-1.85 1.12-.456 2.436-.678 3.896-.678 1.251 0 2.476.17 3.662.509 1.186.338 2.241.86 3.153 1.563a8.178 8.178 0 0 1 2.19 2.607c.534 1.042.82 2.241.82 3.596 0 1.212-.195 2.333-.625 3.376a10.803 10.803 0 0 1-1.694 2.867 15.47 15.47 0 0 1-2.437 2.358 28.255 28.255 0 0 1-2.828 1.903l7.311 8.9c.756-2.124 1.199-4.209 1.303-6.294h4.6c-.117 1.212-.234 2.242-.377 3.089-.13.847-.3 1.629-.509 2.358-.195.717-.456 1.42-.769 2.125a82.05 82.05 0 0 1-1.068 2.41l7.884 9.136h-6.307l-4.314-5.057c-1.212 1.89-2.867 3.31-4.952 4.249zm-57.821-5.747a5.128 5.128 0 0 0 1.798 1.746 8.24 8.24 0 0 0 2.49.951 14.75 14.75 0 0 0 2.866.274c.756 0 1.551-.052 2.372-.17a8.119 8.119 0 0 0 2.307-.625 4.275 4.275 0 0 0 1.733-1.33c.456-.586.678-1.342.678-2.24 0-1.252-.483-2.19-1.42-2.829-.94-.651-2.125-1.173-3.545-1.564a51.462 51.462 0 0 0-4.614-1.081 23.352 23.352 0 0 1-4.626-1.355c-1.42-.587-2.593-1.408-3.544-2.476-.939-1.056-1.42-2.529-1.42-4.418 0-1.473.338-2.737 1.003-3.792a8.011 8.011 0 0 1 2.54-2.58 11.81 11.81 0 0 1 3.52-1.473 16.597 16.597 0 0 1 3.883-.482c1.668 0 3.192.13 4.6.43 1.394.273 2.632.769 3.714 1.472 1.068.69 1.928 1.642 2.58 2.828.639 1.186 1.016 2.672 1.134 4.457h-4.822c-.078-.951-.326-1.746-.743-2.359a4.99 4.99 0 0 0-1.577-1.511 7.282 7.282 0 0 0-2.137-.821 10.99 10.99 0 0 0-2.358-.261c-.704 0-1.447.052-2.177.17a7.005 7.005 0 0 0-2.02.599c-.599.286-1.094.651-1.472 1.134-.378.469-.574 1.081-.574 1.837 0 .834.3 1.525.887 2.072.586.547 1.342 1.004 2.241 1.368.912.352 1.929.652 3.062.9 1.134.247 2.268.508 3.402.768 1.212.261 2.384.6 3.544.965 1.147.378 2.177.886 3.05 1.511a7.259 7.259 0 0 1 2.15 2.346c.547.951.834 2.124.834 3.519 0 1.785-.378 3.245-1.108 4.43a8.699 8.699 0 0 1-2.893 2.828c-1.186.717-2.54 1.225-4.013 1.512-1.5.274-2.985.43-4.457.43-1.63 0-3.167-.17-4.653-.508-1.472-.339-2.775-.9-3.91-1.681-1.133-.77-2.032-1.786-2.723-3.063-.677-1.264-1.042-2.802-1.133-4.613h4.834c.027 1.069.287 1.955.73 2.685zm-28.044 0a5.09 5.09 0 0 0 1.785 1.746 8.24 8.24 0 0 0 2.49.951 14.75 14.75 0 0 0 2.866.274c.756 0 1.551-.052 2.372-.17a8.118 8.118 0 0 0 2.307-.625 4.274 4.274 0 0 0 1.733-1.33c.456-.586.678-1.342.678-2.24 0-1.252-.47-2.19-1.42-2.829-.94-.651-2.125-1.173-3.532-1.564a52.878 52.878 0 0 0-4.627-1.081 23.352 23.352 0 0 1-4.626-1.355c-1.407-.587-2.593-1.408-3.544-2.476-.939-1.056-1.42-2.529-1.42-4.418 0-1.473.338-2.737 1.003-3.792a7.922 7.922 0 0 1 2.554-2.58 11.591 11.591 0 0 1 3.505-1.473 16.597 16.597 0 0 1 3.884-.482c1.668 0 3.192.13 4.6.43 1.394.273 2.632.769 3.714 1.472 1.081.69 1.941 1.642 2.58 2.828.652 1.186 1.017 2.672 1.134 4.457h-4.822c-.078-.951-.312-1.746-.743-2.359a4.99 4.99 0 0 0-1.577-1.511 7.282 7.282 0 0 0-2.137-.821c-.769-.17-1.563-.261-2.345-.261-.717 0-1.46.052-2.19.17a7.005 7.005 0 0 0-2.02.599c-.599.286-1.094.651-1.472 1.134-.365.469-.56 1.081-.56 1.837 0 .834.286 1.525.886 2.072.586.547 1.329 1.004 2.241 1.368.9.352 1.916.652 3.05.9 1.133.247 2.267.508 3.4.768 1.213.261 2.385.6 3.545.965 1.16.378 2.177.886 3.063 1.511a7.56 7.56 0 0 1 2.15 2.346c.534.951.82 2.124.82 3.519 0 1.785-.377 3.245-1.107 4.43a8.463 8.463 0 0 1-2.893 2.828c-1.186.717-2.528 1.225-4.014 1.512-1.498.274-2.984.43-4.456.43-1.63 0-3.167-.17-4.653-.508-1.472-.339-2.775-.9-3.909-1.681-1.134-.77-2.033-1.786-2.71-3.063-.691-1.264-1.056-2.802-1.134-4.613h4.821c.04 1.069.287 1.955.73 2.685zm-14.309-14.166c-.43-1.016-1.016-1.902-1.759-2.632a8.069 8.069 0 0 0-2.606-1.76c-.99-.43-2.098-.65-3.31-.65-1.212 0-2.372.208-3.375.65a7.88 7.88 0 0 0-2.594 1.786 8.752 8.752 0 0 0-1.694 2.645c-.417.99-.651 2.072-.743 3.206h16.85a9.7 9.7 0 0 0-.769-3.232zm1.173 18.844c-2.202 1.655-4.952 2.489-8.288 2.489-2.346 0-4.378-.378-6.099-1.134-1.72-.756-3.166-1.811-4.326-3.166-1.186-1.369-2.06-2.998-2.646-4.887-.586-1.89-.912-3.949-.99-6.19 0-2.229.339-4.262 1.017-6.125.677-1.838 1.628-3.453 2.866-4.822 1.212-1.355 2.685-2.41 4.353-3.166 1.681-.77 3.532-1.134 5.538-1.134 2.607 0 4.757.547 6.49 1.616 1.72 1.081 3.102 2.45 4.131 4.118 1.043 1.655 1.746 3.466 2.15 5.447.391 1.968.56 3.831.483 5.603h-21.946a11.586 11.586 0 0 0 .456 3.662c.34 1.16.874 2.177 1.642 3.063.756.886 1.72 1.59 2.88 2.124 1.173.534 2.555.795 4.145.795 2.032 0 3.714-.47 5.017-1.408 1.29-.95 2.163-2.384 2.58-4.313h4.77c-.652 3.284-2.073 5.773-4.249 7.428zm-46.979-27.458v4.653h.118c2.007-3.558 5.173-5.33 9.526-5.33 1.916 0 3.531.26 4.822.795 1.277.534 2.32 1.264 3.114 2.202.795.938 1.342 2.072 1.681 3.375.313 1.303.482 2.75.482 4.34v19.273h-4.821v-19.847c0-1.811-.535-3.245-1.59-4.3-1.056-1.056-2.515-1.577-4.353-1.577-1.485 0-2.762.222-3.831.678a7.223 7.223 0 0 0-2.698 1.915 8.132 8.132 0 0 0-1.615 2.932c-.365 1.108-.548 2.333-.548 3.65v16.562h-4.821v-29.308h4.535zm-11.142 29.308h-4.821v-29.308h4.821zm-4.821-40.476h4.821v5.904h-4.821zm-24.304 33.948a5.128 5.128 0 0 0 1.798 1.746 8.24 8.24 0 0 0 2.49.951 14.75 14.75 0 0 0 2.866.274c.756 0 1.55-.052 2.372-.17a8.118 8.118 0 0 0 2.306-.625 4.275 4.275 0 0 0 1.734-1.33c.456-.586.677-1.342.677-2.24 0-1.252-.482-2.19-1.42-2.829-.938-.651-2.124-1.173-3.545-1.564a51.468 51.468 0 0 0-4.613-1.081 23.352 23.352 0 0 1-4.626-1.355c-1.408-.587-2.593-1.408-3.545-2.476-.938-1.056-1.42-2.529-1.42-4.418 0-1.473.339-2.737 1.003-3.792a7.922 7.922 0 0 1 2.554-2.58 11.591 11.591 0 0 1 3.506-1.473 16.597 16.597 0 0 1 3.883-.482c1.668 0 3.193.13 4.6.43 1.395.273 2.633.769 3.715 1.472 1.068.69 1.928 1.642 2.58 2.828.651 1.186 1.016 2.672 1.134 4.457H109.7c-.078-.951-.326-1.746-.743-2.359a4.99 4.99 0 0 0-1.577-1.511 7.282 7.282 0 0 0-2.137-.821c-.769-.17-1.564-.261-2.346-.261-.716 0-1.46.052-2.189.17a7.005 7.005 0 0 0-2.02.599c-.6.286-1.094.651-1.472 1.134-.378.469-.56 1.081-.56 1.837 0 .834.286 1.525.872 2.072.587.547 1.343 1.004 2.242 1.368.912.352 1.928.652 3.062.9 1.134.247 2.268.508 3.401.768 1.212.261 2.385.6 3.545.965 1.147.378 2.176.886 3.05 1.511a7.447 7.447 0 0 1 2.163 2.346c.534.951.82 2.124.82 3.519 0 1.785-.377 3.245-1.107 4.43a8.698 8.698 0 0 1-2.893 2.828c-1.186.717-2.528 1.225-4.014 1.512-1.498.274-2.984.43-4.457.43-1.629 0-3.166-.17-4.652-.508-1.472-.339-2.776-.9-3.91-1.681-1.133-.77-2.032-1.786-2.71-3.063-.69-1.264-1.055-2.802-1.134-4.613h4.822c.027 1.069.287 1.955.73 2.685zm-14.947 6.541v-4.652h-.105c-1.029 1.812-2.332 3.14-3.909 4-1.59.848-3.453 1.278-5.617 1.278-1.928 0-3.531-.26-4.834-.769-1.277-.508-2.32-1.238-3.115-2.19-.795-.937-1.342-2.071-1.668-3.374-.326-1.304-.495-2.75-.495-4.34v-19.274h4.835v19.834c0 1.825.52 3.258 1.576 4.327 1.056 1.056 2.516 1.577 4.366 1.577 1.473 0 2.75-.222 3.831-.678a7.212 7.212 0 0 0 2.698-1.929 8.482 8.482 0 0 0 1.616-2.919c.365-1.107.534-2.332.534-3.648v-16.564h4.835v29.308h-4.548zm-38.105-4.535c2.372 0 4.249-.651 5.578-1.928 1.342-1.29 2.02-3.063 2.02-5.343 0-1.316-.248-2.424-.743-3.284a5.64 5.64 0 0 0-1.955-2.072c-.808-.508-1.746-.86-2.815-1.069a16.772 16.772 0 0 0-3.27-.326H29.933v14.022zm-2.736-18.543c3.062 0 5.264-.548 6.607-1.616 1.342-1.082 2.006-2.698 2.006-4.848 0-1.447-.221-2.58-.664-3.401a4.861 4.861 0 0 0-1.877-1.929c-.795-.456-1.707-.743-2.75-.886a26.734 26.734 0 0 0-3.322-.183H29.92v12.876h10.764zm-1.473-17.41c.873 0 1.798 0 2.815.026.99.027 1.994.091 2.971.17.99.104 1.903.247 2.75.43.86.195 1.577.482 2.189.86 1.33.795 2.45 1.89 3.375 3.284.938 1.407 1.395 3.114 1.395 5.16 0 2.15-.522 4.027-1.564 5.59-1.043 1.564-2.528 2.724-4.444 3.48v.118c2.49.534 4.405 1.668 5.72 3.4 1.33 1.734 1.995 3.845 1.995 6.347 0 1.473-.26 2.92-.795 4.314a10.926 10.926 0 0 1-2.359 3.714c-1.042 1.068-2.32 1.941-3.857 2.606-1.525.651-3.284.99-5.291.99h-19.56v-40.489h14.686zm347.513-45.559v6.19h.104c1.173-2.385 2.607-4.144 4.314-5.278 1.707-1.134 3.857-1.668 6.476-1.59v5.109c-1.928 0-3.57.26-4.939.795-1.368.534-2.462 1.303-3.283 2.32-.834 1.016-1.447 2.267-1.812 3.713-.378 1.46-.573 3.128-.573 5.017v13.058h-4.822v-29.321h4.535zm-32.123 19.43c.47 1.381 1.121 2.528 1.955 3.453a8.388 8.388 0 0 0 2.92 2.125 8.645 8.645 0 0 0 3.544.742 8.749 8.749 0 0 0 3.557-.742c1.095-.483 2.072-1.2 2.92-2.125.82-.925 1.472-2.072 1.954-3.453.47-1.381.717-2.958.717-4.73 0-1.786-.248-3.363-.717-4.744-.482-1.381-1.12-2.528-1.955-3.48a8.292 8.292 0 0 0-2.919-2.163 8.958 8.958 0 0 0-3.557-.73 8.849 8.849 0 0 0-3.545.73c-1.107.496-2.072 1.212-2.919 2.164-.82.938-1.486 2.098-1.955 3.48-.482 1.38-.716 2.957-.716 4.743 0 1.772.234 3.349.716 4.73m-4.913-10.777c.6-1.864 1.512-3.493 2.724-4.874 1.212-1.381 2.71-2.476 4.483-3.27 1.785-.783 3.818-1.187 6.125-1.187 2.32 0 4.404.404 6.15 1.186 1.76.795 3.246 1.89 4.457 3.271 1.212 1.381 2.112 2.997 2.711 4.874.6 1.876.912 3.883.912 6.047 0 2.15-.312 4.157-.912 6.007-.6 1.85-1.512 3.467-2.71 4.848-1.212 1.381-2.698 2.463-4.457 3.232-1.747.769-3.806 1.16-6.151 1.16-2.346 0-4.34-.378-6.125-1.16-1.772-.77-3.271-1.85-4.483-3.232-1.212-1.381-2.124-2.997-2.724-4.848-.599-1.85-.899-3.857-.899-6.007 0-2.177.3-4.17.9-6.047m-17.697-4.392v-4.248h4.939v-4.353c0-2.384.69-4.196 2.072-5.42 1.38-1.226 3.4-1.838 6.033-1.838.456 0 .978.027 1.564.104a9.331 9.331 0 0 1 1.564.339v4.209a6.257 6.257 0 0 0-1.356-.326 13.172 13.172 0 0 0-1.368-.091c-1.173 0-2.072.234-2.71.678-.652.456-.965 1.329-.965 2.606v4.079h5.669v4.248h-5.669v25.073h-4.821v-25.073h-4.94zm-18.14-4.261v4.248H308v18.205c0 .56.052 1.017.144 1.356.091.338.26.6.534.795.26.195.639.312 1.12.377.47.052 1.083.092 1.838.092h2.216v4.248h-3.688c-1.238 0-2.307-.091-3.206-.26-.886-.17-1.603-.483-2.15-.952-.548-.443-.952-1.095-1.225-1.916-.26-.834-.391-1.928-.391-3.284v-18.66h-5.004v-4.25h5.004v-8.782h4.822v8.783zm-38.483 0v4.652h.118c2.007-3.544 5.173-5.33 9.526-5.33 1.929 0 3.531.26 4.822.795 1.277.535 2.32 1.264 3.114 2.216.795.938 1.342 2.059 1.681 3.375.313 1.29.482 2.75.482 4.326v19.287h-4.821V128.7c0-1.811-.535-3.245-1.59-4.3-1.056-1.056-2.515-1.59-4.353-1.59-1.485 0-2.762.221-3.831.677a7.253 7.253 0 0 0-2.698 1.929 8.075 8.075 0 0 0-1.615 2.919c-.365 1.108-.548 2.333-.548 3.662v16.563h-4.821v-29.321h4.534zm-15.025 8.627a8.102 8.102 0 0 0-1.76-2.646 8.248 8.248 0 0 0-2.606-1.746 8.247 8.247 0 0 0-3.31-.664c-1.212 0-2.371.221-3.375.664a7.88 7.88 0 0 0-2.593 1.786 8.533 8.533 0 0 0-1.694 2.632c-.417 1.003-.652 2.072-.743 3.206h16.85a9.776 9.776 0 0 0-.77-3.232zm1.147 18.83c-2.19 1.669-4.94 2.49-8.275 2.49-2.346 0-4.366-.365-6.086-1.134-1.72-.756-3.18-1.812-4.34-3.167-1.185-1.355-2.059-2.997-2.645-4.887-.586-1.89-.912-3.948-.99-6.177 0-2.228.338-4.274 1.016-6.125.678-1.85 1.629-3.453 2.867-4.834a13.016 13.016 0 0 1 4.366-3.167c1.668-.756 3.518-1.134 5.525-1.134 2.593 0 4.77.548 6.49 1.616 1.72 1.082 3.101 2.45 4.13 4.118a16.097 16.097 0 0 1 2.15 5.447c.392 1.968.561 3.832.483 5.617h-21.945c-.04 1.29.117 2.502.456 3.662a8.294 8.294 0 0 0 1.642 3.062c.756.873 1.72 1.59 2.88 2.124 1.173.535 2.554.795 4.144.795 2.033 0 3.714-.482 5.017-1.42 1.303-.938 2.163-2.385 2.58-4.3h4.77c-.652 3.283-2.059 5.76-4.248 7.428zm-63.829-27.457v4.313h.117c2.203-3.323 5.343-4.99 9.461-4.99 1.812 0 3.467.377 4.94 1.133 1.472.756 2.514 2.046 3.114 3.857.99-1.576 2.28-2.814 3.883-3.675 1.616-.873 3.375-1.303 5.304-1.303 1.473 0 2.815.157 4 .496 1.187.312 2.216.82 3.063 1.498s1.499 1.564 1.98 2.633c.47 1.081.705 2.384.705 3.896v21.49h-4.822V129.35c0-.899-.078-1.746-.222-2.54-.143-.796-.43-1.486-.847-2.073-.417-.6-1.003-1.055-1.733-1.394-.743-.339-1.694-.508-2.867-.508-2.385 0-4.248.677-5.616 2.033-1.356 1.355-2.046 3.166-2.046 5.447v18.257h-4.822v-19.222c0-.938-.091-1.81-.26-2.606-.17-.782-.457-1.472-.887-2.072-.417-.586-.964-1.03-1.668-1.355-.703-.313-1.603-.482-2.697-.482-1.408 0-2.607.273-3.61.847-.99.56-1.811 1.25-2.424 2.033a8.342 8.342 0 0 0-1.368 2.476c-.274.847-.43 1.563-.43 2.124v18.257h-4.822v-29.308h4.548zm-8.835 0v4.248h-5.839v18.205c0 .56.04 1.017.13 1.356.092.338.274.6.548.795.26.195.639.312 1.108.377a17.3 17.3 0 0 0 1.85.092h2.203v4.248h-3.675c-1.251 0-2.32-.091-3.206-.26-.886-.17-1.616-.483-2.15-.952-.547-.443-.951-1.095-1.225-1.916-.26-.834-.404-1.928-.404-3.284v-18.66h-4.991v-4.25h4.99v-8.782h4.836v8.783h5.838zm-28.279 0v6.19h.118c1.16-2.385 2.606-4.144 4.313-5.278 1.694-1.134 3.844-1.668 6.464-1.59v5.109c-1.93 0-3.558.26-4.94.795-1.355.534-2.45 1.303-3.283 2.32-.821 1.016-1.434 2.267-1.812 3.713-.378 1.46-.56 3.128-.56 5.017v13.058h-4.835v-29.321h4.548zm-16.276 14.178c-.6.456-1.408.782-2.372.99-.99.21-2.02.379-3.102.509-1.068.143-2.163.286-3.258.456-1.094.17-2.085.443-2.945.808a5.403 5.403 0 0 0-2.124 1.616c-.547.704-.834 1.642-.834 2.854 0 .795.157 1.46.495 2.007.313.547.73.977 1.238 1.316.509.352 1.108.586 1.786.743.69.143 1.394.221 2.163.221 1.577 0 2.945-.208 4.079-.638 1.12-.43 2.059-.978 2.776-1.63.703-.664 1.238-1.38 1.576-2.15.34-.768.509-1.485.509-2.163v-4.913zm7.832 15.039c-.834.482-1.981.73-3.454.73-1.25 0-2.254-.352-2.984-1.056-.73-.69-1.108-1.837-1.108-3.427-1.329 1.59-2.867 2.736-4.626 3.427-1.76.704-3.649 1.056-5.695 1.056-1.329 0-2.58-.144-3.766-.457-1.199-.3-2.228-.768-3.088-1.407-.886-.652-1.577-1.486-2.085-2.528-.509-1.043-.77-2.294-.77-3.766 0-1.668.287-3.024.848-4.08.573-1.055 1.316-1.915 2.241-2.58a10.387 10.387 0 0 1 3.18-1.511 36.539 36.539 0 0 1 3.662-.847c1.316-.26 2.58-.47 3.766-.6 1.186-.143 2.241-.312 3.154-.573.899-.247 1.616-.6 2.15-1.069.534-.482.795-1.172.795-2.072 0-1.055-.209-1.902-.6-2.554-.404-.638-.912-1.134-1.537-1.472-.613-.34-1.317-.56-2.098-.678a15.2 15.2 0 0 0-2.294-.17c-2.033 0-3.74.392-5.108 1.16-1.356.782-2.099 2.255-2.203 4.405h-4.835c.079-1.811.457-3.349 1.134-4.587a8.617 8.617 0 0 1 2.724-3.036 11.482 11.482 0 0 1 3.883-1.681c1.447-.34 3.01-.509 4.679-.509 1.329 0 2.632.091 3.935.287 1.303.195 2.49.573 3.545 1.147a6.908 6.908 0 0 1 2.554 2.463c.638 1.055.964 2.437.964 4.13v15.052c0 1.134.065 1.968.196 2.49.143.533.586.794 1.342.794.417 0 .9-.078 1.473-.221v3.74zm-36.502-18.805a11.195 11.195 0 0 0-1.642-3.492 8.166 8.166 0 0 0-2.84-2.437c-1.147-.6-2.503-.9-4.054-.9-1.628 0-2.997.313-4.13.965a8.217 8.217 0 0 0-2.776 2.528c-.717 1.043-1.238 2.215-1.564 3.545a17.377 17.377 0 0 0-.482 4.026c0 1.447.17 2.828.508 4.17.339 1.343.886 2.529 1.616 3.545a8 8 0 0 0 2.867 2.463c1.16.626 2.593.951 4.248.951 1.655 0 3.05-.326 4.17-.964a8.04 8.04 0 0 0 2.698-2.554c.677-1.056 1.16-2.268 1.46-3.623.312-1.355.455-2.763.455-4.196 0-1.368-.182-2.698-.534-4zm-17.332-10.412v3.962h.118c.781-1.616 2.033-2.802 3.727-3.532 1.707-.743 3.57-1.12 5.616-1.12 2.268 0 4.249.43 5.93 1.25a11.966 11.966 0 0 1 4.196 3.375c1.12 1.408 1.968 3.063 2.528 4.9.573 1.864.847 3.819.847 5.904s-.274 4.04-.821 5.903c-.547 1.85-1.381 3.466-2.49 4.848-1.12 1.381-2.514 2.463-4.195 3.258-1.681.795-3.636 1.185-5.864 1.185-.717 0-1.525-.078-2.411-.221a12.363 12.363 0 0 1-2.646-.743c-.873-.326-1.68-.795-2.463-1.381a7.893 7.893 0 0 1-1.954-2.19h-.118v15.091h-4.835v-40.489zm-15.39 8.627a8.314 8.314 0 0 0-1.76-2.646 8.398 8.398 0 0 0-2.606-1.746c-.99-.43-2.11-.664-3.323-.664-1.212 0-2.358.221-3.375.664-.99.43-1.85 1.03-2.58 1.786a8.533 8.533 0 0 0-1.694 2.632 10.107 10.107 0 0 0-.743 3.206h16.85a10.105 10.105 0 0 0-.77-3.232zm1.147 18.83c-2.19 1.669-4.94 2.49-8.275 2.49-2.346 0-4.379-.365-6.1-1.134-1.72-.756-3.166-1.812-4.326-3.167-1.186-1.355-2.059-2.997-2.645-4.887-.587-1.89-.912-3.948-.99-6.177 0-2.228.338-4.274 1.016-6.125.678-1.85 1.629-3.453 2.867-4.834 1.212-1.356 2.684-2.411 4.352-3.167 1.682-.756 3.519-1.134 5.526-1.134 2.606 0 4.77.548 6.503 1.616 1.72 1.082 3.101 2.45 4.13 4.118 1.043 1.668 1.747 3.48 2.15 5.447.392 1.968.548 3.832.483 5.617H66.774c-.04 1.29.104 2.502.456 3.662.339 1.147.873 2.176 1.629 3.062.769.873 1.733 1.59 2.893 2.124 1.173.535 2.554.795 4.13.795 2.047 0 3.728-.482 5.018-1.42 1.303-.938 2.176-2.385 2.593-4.3h4.77c-.652 3.283-2.072 5.76-4.248 7.428zm-45.155-2.671c.6 0 1.355-.052 2.268-.143.912-.092 1.863-.326 2.893-.691 1.016-.352 2.02-.873 3.036-1.55.99-.692 1.903-1.617 2.685-2.777.794-1.172 1.46-2.645 1.967-4.391.509-1.76.77-3.897.77-6.386 0-2.489-.248-4.587-.718-6.49-.469-1.915-1.25-3.531-2.32-4.873-1.08-1.343-2.475-2.372-4.17-3.063-1.693-.703-3.791-1.055-6.294-1.055h-9.07v31.419zm-.456-35.954c6.242 0 11.05 1.59 14.413 4.77 3.362 3.18 5.056 8.027 5.056 14.517 0 3.4-.378 6.424-1.133 9.057-.77 2.619-1.93 4.834-3.519 6.633-1.577 1.798-3.61 3.18-6.073 4.118-2.45.938-5.369 1.407-8.73 1.407H24.537v-40.49H38.43zM72.886 37.557c-.196-.078.13-.482.273-.547.157-.091.717-.104.717-.104s-.17.26-.196.508c-.039.26-.599.221-.794.143M74.515 38.495c-.196-.078.13-.469.286-.547.157-.078.717-.104.717-.104s-.157.26-.196.521c-.039.26-.599.222-.795.144M74.619 37.283c-.196-.078.13-.469.286-.547.157-.078.717-.104.717-.104s-.17.26-.195.508c-.04.26-.6.222-.795.144M72.925 38.704c-.196-.078.117-.482.26-.56.17-.079.717-.105.717-.105s-.17.26-.182.522c-.04.26-.6.221-.795.143M74.567 39.642c-.17-.065.104-.404.234-.482.13-.065.613-.091.613-.091s-.144.221-.17.443c-.026.221-.521.182-.677.117M72.95 39.942c-.169-.065.105-.417.248-.495.13-.065.613-.092.613-.092s-.144.235-.17.444c-.026.234-.52.195-.69.13M75.961 39.512c-.17-.065.104-.404.235-.482.13-.066.612-.092.612-.092s-.156.235-.17.444c-.026.221-.508.195-.677.13M74.632 40.724c-.17-.065.104-.404.234-.482.144-.066.613-.092.613-.092s-.144.235-.17.444c-.026.221-.508.195-.677.13M76.026 40.632c-.17-.065.104-.403.235-.482.143-.065.612-.09.612-.09s-.143.234-.17.442c-.026.222-.507.196-.677.13M76.065 38.456c-.17-.065.104-.404.248-.495.13-.065.612-.091.612-.091s-.156.234-.17.443c-.026.234-.52.195-.69.13"/>
  <path fill-rule="evenodd" d="M38.938 45.52a1.688 1.688 0 0 1-.43-1.63c.222-.873.17-1.524-.195-1.941-.157-.183-.274-.3-.482-.391.221 1.147.312 2.124-.456 3.075.078-.339-.352-1.03-.287-1.89.039-.73.3-1.498.052-1.824.287.222 1.003.326 1.316.391.69.091.873.43 1.108.977.078.183.378.378.482.587.117-.326.274-.573.339-.743.091-.286.039-.534-.04-.834.379.04.561.756.705.912.13.157.234.287.495.287.117-.3.09-.547.13-.834.04-.391.196-.69.052-1.134.222.027.443.313.56.587.144.351.092.638.34.834.247-.157.364-.444.442-.613.196-.547.34-1.003.352-1.668.3.235.456.26.756.495.352.287.56.847.808 1.017.795.534 1.642.951 2.463 1.329 1.056.482 2.046.808 3.688 1.173.704.078 1.186.117 1.811-.052.274-.078.926-.104 1.069-.104.143 0 .495.09.873.182.6.157.795.808.782 1.33-.586.39-1.108.416-2.02.625-.73.17-1.381.247-1.929.82-.13.131-.273.353-.52.353.038-.118.026-.248-.066-.391a.661.661 0 0 0-.365-.209c-.234.222-.273.678-.586.574.026-.209-.274-.3-.508-.287-.235.027-.352.26-.613.235.117-.274-.208-.535-.443-.652-.078.065-.352.586-.678.626.157-.326-.17-.808-.469-.9-.09.274-.234.782-.677.9.156-.326.052-1.121-.496-1.2-.013.47-.117.743-.469.991.144-1.264-.925-1.655-1.902-1.968-.404-.117-.404-.13-.795-.273a1.44 1.44 0 0 0-.73-.157c-.065.313.208.939.495 1.225-.534-.065-.873-.286-1.12-.56-.196-.248-.21-.456-.392-.873-.377.899.13 1.186.483 1.746-1.434 0-1.486-1.694-1.5-1.785a1.54 1.54 0 0 0-.325.651c-.027.34.052.834.352 1.16-.222-.027-.678-.3-.769-.6-.104-.351-.078-.169-.104-.547-.027-.26-.013-.977-.144-1.264-.117.196-.273.495-.26.834.117.756-.326.978-.196 1.42M31.953 36.058c-.039.6.274.913.574 1.473.339.665.352 1.629.013 2.463a4.475 4.475 0 0 1-.547.977c-.417-1.72-.978-3.427-.04-4.913M36.032 39.838c-.013.39.574.808.639 1.46.039.416-.052.781-.144 1.172-.117.495.157.782-.09 1.381-.118.326-.261.639-.222 1.108-.17-.235-.834-1.407-.587-2.359.196-.769.196-1.225.209-2.085 0-.273.091-.482.208-.677M34.873 43.708c-.626-.443-.939-1.577-.717-2.163.417-1.147.286-1.251.247-2.398 0-.222.04-.678.183-1.004-.014 1.017.69 1.33.69 2.307 0 .417.027 1.069-.234 1.642-.326.743-.26 1.394-.17 1.629M33.244 37.349c.078.534.39 1.042.56 1.368.221.43.182 1.368-.13 2.306-.131.404-.548.913-.548 1.33-.078-.235.052.156-.17-.73-.247-.977.248-1.447.327-2.202.039-.522-.065-1.525-.04-2.06"/>
  <path d="M23.522 47.709s.613-.391.938-1.89c.3-1.525 2.072-2.41 2.62-2.502-.496.573-.939 1.264-1.395 2.098-.638 1.199-1.668 2.059-2.15 2.294"/>
  <path d="M31.823 43.395c-.404-.99-.625-1.525-1.629-2.085-.704-.39-1.199-.482-1.994-.586-1.29-.196-1.954.078-2.424.326-.482.247-.86.573-1.303 1.485-.338.704-.286 1.356-.26 2.007.17-.808.443-1.46.951-1.98.482-.483 1.043-.809 1.29-.887.782-.221 1.264-.013 1.264-.013-.56.117-.925.221-1.342.508-.704.47-1.381 1.394-1.55 2.111 0 0 .638-1.108 1.732-1.603a3.664 3.664 0 0 1 2.36-.365 3.257 3.257 0 0 0-.796.43c-.521.365-.886 1.056-1.29 1.799-.573 1.094-.99 1.72-1.46 2.15.379-.13 1.603-.821 2.125-1.564.508-.756.951-1.746 1.107-1.955.157-.208.704-.495 1.03-.39.326.104.6.351.6.364.299.34.677.99.547 2.125-.222 1.824-.939 3.31-2.528 6.007-1.512 2.567-2.372 3.545-2.998 4.94-.86 1.928-.716 4.482 1.343 5.03.977.312 2.384-.287 2.384-.287s.417-.313.404.6l.196-3.285s-.352 1.42-1.551 1.499c-1.199.078-1.733-.222-1.863-1.069-.118-.86.404-2.332.834-3.036.404-.704 3.192-5.265 3.284-5.512.104-.261 1.16-2.073 1.407-3.324.247-1.264.482-2.45.078-3.44"/>
  <path fill-rule="evenodd" d="M32.579 79.063a9.57 9.57 0 0 1-.209-2.02c0-.587.326-.691.926-.691.521 0 .638.235.521.495-.482 1.004-.287 1.981.13 2.867-.573.587-1.238 0-1.38-.651m-3.963-7.95c-.3 1.369-.273 1.955-.208 2.568.156-.209.313-.326.47-.313-.157.417-.183.743-.157 1.082.156-.235.286-.378.508-.443a3.416 3.416 0 0 0-.052 1.16c.195-.418.378-.822.6-.665.195.143 0 0 .195.13.17.104-.183.678-.235.834-.065.143.209.404.548.495-.313 1.186-.613 2.163-.352 3.232.09.39.26.769.756 1.055a6.147 6.147 0 0 1-.105-2.306c.052-.47.3-.925.496-1.368.117-.222.404-.13.521.143.17.417.17 1.316.182 1.746.053 1.486.248 2.28 1.695 2.998.573.273 1.016.117 1.329-.157.208-.17.586-.573.352-.938-.34-.521-.196-.613.3-.548.586.079 1.016-.286 1.25-.755.118-.235.157-.926-.273-.86-1.2.143-1.225-.457-1.408-.86-.17-.392-.09-1.825.365-1.864.26-.027.365-.313.274-.665-2.789.014-5.63-1.277-7.05-3.714"/>
  <path d="M35.342 44.633c.052.378.82 1.981 1.407.704.573-1.277 1.681 1.238 3.91 1.238 2.215 0 3.114-.678 3.766-.56.651.09 1.042.586.755 1.38-.547 1.59-1.602 2.516-3.948 4.783a20.09 20.09 0 0 0-1.486 2.177c-.208.43-.195.743 0 .808.17.052.352-.027.535-.26.404-.535.508-1.278 1.238-1.708.443-.274 2.463-1.056 2.463-1.056s1.107-.377 1.694.248c.573.612.899 2.593.82 3.453-.077.86-.403 2.555-2.267 3.832-1.85 1.277-1.03 2.384-.573 2.867.456.508 2.854.247 2.854.247s.951.04 1.472.86c.287.456.287 1.056.287 1.056s-1.056.743-1.864.651c-1.381-.143-1.98-.742-3.127-.703-1.147.052-3.037.052-3.037.052s-1.042-.144-.742-1.069c.456-1.46 1.042-3.01.899-3.922-.104-.574-1.069-.522-1.434-.391-.365.143-.664.351-1.212.065-.208-.118-.221-.626-.3-.99a5.714 5.714 0 0 1 .144-2.776c.157-.522.144-.496.235-.678.182-.378-.3-.821-.678-.052-.508 1.069-.547 1.929-.56 2.593-.014 1.316.847 4.014.677 5.239-.17 1.238-.495 2.072-1.407 2.971-.9.912-3.78 4.366-3.78 4.366s-1.159 1.368-.416 2.88c.521 1.055 1.668.86 2.19.86.442 0 .703-.183 1.38.378.587.482.704 1.225.157 1.316-2.867.469-4.066-.065-5.565-.951-1.511-.887-1.238-3.258-1.238-3.258s-.052-1.173 1.786-2.515c.456-.717.86-1.708.534-2.32-.313-.586-.964-1.785-.964-1.785s-.626-2.672-.535-3.754c.079-1.055-.039-2.71.834-4.443.86-1.733 2.62-3.858 3.324-5.604.69-1.746 1.55-3.831 1.785-6.229"/>
  <path fill-rule="evenodd" d="M37.61 36.853c0 .196-.04.352-.131.443-.495-.09-.743-.534-.9-.847-.651.091-.912-.078-1.433-.482-.313-.26-.665-.834-.873-1.329-.326.039-.86-.378-1.173-.743-.573-.586-.482-1.147-.99-1.89-.118 1.382-1.082 2.36-.443 3.702.234-.535.378-1.004.703-1.408 0 .847 0 .99.078 1.694.066.404.235.873.457 1.069-.066-.482-.027-.665.09-.99.144-.418.287-.574.574-.743.104.273.091.404.065.69-.027.274-.052.509.027.86.156.587.326.887.469 1.29a2.628 2.628 0 0 1 .13-1.133c.104-.287.222-.43.457-.6.377.652.312 1.056.377 1.681.052.6.417.795.535 1.2.247-.548-.222-1.434.547-1.968-.117.794-.104 1.316.144 1.941.143.352.52.639.638 1.134.091-.717-.273-1.499.104-2.241.365.364.235.677.339 1.055.143.521.43.821.287 1.33.73-.313.39-1.643.39-2.412 0-.495.079-.443.157-.807-.17-.183-.404-.313-.613-.47"/>
  <path fill-rule="evenodd" d="M38.925 31.484a2.17 2.17 0 0 0-.39.248c-.144.195-.092.508 0 .808.117.417 0 .73-.327.795-.286.052-.56 0-.703-.365-.17-.391-.222-.73-.117-1.03-.404.027-.691.014-.913 0-.195-.013-.456 0-.599-.156-.196-.222-.404-.704-.157-.86.274-.17 1.017-.235 1.225-.235-.182-.534-.677-.573-.86-.912-.156-.3-.26-.704-.13-1.173-.039 0-.47.091-.652.104-.495.052-.73-.26-.82-.638-.053-.274-.261-.665-.522-.86.052-.157.248-.222.417-.248.287-.013.287 0 .574.027.247.027.508 0 .716-.052.313-.091.365-.144.574-.339.156.248.17.47.13.9-.039.442-.065.964.04 1.394.117.534.43.677.963.586.56-.104.548-.339.535-.717-.078-.964-.77-1.264-.378-2.371.273.247.677.195 1.212.09.312-.051.625-.325 1.094-.13-.286.43-.156.56-.221.952-.13.834-.938.95-1.473.899.417.547.404.899.287 1.329-.13.534-.3.404-.365.938.313-.117 1.134-.508 1.342-.3.248.535.3.952-.443 1.304m.86 2.971c0-.156-.026-.443.17-.626.208.066.469.274.508.6.065.378.065.938-.091 1.108.782-.43.808-1.2.638-1.799-.143-.495-.573-.743-.495-1.16.652-.104.834.73.873 1.16.222-.352.326-.899.222-1.316-.078-.3-.534-.612-.339-1.056.209 0 .326.183.47.365.117.17.234.43.299.678.143-.47.065-.86-.091-1.238-.157-.365-.391-.417-.47-1.043.326-.143.34.261.717.391.027-.43.065-.573-.326-1.12.13-.13.391-.027.535.143.026-.39-.378-.912-.6-1.12.157-.079.326 0 .47.065.051-.352-.196-.678-.405-.848-.247-.208-.443-.169-.651-.364-.209-.196-.522-.613-.574-.913.235-.026.522-.065.77-.17.416-.195.625-.403.86-.768.273-.39.377-.9-.066-1.342a1.173 1.173 0 0 0-1.225-.3c-.456.144-.716.626-1.277.339-.078.26-.208.352-.26.352-.3-.091-.639-.13-.978-.17-.312-.039-3.127.391-3.453.483-.652.208-1.746.899-1.59.273-.156.613-.977-.286-1.877.521a1.35 1.35 0 0 0-.404 1.564c.274.652.926.86 1.76.704-.027.273-.065.482-.313.717-.195.195-.469.365-.625.82-.157.6-.13 1.695.417 2.177-.078-.613-.078-.9.09-1.29.131-.313.418-.548.574-.535a7.267 7.267 0 0 0-.208 1.655c0 .6 0 .939.312 1.473.014-.651.235-1.486.6-1.55.365.586-.065 1.107-.144 1.641-.09.574.222.847.613 1.03-.118-.274-.04-.574.013-.808.065-.274.339-1.095.808-.9-.482.939-.47 1.5-.234 2.216.143.443.586 1.003.912 1.069-.235-.3-.391-.887-.391-1.225 0-.587.104-1.251.352-1.408.117.118.286.339.234.808-.065.495-.117.665.027 1.134.143.43.39.73.625.99-.182-1.016-.039-2.15.43-2.371-.065.781-.13 1.407.13 1.876.248.482.43 1.069.43 1.486.21.156.457.286.626.482.014-.078.04-.196.066-.326.09-.613-.391-1.42-.365-1.746.326-.027.625.625.755.99.43-.195.808-.495 1.212-.73-.026-.365-.065-.716-.078-1.081"/>
  <path fill-rule="evenodd" d="M43.695 37.726c-.326-.273-.73-1.081-.587-1.342.417 0 .913.73 1.33 1.186.43.47 1.146.613 1.381 1.264-.039-.873-.274-1.446-.873-1.942-.313-.247-.769-.56-1.147-.795.091-.052.144-.039.352-.039.182 0 .508.17.678.261.326.157.43 0 .782.3.078-.065-.365-.743-.6-.965a2.269 2.269 0 0 0-.808-.456c-.469-.156-1.147-.13-1.55-.3-.379-.156-.483-.234-.887-.547-.221.912-.443 1.238-1.094 1.786-.261.195-.378.3-.535.182-.13-.104-.143-.221-.156-.352l-.04-.443c-.403.235-.781.534-1.211.73.182.521.156.938.027 1.446-.183.808-.052 1.551.09 2.333.092.482 1.017 1.394 1.056 1.733.144-.417-.352-1.329-.378-1.616-.065-.469-.143-.69-.13-1.133 0-.443.143-1.212.208-1.212.183.156.47.782.43 1.446-.039.652.196 1.082.535 1.486.182.221.508.208.6.69.13-.417.09-.664.026-.912-.13-.586.013-.716.052-1.342a3.55 3.55 0 0 0-.092-.977c-.078-.326-.013-.782.118-.939.182.052.417.691.417 1.03 0 .3.039.951.195 1.277.235.482.874.873.847 1.251.3-.99.209-1.864-.143-2.92-.117-.39-.352-.86-.326-1.341.391.143.73 1.277.873 1.68.118.313.091.327.3.548.234.274.443.482.769.639.586.26.768.625 1.03 1.12.051-.234.026-.651-.157-1.173-.313-.834-.678-1.068-1.356-1.668M44.75 32.5c-.26-.69-.807-.599-1.25-.938-.131-.09-.327-.39-.43-.573-.079.17-.092.508.13.73.247.26.6.43.86.678.352.338.3.742.886 1.042-.82.391-1.316-.756-1.863-.521.182 1.03 1.38.86 1.863 1.68-.573-.182-.912-.09-1.446-.117-.235 0-.665-.09-.847-.208-.548-.326-.496-.547-.365-.964.182-.613.495-.887.326-1.577a2.688 2.688 0 0 1-.053-.574c0-.56.652-1.433.13-2.11.248.156.574.403.587.794.065.639.157 1.147.795 1.42.952.392.743 1.2.69 1.252M60.831 47.253c-.664.143-1.316.286-1.98.456-.587.143-1.017.143-1.382-.509-.286-.508-.521-.495-.521-.495s-.013.235-.365.274a3.204 3.204 0 0 1-.69-.052c-.457-.104-1.07-.209-1.512-.183.26.222-.04.482-.209.509-.664.117-1.524.143-2.215.221.417.209.495.886-.078 1.043-.43.104-1.095.104-1.486.39.548.378.13.73.027.835a2.36 2.36 0 0 1-.756.482c-.365.13-.808.3-.886.534.73.17-.157.964-.404 1.238-.287.326-.456.39-.534.756.443 0 .964.117.703.521-.26.456-.69 1.199-.795 1.46-.104.221-.221.456-.338.677 1.003-.573 1.394-.834 2.241-.208.196.143.274.156.495.117.274-.065.482-.156.704-.326.47-.339.782-.247.951.313.834-.834 1.616-1.134 2.033-.665.313-.352.6-.717.9-1.068.416-.509.899-.587 1.068.13.182-.378.287-.586.443-.847.196-.365.339-.847.652-.9.13-.038.273-.064.39.183.066-.195.066-.443.079-.573.039-.482.052-.964.078-1.486.17.365.234.704.26 1.303 0 .548.104 1.147-.3 1.799-.117-.43-.247-.925-.455-.69-.496.573-.782 1.433-1.251 2.332 0-.26-.144-1.212-.457-1.095-.377.13-.925 1.03-1.394 1.655-.208-.39-.3-.482-.678-.365a1.824 1.824 0 0 0-.56.313c-.404.378-.508 1.003-.612 1.525-.065.312-.235.677-.483.899-.117.09-.208.195-.325.273.208.157.417.313.638.456.547-.273.938-.508 1.447-.742.69-.313 1.837-.678 1.511.13.352-.027.665-.273.795-.417.495-.508.782-1.069 1.33-1.147.117-.026.247-.039.364-.065.235-.286.495-.521.756-.782-.117-.013-.326-.208-.286-.482.026-.156.13-.521.156-.651.091-.391.404-.743 1.095-.56a12.517 12.517 0 0 0-.065-1.043c-.052-.691.351-.795.912-.77-.118-.481-.222-.924-.326-1.354-.052-.196-.104-.404-.196-.587-.39-.73-.377-.847.235-1.238a5.24 5.24 0 0 1 2.007-.717 4.638 4.638 0 0 0-.73-.782M83.272 40.202c0-.195-.365-.625-.118-.795.118-.078-.052-.286-.09-.443-.014-.09-.183-.312-.21-.404-.038-.182.053-.247 0-.43-.117-.39-.43-.808-.547-1.133-.13-.365-.065-.665-.182-.847-.027-.065-.365-.287-.391-.34-.221-.351-.117-.455-.3-.716-.234-.339-.586-.508-.794-.717-.209-.221-.287-.482-.509-.625-.065-.04-.312-.04-.365-.118-.456-.534-.977-.456-1.212-.117-.443.612-.86 1.238-1.277 1.863.052.052.104.079.157.13.013-.026.027-.064.052-.09.326-.404.678-.821 1.055-1.2.13-.143.457-.377.691-.247.13.078.17.248.118.378-.183.404-.613.795-.939 1.173.313-.221.587-.508 1.017-.795.208-.143.39-.326.547-.195.222.195-1.199 1.381-1.499 1.72.313-.104 1.33-.99 1.577-1.082.26-.09.365-.078.47.027.051.065.117.234.013.365-.287.482-1.903 1.407-2.176 1.694 1.316-.782 2.54-1.33 2.788-.951.104.117 0 .364-.182.482-.248.143-1.316.703-1.694.925.417-.104 1.511-.6 1.811-.612.235 0 .456-.092.639.221.078.209-.287.443-.496.547-.208.104-.625.222-1.016.352.482-.026 1.264-.104 1.603-.117.039.039.221-.065.247.104.078.273-.39.326-.534.365-.456.13-2.02.469-2.007.547.535-.078 1.069-.182 1.603-.208.313-.027 1.16-.052 1.212.17.091.234 0 .481-.3.481-.599 0-1.342.118-2.045.209.742 0 1.29.039 1.824.013.3-.013.73.04.795.326.013.091 0 .352-.157.352-1.902.156-2.163 0-3.323 0 0 .17-.078.208-.13.365.43 0 .86-.014 1.29-.027.86 0 1.355.118 2.228.104.509 0 .795-.39.782-.703"/>
  <path fill-rule="evenodd" d="M78.567 40.463c.17-.273.104-.456.365-.6-.104-.051-.521-.103-.39-.195.195-.156.038-.378.273-.521-.534-.248-.782-1.55-.678-1.63-.17-.064-.6-.43-.69-.677-.066-.208.078-.612.26-.756-.286-.039-.456-.312-.312-.586-.052-.052-.105-.078-.157-.13a1.838 1.838 0 0 1-.117.169c-.17.26-.352.339-.665.235-.221-.079-.704-.065-.586-.222-.118 0-.26 0-.443.065-.274.078-1.121-.195-.874-.286-.417-.118-.781-.052-1.198.247 0 0-.04-.027-.052-.039-.092-.052-.13-.208-.13-.208s-.653.286-.874.547c-.26.273-.652 1.108-.795.834-.156.274-.182.625-.26.938-.04.118-.209.574-.274.313-.196.13-.209.443-.196.704 0 .156.092.351.027.456-.247.43-.027.742.196 1.081.195.274.039.704.547.873.456.157.378.678.078 1.095-.378.508-.834.547-1.446.365.117.404.052.625-.13.782.156.26.273.547.39.834.704-.365 1.368-.756 1.955-1.33.286-.273.625-.182.886.118.117.13.235.3.378.417.3.222.625.417.82.573-.064-.404 1.291-.013 1.669-.013-.3-.221.717-.39 1.173-.586-.443-.574.638-.443.912-.795-.287-.027-.43-.104-.313-.274.3-.247.548-.482.717-.612-.247-.13-.052-.47-.065-.665.144 0 .274-.13.43-.13.04-.157.104-.209.118-.365h-.535zm0 0"/>
  <path fill-rule="evenodd" d="M69.276 56.336c-.313.09-.6.247-.9.39-.43.196-.95-.026-.73-.508.274-.417.483-.886.822-1.238a2.708 2.708 0 0 1 1.225-.716c-.027-.17-.04-.34-.065-.509-.326.065-.665.118-.99.209-.379.104-.457-.183-.392-.47.157-.781.483-1.433 1.108-1.915-.039-.274-.052-.547-.078-.808a3.277 3.277 0 0 1-1.355.639c-.104-.47-.6-1.147.247-1.225-.312-.274-.664-.496-.873-.795-.221-.313-.312-.704-.443-1.056-.417-1.081.209-2.88 1.238-3.466.196-.118.508-.196.69-.13.183.077.274.377.444.612.156-.326.26-.756.56-.9.209-.09.47-.22.652-.325a6.944 6.944 0 0 0-.391-.834c-.118.104-.313.17-.508.221-.56.157-1.095.352-1.642.574-.091.026-.365.182-.509.247-.95.626-1.12.6-1.46.639.652.547.079 1.186-.351 1.433-.339.209-.834.065-1.069-.104-.156-.117-.312-.222-.456-.47-.221-.338-.286-.82-.17-1.133-.234-.065-.494-.09-.742-.182a.62.62 0 0 1 0 .221c-.065.209-.235.209-.339.222-.221.052-.443.039-.743 0-.56-.052-.899-.26-.599-1.03-1.681 1.238-3.766.77-4.783-.482.065.391.313 1.108.47 1.368.377.613.873.978 1.485 1.486.13-.482.86-.665 1.473-.456.195.078 1.068.365 1.446.521.13.065.352.118.326.391-.013.222-.247.287-.39.313-.21.065-.418.104-.626.143.273.235.508.508.73.782a6.682 6.682 0 0 1 1.837 0c.625.091.73.196.951.508.274.391.078.756.078 1.056 0 .13.04.521.052.508.378-.652.704-.586 1.095.157.195.377.39.755.534 1.16.183.534.248.846-.3 1.342-.26.234-.364.404-.442.69 1.081-.69.95 1.212.938 1.46 0 .73-.6 1.081-.938 1.616-.118.182-.196.247-.261.573.56-.417.639 0 .56.495-.026.13-.026.209-.039.3.691.326 1.434.6 2.203.508.26-.6.716-.99 1.368-1.303.287-.144.56-.248.834-.326a10.326 10.326 0 0 1-.065-.612 5.69 5.69 0 0 0-.678.182"/>
  <path fill-rule="evenodd" d="M84.445 55.306c-.052-.313.17-.665.56-.912-.847-.365-1.642-.456-2.502-.521-.417-.014-.56-.287-.326-.691.091-.13.143-.17.378-.404a5.297 5.297 0 0 0-1.877-.144c-.26.027-.39 0-.482-.13-.065-.104-.09-.26.065-.456-.17-.065-.651.078-.86.104-.756.117-1.524-.156-2.293.195-.144.066-.535.144-.665-.156a.582.582 0 0 1-.027-.221c-.09-.014-.286.052-.365.09-.599.235-1.16.313-1.785.04a.287.287 0 0 0-.182-.027c-.209.027-.483.156-.717.182-.365.052-.769-.052-1.147-.013a.99.99 0 0 0-.573.248c-.104.09-.274.143-.34.26-.39.69-1.016.873-1.667 1.017.027.169.039.338.065.508.104-.027.195-.052.287-.052.508-.065.977-.157 1.185.508.04.17.313.248.457.391.104.117.182.274.182.404 0 .091-.17.208-.287.247-.52.13-1.055.274-1.59.391.027.209.053.404.066.613.17-.052.352-.118.521-.17.495-.17 1.003-.326 1.525-.404a6.257 6.257 0 0 1 1.16-.09c.82-.014 1.133.22 1.668.703.13.13.273.26.56.443-.027-.208.052-.312.234-.43.091-.052.535 0 .691.091.417.209 1.394.847 1.59.951 0-.338.234-.3.365-.325.925 0 3.896 2.41 4.821 4.313.352-.47.378-.795-.377-1.681-.522-.613-.926-1.03-1.447-1.642-.117-.13-.43-.417-.274-.678.13-.26.34-.247.535-.221.26.039.365.117.56.234.222-.195.222-.365.144-.651.443.182.703.286 1.381.208-.143-.208-.091-.312.156-.378.691-.143 1.317 0 2.099.26-.183-.963-.717-1.537-1.486-1.967M64.35 44.346c1.042-.052 1.407-.886 2.32-1.303.13-.078.273-.156.312-.247-1.042 0 .69-1.16.665-1.85-.495.182-.326-.353-.248-.548.235-.69.235-.717.47-1.251.038-.104.299-.6.26-.795-.17.104-.313.104-.482.104-.014 0 .312-1.837.273-2.124-.182.078-.547.182-.52-.117.064-.782.247-1.134.468-1.642-.13.026-.69.052-.469-.587.078-.26.391-.886.339-1.277-.808.274-.352-.6-.157-.925.118-.183.274-.352.626-.56-.26 0-.521 0-.782.104a4.864 4.864 0 0 0-.9.456c-.82.482-.807.495-1.485-.183-.664.704-.951 1.381-1.407 2.046-.17.209-.456.052-.704-.404-.326.47-.339 1.342-.469 1.98-.078.444-.274.444-.326.444-.091.013-.17.039-.313-.143-.104.234-.104.247-.143.495-.078.43-.078.808-.091 1.225-.027.352-.13.977-.534 1.094.338.287.508.717.612 1.212.104.522.144.73-.234.9-.209.09-.43.09-.639.051 0 .183.091.56.209.795.286.56.547 1.486.208 1.916.521-.091 1.017.17 1.499.665.156.17.352.404.404.638.247.091.495.118.742.183.092-.222.235-.365.483-.378M97.71 45.663c-.026-.118-.729-1.773-.807-2.437-.144-.965-.052-1.877.13-2.802.027-.117.065-.287.014-.339-.9-.886-1.642-1.746-2.711-2.62-.521-.43-1.42-1.042-3.57-2.28-1.2-.6-1.851 0-2.58.873-.483.6-.874 1.251-1.317 1.877-.104-.235-.091-.352.013-.586.17-.326.443-.691.078-1.121-.56-.613-1.055-1.29-1.563-1.955-.3-.378-1.017-1.863-1.212-2.489-.26-.573-.821-.769-1.42-.834-.809-.104-1.63-.117-2.425-.274-.703-.143-1.368-.469-2.072-.625-.378-.078-.795-.013-1.186.052-.364.065-.716.247-1.081.326-.352.065-.574.143-.626.56-.039.235-.208.535-.404.665-.938.638-1.616 1.381-1.798 2.606.82.157.782-.312 1.12-.73v.847c1.252-.013 2.45-.847 1.955-1.967.052-.027.13-.078.157-.078.508.221.925.195 1.355-.196.157-.156.521-.156.782-.13 1.082.143 2.15.351 3.05 1.03.807.599 1.472 1.276 1.81 2.254a116.38 116.38 0 0 0 1.76 4.913c.118.26.339.547.9.52.403-.026.807-.103 1.198-.143.26 0 .118.26.091.391-.117.248-.6.404-.912.404-1.603 0-3.193.56-4.835.209-.352-.078-.899 0-1.172.247-.639.535-1.225 1.121-1.825 1.694.456.248.873.56 1.29.847.886-.755 2.203-.925 3.428-.625a30.5 30.5 0 0 1 2.085.521c.873.248 1.368.43 2.215.782a8.427 8.427 0 0 1 1.577.86c.443.313.886.326 1.355 0 .665-.43 1.303-.769 2.02-1.108.47-.221.717.183.456.287-.443.313-.586.404-1.134.782-.221.156-.469.3-.677.482-.639.56-1.069.521-1.694.404-.404-.078-.756-.456-1.16-.547-.378-.04-.417.17-.17.417.404.43.834.847 1.212 1.29.521.625 1.277.704 1.968.951.339.104.639.274.964.339.482.091.99.222 1.447.13 1.12-.208 2.176-.508 3.14-1.264.756-.586.77-1.303.795-2.033 0-.182 0-.26-.039-.377"/>
  <path fill-rule="evenodd" d="M103.288 77.668c-.09.17-.312.365-.482.365-.182 0-.495-.17-.547-.339-.26-.677-.378-1.381-.587-2.085-.078-.482.157-.677.509-.82.469-.21.86.051.977.416.3.795.6 1.63.117 2.463m-2.085 1.486c-.286.482-1.212.456-1.264-.17-.052-.495-.052-.52-.13-1.016-.209-1.277-.287-2.606-.964-3.753-.665-1.134-1.304-1.994-2.476-3.193-2.086-2.098-4.327-2.671-7.077-2.867-1.003-.091-2.006.052-3.023.04-.339 0-.69-.196-.69-.587 0-.183.026-.391.351-.574.521-.273.952-.404 1.72-.495.56-.052 1.343-.052 1.916-.052 2.724-.013 4.952 1.069 6.438 2.085 1.186.795 2.54 2.463 3.349 3.623 1.055 1.486 1.446 2.437 1.955 4.105.247.82.338 2.072-.105 2.84M84.98 66.63c-.235.052-.692.118-.783-.156-.17-.365.118-.626.287-.73.743-.404 1.485-.782 2.28-1.055a7.923 7.923 0 0 1 3.623-.417c.47.052.821.378.808.86 0 .586-.404.651-.847.664h-.873c-.9.014-2.033.065-2.997.34-.535.156-.99.377-1.499.481m-37.896 2.046c-.234.326-.456.365-.69.365-.378 0-.782-.117-1.134-.26-1.642-.717-3.323-.678-5.004-.3-1.017.222-2.033.56-2.959 1.043-.768.417-1.394.925-2.006 1.498-.457.43-.717.665-1.108 1.017-.091.09-.352.247-.56 0-.13-.104-.222-.235-.04-.587.222-.43.326-.664.548-.925.73-.821 1.25-1.473 2.293-2.163.847-.56 1.29-.847 2.242-1.186.73-.26 2.072-.47 2.867-.495 1.407-.065 2.815.013 4.144.547.456.195.847.404 1.25.69.287.21.327.535.157.757m48.413-3.076c-.404.209-.821-.221-1.095-.508-.352-.339-.482-1.017-.352-1.264.274-.482.6-.6 1.173-.17.912.613.769 1.681.274 1.942m8.679 10.868c-.183-.795-.548-1.746-.77-2.58-.09-.39.014-.625.353-.808-.235-.586-.613-1.055-1.03-1.538-.013.065-.027.104-.039.17-.065.17-.326.247-.47.078-1.315-2.685-3.31-4.392-5.759-5.955.39-1.642-.274-2.62-1.811-3.141-.782-.065-1.2.625-1.251.717-.34.638-.052 1.498.234 2.007.417.703 1.186 1.029 1.85 1.016.327-.013.665.235.978.417 1.316.795 2.541 1.733 3.584 2.88.534.586.873 1.12 1.29 1.811.104.157.286.665 0 .808-.352.209-.574-.078-.965-.534-.534-.612-1.003-1.069-1.511-1.603-.522-.534-1.017-1.108-1.577-1.59-.626-.547-1.72-1.225-2.359-1.537-1.016-.509-1.303-.613-2.267-1.082-.157-.091-.391-.3-.378-.43.091-.808-.391-1.408-.769-2.033-.143-.209-.417-.365-.665-.495-.482-.274-.365.273-.547.39a.835.835 0 0 1-.482.17c-1.89 0-3.597.378-5.343 1.277-.326.17-.626.522-.977.352-.261-.104-.391-.6-.6-.912-.404-.652-.534-1.056-.964-1.681-.574-.795-1.29-1.655-1.955-2.229-1.811-1.537-3.831-2.71-6.398-2.71-1.486 0-2.854.3-4.223.769-.378.117-.703.352-1.068.508-.144.052-.378.078-.482 0-.092-.065-.079-.339-.04-.482.014-.04.04-.078.053-.118-.77.091-1.525-.17-2.216-.495-.027.235-.039.235-.104.521-.052.209-.404.404-.534.235l-.587-.704c-.625-.756-1.25-1.107-2.072-1.472-1.303-.6-2.463-.965-4.13-1.017h-.17c-.26.248-.521.482-.743.782.847-.091 1.746 0 2.593.144.952.17 1.655.482 2.45 1.055.535.391.939.808 1.212 1.316.287.483.17.665.13.704-.143.156-.403.3-.99.065-.795-.273-1.081-.417-1.798-.638-1.603-.522-3.245-.613-4.9-.352-1.538.234-3.088 1.042-4.274 2.033-1.017.834-1.76 1.72-2.71 2.645-.183.183-.444.404-.666.404-.651-.013-.899-.495-.534-1.042a23.123 23.123 0 0 1 1.707-2.203c.47-.547.665-.743 1.251-1.173.222-.17.808-.586 1.069-.716-.222-.157-.417-.313-.639-.443-.73.612-1.524 1.146-2.215 1.824-.808.782-1.46 1.72-2.228 2.541-.443.495-.352.417-.965.482-.221.665-.847 2.111-.534 2.242.938.365 1.577.469 2.515 0 .287-.157.652-.222.99-.26.248-.04.352-.014.457-.222.638-1.343 1.081-1.708 2.059-2.75.86-.925 1.967-1.733 3.023-2.215.704-.34 1.955-.587 2.71-.613 1.46-.052 2.998-.234 4.145 1.03a.71.71 0 0 1 .156.625c-.039.183-.326.196-.482.183-.6-.014-1.12-.091-1.786-.13-.977-.04-2.006-.04-2.958.195-1.446.365-2.932 1.146-4.04 2.293-.768.808-1.329 1.369-1.824 2.463-.26.548-.43 1.12-.665 1.668-.286.69-.781.821-1.355.365-1.394-1.081-2.997-1.525-4.73-1.603-.73-.039-1.473-.052-2.216.027-1.199.143-1.772.221-2.906.573-1.12.352-2.697 1.264-3.805 2.424-.795.821-1.134 1.12-1.798 2.007-.508.69.039 1.955.86 2.02.808.065 1.16-.534 1.616-.977.273-.274.469-.56.782-.847a6.767 6.767 0 0 1 1.563-1.16c.874-.495 1.42-.743 2.424-.99a9.528 9.528 0 0 1 2.646-.222c1.042.039 1.837.13 2.528.899.3.352.378.769.273 1.095-.09.247-.703.039-.95-.052a7.554 7.554 0 0 0-3.897-.509 4.163 4.163 0 0 0-1.564.509c-.652.352-1.303.808-1.772 1.381-.574.704-1.408 1.733-1.16 1.85.104.066.443-.182.56-.3.587-.56 1.108-1.185 1.733-1.706 1.382-1.147 2.685-1.147 4.574-.743.77.17 1.525.639 2.268.912.665.248 1.199-.065 1.173-.651-.078-1.304.756-2.372 2.033-2.49.469-.051.99.144 1.472.274.56.144.912-.027 1.043-.6.117-.468.013-.69-.04-1.029-.026-.286-.077-.547-.09-.82-.078-.94.469-1.773 1.212-2.646.547-.665 1.603-1.434 2.345-1.877 1.447-.86 3.01-1.173 4.666-.795.742.17 1.472.417 2.189.652 1.068.326 1.811-.118 2.046-1.108a.597.597 0 0 1 .117-.26c.417-.535.965-.483 1.499.143.638.756 1.824.808 2.437.091.39-.482.69-1.12 1.186-1.407.977-.548 2.033-1.043 3.127-1.251 1.512-.3 3.35-.248 4.809.404.912.39 1.355.56 2.372 1.368 1.68 1.316 2.984 2.971 3.583 5.07.248.846.183 1.08.104 1.759-.039.456-.547.781-.873.651-.17-.065-.312-.221-.312-.521-.014-1.473-.639-2.19-1.33-3.206a9.957 9.957 0 0 0-1.785-2.046c-.899-.82-1.694-1.485-3.688-2.085-.873-.26-1.368-.234-2.32-.182-1.211.039-2.254.338-3.036 1.225-.43.482-.443 1.368-.052 1.655.352.273.834.404 1.343.143.495-.234.56-.69.508-1.16-.052-.495.104-.769.586-.912 1.655-.482 3.232-.195 4.64.717 1.081.717 2.058 1.55 2.814 2.658.535.782 1.134 1.382 1.395 2.424.065.287-.027.756-.078 1.056-.105.716.195 1.55 1.146 1.394.639-.104 1.212-.274 1.473-.86.156-.352.247-.6.469-1.069.3.86.508 1.2 1.381 1.343.027 0 .104.234.118.286.26.665 1.055 1.095 1.89.717.872-.391 1.798-.378 2.723-.417 2.19-.091 4.066.586 5.747 2.02.912.782 1.616 1.642 2.293 2.58a7.06 7.06 0 0 1 1.304 3.453c.065.613.117.99-.535 1.251-.547.209-.742.821-.651 1.304.09.456.417.964 1.081.964.43 0 .873.027 1.304.091 1.055.17 1.954-.352 2.189-1.342.09-.391.273-.534.69-.43.99.234 1.278-.078 1.46-.99.078-.392-.078-.796-.195-1.356"/>
  <path d="M106.585 50.354c-.52-.756-.977-1.42-1.524-2.163-.365-.508-.691-.9-1.03-1.46-.6-.99-.951-1.25-1.303-2.854-.17-.782-.104-1.603.039-2.345.13-.665.443-.939.886-.926.365.014.574.196.808.483.157.208.404.547.313 1.12-.104.496.86 1.069.886 2.137.273-1.915-.235-3.101-1.251-3.974.208-.027.456-.04.651.013 1.121.391 1.16 1.981 1.095 2.997-.039.939-.117 2.125-.052 2.555.052.43.17 1.616 1.394 2.384-.664-1.003-.964-1.329-.86-2.919.091-1.446.052-1.837-.026-2.54-.091-1.043-.352-1.486-.47-1.747a1.957 1.957 0 0 0-.364-.482c.039 0 .482.247.755.795.287.56.509 1.068.509 1.902v1.812c-.065 1.199.17 1.811.69 2.54.43.613 1.343 1.226 1.655 1.395-1.316-1.707-1.733-2.437-1.811-3.623-.052-.873.065-1.668-.065-2.489-.248-1.642-.834-3.036-2.216-3.753-.208-.104-.638-.208-1.25-.273.325-.104 1.394-.287 2.54.651.535.443.782 1.212 1.186 1.616 1.004 1.004 1.2 1.486 1.655 2.333-.039-.052-.742-2.58-1.954-3.884-.665-.73-1.799-1.068-1.825-1.068-1.85-.56-3.57.756-4.013 2.476a7.948 7.948 0 0 0-.222 2.137c.04.938.26 1.681.782 2.737.717 1.433 1.186 2.033 2.15 3.362.69.951 1.382 1.837 2.007 2.867.378.651.69 1.107.847 2.085.235 1.525-.678 1.876-1.642 1.694-1.55-.3-2.333-1.46-3.101-2.672-.704-1.081-1.304-2.228-1.916-3.362-.117-.195-.235-.417-.352-.612-.117-.196-1.72-2.49-2.828-4.613-2.945 1.12-8.014 3.075-7.91 3.18 1.082 1.146 1.929 1.198 2.88 2.137.626.625.86.69 1.473 1.446.17.209.456.47.6.704.338.534.546.925.794 1.485.065.157.3.756-.027.73-.208 0-.378-.417-.443-.625-.221-.613-.404-.952-.964-1.173-.652-.248-1.42-.47-2.072-.69-1.225-.418-2.411-.47-3.688-.04-.456.196-.847.665-.9.73-.86.99-.846 2.554.17 3.662.756.808 1.382 1.212 2.007 2.137.339.495.613 1.33.717 2.228-.652.118-1.147.248-1.655.287-.417.027-.86 0-1.277-.104-.965-.287-1.773.013-2.411.651-.547.56-.938 1.277-1.408 1.955 1.447.352 2.398-.027 2.75-.26.69-.483 1.46-.691 2.255-.795 1.212-.183 2.463-.248 3.7-.391.613-.065.652-.626.574-1.03-.078-.404-.417-1.25-.521-1.876-.04-.313-.078-.678.052-.926.208-.417.82-.443 1.355-.17.313.17.625.3.99.444.378.156.691.091.808-.456.274-1.173.248-1.577.886-2.893.118-.222.3-1.12.391-1.538.066-.247.365-.247.365.014-.052.482-.09.938-.221 1.407-.144.482-.404.9-.534 1.381-.378 1.486-.404 2.28-.496 3.44-.104 1.173.287 2.346.952 3.206.768.978 1.811 1.747 3.088 2.112.99.273 1.929.677 2.307 1.746.443 1.303 1.016 2.62.925 4-.027.313-.039.444-.104.678.404.482.782.938 1.03 1.525a.422.422 0 0 0 .103-.052c.274-.118.56-.378.652-.639.143-.404.156-.86.117-1.29-.13-1.055-.338-2.11-.482-3.166-.078-.6-.026-1.212-.09-1.812-.092-.717-.066-1.498-.965-1.798-.3-.104-.574-.287-.847-.456-.952-.652-1.316-2.737-.548-3.65.717-.872.887-1.94 1.238-2.957.183-.587.43-.782.9-.391.69.573 2.11.716 2.997.508.717-.17 1.29-.547 1.629-1.381.417-.978.09-2.385-.495-3.493-.496-.925-.782-1.225-1.395-2.098"/>
  <path d="M107.901 42.248c.079.391.209.834.248 1.577.013.521-.065 1.33.078 1.812.287 1.055 1.16 2.059 1.16 2.059s-.704-1.46-.43-2.685c.17-.704.027-1.055-.183-1.355-.143-.235-.351-.665-.886-1.408"/>
  <path fill-rule="evenodd" d="M83.194 46.927c-.456 0-1.082 0-.548-.965-1.055-.052-1.68.34-2.306.222-.222-.052-.352-.078-.43-.365-.04-.117.039-.365.052-.495-.209.104-.404.13-.509.052-.286-.222-.104-.378 0-.521.144-.196.287-.365.457-.509-.404-.286-.834-.599-1.29-.847-.261.248-.522.522-.796.756-.377.326-.794.639-1.25.821-.17.065-.326 0-.535-.208-.156-.157-.352-.365-.638-.404-.548 1.199-1.63 1.46-2.177.6-.326.103-.664.338-.99.82-.235.339-.534.548-.847.56-.248 0-.352-.026-.443-.195-.222.117-.535.443-.665.613-.3.43-.508.912-.352 1.537a2.55 2.55 0 0 1-.013 1.29c-.117.391-.274.782-.639 1.082.027.274.04.547.079.821.104-.078.221-.156.338-.222.3-.169 1.16-.456 1.747-.351.716.104 1.407.26 1.863.977.339-.378.482-.534.378-.977.69.182 1.147.73 1.499 1.03.052-.157.104-.34.26-.496.144-.183.352-.235.534-.26.47-.053.639.09 1.069.468.652-.73.925-.781 2.372-.195-.065-.626.312-.938 1.016-.769.704.17.926-.13 1.434-.69.195-.209.664-.326.886-.509-.534-.482.156-.834.326-.899.69-.3 1.225-.612 1.642-1.342.17-.3.495-.391.638-.508-1.068-.248-1.42.065-2.15.09"/>
  <path d="M97.685 40.072c.404-.378 1.564-1.238 2.306-1.42l-.495-.873c0 .456-.247.808-.443.964-.117-.287-.156-.613-.039-.9-.208.196-.625.444-.912.561.312.078.534.183.717.456-.352.157-.99.391-1.447-.17-.286-.364-.326-.846.027-1.16.117-.09.3-.156.469 0 .17.17-.027.457-.183.522.34.065 1.043-.378.756-.756-.234-.286-.86-.182-1.173.027.196-.378.3-1.003-.013-1.199-.39-.273-.782.47-.769.73.183-.196.47-.287.587-.196.09.092.104.352-.078.535-.3.326-.9.247-1.265-.04-.403-.312-.52-.86-.13-1.511.209.209.495.678.482.99.235-.404.391-.612.73-.938-.378.091-.795-.117-1.03-.26.261-.196.613-.352 1.03-.3l-1.264-.964c.17.39.052.73-.078 1.03-.196-.196-.482-.535-.495-.913a3.702 3.702 0 0 1-.73.938c.3-.078.808.065 1.068.209-.52.547-1.12.469-1.485.234-.391-.247-.769-.73-.521-1.186.13-.221.469-.17.573-.09.104.077.156.325 0 .56.3-.209.782-.652.417-.965-.274-.234-.743-.013-1.043.274.105-.352-.026-.977-.39-1.069-.457-.13-.626.639-.47.939.014-.157.248-.483.443-.352.183.117.13.39.052.534-.221.404-.73.443-1.146.222-.665-.365-.704-.99-.391-1.343.312.091.469.287.625.587.052-.326.183-.77.313-1.03-.248.183-.587.235-.9.196.105-.235.379-.56.822-.691l-.965-.248c.027.743-.573 2.073-.769 2.594 3.688 2.124 4.092 2.41 7.18 5.512"/>
  <path d="M94.284 32.553c-.34.208-.574.286-.717.534-.13.235-.34 1.004-.391 1.303.273-.208.873-.755 1.003-.977.13-.222.052-.678.118-.86M98.727 35.954c-.13.365-.17.626-.378.808-.208.183-.925.547-1.199.665.144-.326.548-1.017.743-1.2.196-.169.665-.182.834-.286"/>
  <path fill-rule="evenodd" d="M52.804 29.699c.6.091 1.303.248 1.903.3.847.078 1.59.09 2.45.117 1.016-.13 1.563 1.251.899 2.111-.495.652-1.16 1.46-2.098 1.056-.17-.052-.3-.274-.613-.091-.521.443-.9.326-1.264-.065-.143-.079-.352-.17-.495-.118-.756.3-1.108-.052-1.473-.39-.586-.548-.808-1.148-.795-1.838.027-.756.404-1.03 1.473-1.108M54.029 34.925c-.47.078-.586.208-.808.52-.078.092-.352.028-.534-.026-.209-.065-.522-.13-.548-.365.027-.716.952-1.46 1.616-1.238.34.118.365.391.378.6 0 .195 0 .534-.117.508M50.771 31.445c-1.186 0-1.486-.247-1.616-.925a3.076 3.076 0 0 1-.039-.873c1.212.052 1.564.208 1.473.886-.052.339-.052.456.17.912M54.98 36.515c-.078.495-.495.755-.886.703-.286-.039-.717-.456-.717-.717-.026-.443.3-.834.873-.794.509.026.848.195.743.808M58.63 32.344c1.055 0 1.315-.234 1.433-.86.052-.208.052-.495.026-.82-1.081.051-1.199.195-1.225.846-.026.587-.078.613-.234.834M49.025 38.13c-1.082-.312-1.408-.17-1.694.417-.104.196-.183.457-.26.782 1.12.26 1.29.157 1.485-.456.182-.56.3-.534.469-.743M59.229 38.756c.95-.274 1.238-.13 1.498.365.091.182.157.404.222.704-.978.221-1.121.117-1.303-.404-.105-.326-.235-.548-.404-.665M54.29 41.623c.742.704.768 1.016.469 1.525a3.64 3.64 0 0 1-.509.56c-.703-.743-.703-.925-.312-1.368.352-.404.26-.404.365-.704M52.79 36.345c-.077.443 0 .6.222.912.065.091-.078.313-.195.47-.13.169-.274.43-.495.39-.639-.247-1.017-1.329-.6-1.863.209-.287.456-.209.652-.157.182.052.482.17.417.26M55.528 35.759c-.13-.43-.261-.548-.587-.73-.091-.052-.065-.313-.027-.508.027-.196.066-.496.287-.548.678-.065 1.473.756 1.342 1.408-.078.339-.326.404-.534.417-.183.026-.508.052-.482-.052M53.755 37.792c.417.17.587.13.926 0 .104-.04.3.156.43.3.13.156.338.364.26.56-.378.573-1.525.703-1.955.182-.221-.26-.104-.495 0-.678.091-.156.274-.43.34-.351M55.397 37.322c.313-.273.326-.43.34-.768 0-.104.234-.183.403-.235.183-.052.43-.143.56.027.326.547 0 1.55-.599 1.694-.3.065-.456-.13-.56-.274-.104-.156-.26-.417-.17-.43M47.683 35.837c.247-.417.573-.912.781-1.342.3-.626.509-1.186.77-1.812.156-.82 1.498-.808 2.071-.065.443.587.965 1.33.352 1.916-.09.117-.312.143-.234.43.26.534.052.782-.378.938-.118.078-.248.222-.248.339.065.665-.339.834-.73 1.003-.638.287-1.225.26-1.811.04-.665-.248-.795-.626-.573-1.447M59.789 38.222c-.6.065-1.186-.065-1.707-.483-.326-.26-.665-.508-.443-1.133.026-.104-.065-.274-.157-.378-.378-.26-.521-.535-.13-.978.143-.26-.078-.338-.13-.482-.43-.703.247-1.29.807-1.733.73-.573 2.02-.247 1.968.573.091.665.144 1.238.287 1.916.09.456.286 1.004.404 1.473.026.834-.209 1.16-.9 1.238M55.215 42.105a2.033 2.033 0 0 1-.365-1.538c.078-.365.117-.73.69-.82.105-.027.196-.157.248-.274.04-.391.196-.639.717-.535.26 0 .234-.195.312-.3.365-.625 1.121-.351 1.695-.103.768.312 1.068 1.446.417 1.76-.483.35-.9.638-1.369 1.029-.326.26-.664.651-.977.938-.639.378-1.004.339-1.355-.157M49.077 39.199c.339-.47.782-.808 1.42-.912.391-.065.782-.17 1.082.378.065.09.235.143.365.143.417-.104.704-.039.795.521.09.274.286.17.404.209.769.143.769 1.003.743 1.668-.053.9-1.082 1.603-1.63 1.056-.534-.365-.977-.678-1.537-1.004-.378-.234-.9-.443-1.303-.638-.613-.522-.704-.887-.326-1.434M96.277 22.558c-.117.156-.286.208-.469.09-.208-.13-.065-.299.065-.455.248-.287.69-.443 1.408-.235.873.235-.456-.104-1.004.6m-4.782 2.332c-.118-.195-.782.6-.691.3.26-.626.417-1.147.678-1.603.117-.222.273-.3.547-.43.208 0-.065.56.091.664.417.326.886.704 1.381 1.095-.52.339-1.694.313-2.02-.027m12.341 4.496c-.026-.651-.703-1.16-1.446-1.238-.17-.026-.365 0-.534-.065-.157-.052-.34-.17-.287-.469.43-.039.912-.039 1.251 0 .43.052.586.183 1.03.378-.131-.651-.848-1.173-1.577-1.12-.157 0-.326.026-.496.026-.182 0-.52-.027-.547-.43.47-.091.925-.182 1.29-.182.443 0 .652.065 1.121.221-.209-.625-.912-1.03-1.629-.912-.17.039-.339.052-.534.091-.183.039-.47.104-.56-.235.508-.156.86-.312 1.237-.377.43-.052.73 0 1.2.078-.274-.587-1.004-.926-1.708-.704-.156.052-.326.091-.521.156-.17.052-.443.157-.56-.208.456-.235.703-.365 1.042-.482.417-.13.756-.183 1.212-.052-.352-.548-1.095-.782-1.772-.47-.157.066-.34.157-.535.235-.156.065-.364.078-.495-.156v-.014c.287-.208.574-.404.834-.508.404-.17.743-.234 1.238-.274-.43-.495-1.225-.482-1.89-.104-.064.04-.156.079-.26.144-.17.091-.443.156-.6-.104.613-.535 1.395-.69 1.747-.678 0-.039-.56-.339-1.017-.117a.511.511 0 0 0-.195-.43c0 .378-.521.742-.847.99-.6.443-1.225.847-2.02 1.003-.352.066-.547 0-.639-.117-.13-.156-.026-.378.287-.378.652-.027 1.043-.495 1.512-.834.182-.13.312-.286.612-.3-1.59-.26-2.515-.755-3.518.483-.196-.548.039-.847.351-1.069.313-.221.704-.339 1.043-.56.521-.34.69-1.082.39-1.512-.286.248-.156.443-.481.99-.287.391-.508.43-.678.365.04-.17.26-.547.339-.755.104-.34.117-.313.17-.691 0 0 .051-.678-.196-.73-.183.222-.222.274-.378.665-.143.378-.534 1.446-.964 1.264.117-.365.143-.404.247-.756.091-.26.118-.508.157-.847.013-.17.026-.508-.196-.639-.104.104-.39.613-.456.743-.208.56-.273.665-.508 1.342-1.616-1.042-3.102-1.941-4.522-2.932-1.473-1.016-2.893-2.085-4.535-2.815.638.717 1.381 1.238 2.02 1.838.339.3.56.443.769.456.417.039.547.182.664.274.248.169-.143.169-.404.182.248.209.378.404.6.404.834 0 .795.117.886.182.456.34-.274.209-.495.235.17.248.469.43.638.456.3.052.678-.065.847.13.391.287-.09.21-.508.235.3.287.495.547.9.534.481 0 .599-.117.924.144.535.378-.39.312-.847.326.352.352.522.482.782.482.378 0 .913-.117 1.147.091.3.274-.221.3-.938.3.156.43.13.768-.482 1.25-.47.366-.756.835-.847 1.356-.183 1.147-.834 2.072-1.577 2.802-.69.677-1.147 1.186-1.108 2.267 0 .287.144.782.339.873.287.104.704-.026 1.042-.143.417-.13.782-.339 1.186-.521.078-.052.196-.027.157.17-.091.494-.183.963-.248 1.459 0 .065-.026.26-.039.338 0 .027.078.066.13.079.522.234 1.408-.3 1.5-.939.09-.638 1.055-1.668 1.615-1.707 1.251-.091 2.28-.6 2.998-1.668.078-.117.104-.26.143-.39.027-.157.17-.157.17.051-.014.196-.014.417-.053.613-.156.847-.808 1.25-1.446 1.668-.222.143-.534.39-.56.612-.092.743-.313 1.368-.808 1.968-.34.39-.9 1.003-1.29 1.225.195-.027-.066.756-.066.756.3-.183.56-.17.717.156-.039-.586 1.368-1.016 1.33-.964-.105.482.077 1.368-.157 1.642.3 0 .43 0 .521.43.065-.326.26-.574.508-.391.717.443 1.317 1.016 1.825 1.407.143.118.078.43-.3.483.626.221 1.994-.105 1.994-.105s.13.795-.091.99c.404.313.951.574 1.199.86.3.34.547.64.664 1.135.313-.56-.078-1.382-.651-1.838-.26-.195-.521-.404-.378-.899.365.26.678.495.9.743.299.339.56.664.664 1.068.326-.56-.078-1.316-.652-1.772-.26-.195-.638-.39-.482-.899 0-.013.013-.039.027-.052.352.26.716.495.925.743.3.326.573.534.69 1.03.34-.574-.09-1.265-.677-1.72-.26-.21-.612-.444-.443-.952.352.221.69.43.925.651.3.326.547.56.704.99.286-.586-.118-1.276-.73-1.693a3.383 3.383 0 0 1-.404-.352c-.052-.04-.3-.17-.156-.613.365.235.73.43.964.652.313.3.586.6.743 1.016.273-.586-.183-1.303-.795-1.707-.13-.09-.287-.156-.404-.273-.157-.118-.417-.209-.339-.691.391.182.795.339 1.043.534.351.26.69.496.886.873.208-.625-.352-1.225-1.004-1.563-.156-.078-.326-.13-.482-.235-.143-.117-.286-.221-.286-.651a6.03 6.03 0 0 1 1.081.417c.391.195.743.404 1.017.755.09-.651-.535-1.212-1.238-1.42a1.71 1.71 0 0 1-.47-.222c-.143-.065-.325-.326-.312-.547.39.065.886.17 1.173.287.404.156.664.312 1.03.612.038-.651-.6-1.095-1.317-1.25-.13-.028-.287-.04-.43-.079-.13-.027-.417-.248-.378-.573.027-.222.027-.222 0 0 .417.026.808.026 1.12.117.418.13.692.248 1.082.521"/>
  <path d="M98.128 20.994c.247.013.521-.157.6-.339.09-.182.077-.586-.014-.665-.027-.026-.143-.039-.248.118-.169.273-.104.495-.13.625-.027.118-.209.26-.209.26M99.496 20.525c.065.052.065.286-.052.39-.117.118-.26.196-.521.13.26-.13.17-.286.339-.416 0 0 .17-.157.234-.104M97.203 20.877c.286 0 .638-.196.73-.43.103-.248.051-.795-.027-.887-.027-.013-.157-.052-.287.157-.221.365-.13.664-.17.82-.026.157-.247.34-.247.34M63.125 70.41h.027v.026h-.027zm0 0"/>
  <path fill-rule="evenodd" d="M63.138 70.423s0 .013-.027.026h.014M55.11 88.81c.326.144.77.365 1.095.495l.587.235c2.215.9 4.522 1.473 6.867 1.824 2.28.352 4.6.417 6.894.248 2.124-.17 3.91-.73 5.916-1.407.913-.326 1.59-.626 2.385-1.082.391-.196.756-.456 1.173-.69.117.351.156.625-.235.833a8.432 8.432 0 0 1-1.068.574c-1.03.482-1.994.912-3.154 1.238-1.042.312-1.772.52-2.62.664a19.91 19.91 0 0 1-3.049.326c-1.824.078-3.61.04-5.395-.156-1.68-.209-3.258-.548-4.926-.978-.69-.182-1.694-.534-2.371-.782-.639-.26-.965-.443-1.603-.716-.196-.104-.274-.144-.417-.287-.091-.104-.13-.286-.078-.365M82.073 90.66c-.274.17-.587.405-.86.574-1.264.795-2.672 1.29-4.08 1.798-.716.261-1.446.47-2.188.678-1.499.404-2.229.534-4.3.743-.73.065-1.969-.104-3.167-.391 2.645.039 4.847-.222 6.242-.547 1.928-.443 3.818-1.03 5.59-1.942.587-.313 1.2-.69 1.707-1.095.313-.312.86-.052 1.043.183M54.667 91.703c-.86-.586-1.46-1.524-1.511-1.577.573.17 1.25.639 1.928 1.134.756.443 1.056.613 1.968.938a34.42 34.42 0 0 0 2.998.9c1.55.417 1.472.351 3.023.703.704.144 1.68.235 3.05.287-1.851.339-3.233.143-4.549-.091-.925-.17-2.45-.391-3.596-.782-1.942-.652-2.463-.912-3.31-1.499"/>
  <path fill-rule="evenodd" d="M86.256 88.289c-2.84 3.883-5.838 5.017-8.705 5.747-1.798.469-4.105.704-4.887.743 2.124-.404 4.092-.978 5.604-1.616 1.524-.639 2.45-1.043 3.766-1.981.09-.091.273-.222.482-.13.652.273 2.906-1.825 3.74-2.763M63.49 95.352c-.43-.052-1.733-.508-1.916-.756 1.85.404 3.532.404 5.252.456.221.014 1.056-.026 1.277-.039.639-.026 1.564.352 2.111.391-.56.144-2.71.274-3.401.222 0 .039-1.838-.065-3.323-.26M79.662 87.885a36.393 36.393 0 0 1-3.597 1.733c-.182.078-.482.17-.677.13-.248-.078-.326-.286-.26-.508.325-.104.56-.195.846-.312 1.225-.43 1.916-.77 3.115-1.252.117-.052.612-.351.886-.495.013.482-.196.652-.313.704M79.74 86.673c-.17.104-.782.404-.977.495-.912.43-1.03.456-1.929.873-.326.144-1.577.6-1.433-.026 1.577-.665 3.101-1.238 4.626-1.89.027.196 0 .417-.287.547M83.441 82.711c1.342-.286 3.35-.351 4.666-.234 0 .47 0 .678-.014 1.068-1.407-.208-3.297-.403-4.665-.599-.13-.027-.091-.221.027-.234M85.917 85.057c.952.091 1.577 0 1.264.808-.052.13-.221.547-.26.69-.222.652-.652.613-1.238.561.065-.69.17-1.381.234-2.059M79.063 85.435c0 .3-.47.495-1.147.808-.456.196-1.004.47-1.408.534-.273.027-.56.104-.677-.195a41.212 41.212 0 0 0 3.088-1.29c.144-.091.144.013.144.13M81.486 87.39c1.564.221 2.972.43 4.327.6-.027.169-.065.299-.339.26-.73-.104-1.707-.222-2.437-.326-.39-.052-.873-.104-1.264-.17-.247-.039-.286-.17-.286-.365M82.725 83.61c.26-.038.599-.064.899-.038 1.055.156 3.153.326 4.196.508a2.674 2.674 0 0 1-.17.39 732.19 732.19 0 0 0-4.9-.677c-.156-.027-.143-.17-.026-.195M84.744 85.787c-.247-.248-.482-.508.065-.86-.873-.13-1.537-.235-2.267-.339-.547-.091-.821-.013-.886.521-.065.456-.078.926-.144 1.434.248.039.483.065.626.09 0-.507-.027-.95 0-1.38.027-.222-.014-.56.378-.587.612.196.664.69.625 1.225-.013.183 0 .352.027.521.027.104.182.326.274.34.39.077.651.13 1.212.208-.678-.522-.274-.873.078-1.173M65.406 89.735c-1.056-.195-2.112-.377-3.245-.599 0-.43.99-.222 1.72-.091.834.156 1.525.312 1.525.678M60.102 89.853c-.939-.183-1.89-.548-2.71-.834 0-.665 2.736.182 2.71.834M62.734 90.048c.886.157 1.707.3 2.515.43 0 .391-.925.274-1.446.183-.509-.078-1.212-.274-1.069-.613M59.71 88.107c-.351.39-.82.286-1.29.221-.09-.013-.651-.17-.599-.482.027-.118.235-.144.352-.118.26.04.495.157.743.222.247.052.495.104.795.156"/>
  <path fill-rule="evenodd" d="M84.406 89.318c-.509-.078-.86-.117-1.369-.195-.143-.027-.143-.117-.143-.339.508.052 1.16.196 1.668.248 0 .195-.078.286-.157.286"/>
  <path d="M86.034 78.463c-.625-.221-1.498.3-2.202.925-.73.626-.912.352-1.98-.065-1.095-.417-2.36 1.264-2.36 1.264s-.325-2.736.17-3.961c.534-.639 2.333-1.733 2.528-.443.17 1.055 1.121 1.277 1.538 1.316 1.095.143 2.333-1.004 2.333-1.004s.039 1.434 0 1.968zm-.026 2.137c0 .17-.04.496-.222.496H83.91c-.522 0-1.134.208-1.395.325-.573.274-1.03.574-1.89 1.017-.325.156-.416.195-.729.339-.13.052-.3.156-.482.221.625-1.277 1.577-2.554 2.476-2.671.39-.052.834.378 1.212.365.664-.04 1.212-.535 1.616-.9.625-.573 1.238-.508 1.29-.377.052.117 0 .56.013 1.185zm-8.353 3.44c-.587.222-.73.235-.848-.038-.69-1.551-1.746-3.988-2.384-5.539-.313-.743.17-.808.339-.534.495.86 3.362 4.991 3.531 5.213.378.495-.234.73-.651.886zm-1.252.327c-.09.208-.534.338-.69.404-.339.104-.378-.183-.613-1.017-.39-1.407-.73-2.828-1.094-4.248-.078-.326-.118-.652-.183-.99-.078-.313.144-.352.248-.105.208.352 2.098 4.991 2.241 5.382.091.209.157.43.091.56zm-2.072.86c-.117.039-.273 0-.273-.456a535.72 535.72 0 0 1-.157-4.483c0-.052.313 1.212.417 1.603.144.547.665 2.476.704 2.88.014.26-.286.326-.69.456m-.626-9.526c-.013-.183.13-.43.313-.665.43-.573.899-1.108 1.433-1.707.065-.065.117-.027.144.013.338.756.651 1.395.925 2.072.208.495-.078.9-.587.886-.456 0-.912-.013-1.368-.065-.508-.039-.86-.221-.873-.534zm-.274-6.53c0-.117.04-.65.196-.26.078.118 1.173 2.659 1.55 3.545.131.326.105.56-.169.886-.39.456-.73.821-1.094 1.225-.17.195-.248.104-.248-.144-.039-.547-.182-4.287-.234-5.264zm-.325 20.8c-.222.026-.378 0-.43-.366-.066-.3.026-.495.377-.495.235-.065.3.209.34.443.026.235-.131.417-.287.417m-1.408-1.915c-.925.13-1.381-.027-1.668-.6.99-.208 1.968-.417 3.01-.612 0 .6-.534 1.094-1.342 1.225zm-1.85-1.942c-.222-.938-2.098-7.936-2.098-8.497 0-.182.182-.417.56-.625.287-.196.378.339.43.495.443 1.355.86 2.724 1.277 4.079.222.69.391 1.381.587 2.072.078.208.065.365-.014.625-.052.17-.404 1.473-.508 1.72-.078.17-.222.209-.222.131zm-.639.951c-.339.027-.782-.027-1.12-.027-.261 0-.34-.3-.34-.56-.038-.404-.169-3.31-.182-4.34 0-.847-.027-1.615-.078-2.462-.013-.183-.117-1.2.027-1.2.143-.038.365.952.39 1.043.248.965.47 1.942.704 2.92.34 1.302.665 2.632.965 3.96.104.496.117.626-.365.665m-1.916-11.585c0-.977-.078-2.632-.143-3.844-.052-1.394.026-1.212.247-.456.235.704.795 2.815.978 3.453.078.248.26.73.078.795-.274.104-.639.183-.886.274-.17.078-.26 0-.274-.235zm-.312-8.51c-.027-.586-.065-1.133-.078-1.72 0-.638-.014-.807.117-.573.534.847.99 1.577 1.433 2.333.235.378-.13.365-.273.365-.26.039-.574.09-.782.09-.378 0-.404-.038-.43-.507zm.768 3.324c.13.182 1.864 2.736 2.646 4.144.117.221-.118.378-.3.443-.3.117-.352.091-.664.208-.417.157-.613-.182-.743-.625-.13-.534-1.173-3.883-1.134-4.092.027-.234.104-.195.196-.065zm2.985 4.652c.273-.195.39-.104.39-.417 0-.208-.325-.052-.169-.286l.339-.756c.404-.77.86-1.694 1.12-2.294.105-.234.118-.13.092.118-.013.117-.717 4.34-.782 4.495-.078.144-.13.483-.912.665-.287.065-.652.196-.938.274-.118.026-.04-.065-.04-.065s.704-1.59.9-1.72zm2.45-5.03c.013.339.065 4.457.065 5.186 0 .326-.391.613-.639.835-.208.182-.664.039-.586-.248l1.068-6.086c.027-.221.091-.09.091.3zm-.417 8.353c.104-.404.3-.286.221.091-.117.639-1.29 7.116-1.525 8.067-.09.352-.612.495-1.094.534-.118.013-.157-.052-.104-.221.703-2.411 1.85-6.23 2.502-8.484zm-3.284-1.225c.104-.039.378-.026.456.014.664.208 1.225.351 1.85.638.248.117.626.196.522.73-.287 1.29-.704 2.541-1.108 3.805-.027.117-.118.404-.183.678-.052.156-.156.417-.312-.091-.26-.913-1.59-5.265-1.668-5.46-.17-.47-.104-.73.43-1.004.17-.091.117-.065.286-.157 0 0-.182.457-.326.639-.039.039-.052.065-.078.065-.312.078-.143.248.118.17zm3.831 6.972c0 .56.027 1.095.027 1.655 0 .639-.13.717-.535.821-.3.078-.69.235-.886.118-.13-.079-.104-.313-.065-.535.17-1.003 1.12-6.15 1.251-6.933.027-.182.13-.52.144-.273 0 .651.065 4.079.052 5.147zm-6.529 2.567c0 .274-.078.417-.286.417-.066 0-1.134 0-1.317-.182-.182-.196-.143-.404-.09-.756.038-.221.09-.47.169-.73.312-1.055 1.173-4.535 1.368-5.369.052-.195.118-.156.078.235.027.417 0 .886.014 1.29 0 1.277 0 2.515.052 3.78.013.442.013.885 0 1.315zm-2.215-.117c-.065.182-.104.312-.26.312-.235.014-.717 0-.783-.143-.065-.182 0-.339.079-.56.169-.482 2.215-7.415 2.371-7.858.052-.144.104-.743.47-.73.495 0 .273.43.273.573-.013.404-.248 1.251-.339 1.63-.352 1.42-.704 2.827-1.068 4.248-.144.56-.3 1.094-.457 1.641-.078.3-.208.665-.286.887m-1.55.195c-.105 0-.183 0-.366-.078-.104-.027-.143-.182-.17-.3-.351-1.42-1.16-4.587-1.315-5.303-.092-.417-.248-.704.195-.9a24.001 24.001 0 0 0 1.929-.95c.117-.066.326-.21.339-.3.013-.274-.3-.092-.378-.196a20.69 20.69 0 0 0-.587-1.03c-.052-.104-.052-.156.065-.156a28.165 28.165 0 0 1 2.568 0c.52.027.469.443.39.782-.234.977-1.98 6.855-2.15 7.35-.117.339-.339 1.094-.521 1.081m-.925-.078c-.235-.013-.47-.026-.56-.13-.014-.027-.04-.052-.053-.104-.026-.065-.039-.157-.052-.222-.065-.365-.534-4.196-.664-5.278-.027-.143.104-.195.156-.039.196.6 1.251 5.005 1.356 5.63.013.13-.092.13-.17.118zm-1.069-.156c-.143-.014-.26-.014-.352-.052-.143-.04-.312-.065-.378-.196-.052-.09-.052-.612-.052-.73-.039-1.277-.117-2.488-.182-3.753 0-.117-.052-.56.039-.73.065-.143.156-.13.208-.13.326 0 .326.665.352.821.118.535.509 4.366.509 4.535 0 .209.013.26-.144.235m-1.108-7.963c-.026-.403.027-.586.196-.677.065-.027.156-.052.273-.078.066 0 .209.065.248.17.052.156.104.468.104.638 0 .273-.027.352-.352.43-.208.052-.417.247-.469-.482m-.17-3.44c0-.053-.038-.887-.038-.991 0-.222.26-.104.3.039.064.182.403 2.398.481 3.101.014.104.065.261-.143.235-.078 0-.157.027-.313.027-.26 0-.208-.483-.221-.886a74.564 74.564 0 0 0-.065-1.538zm-.22-4.848c-.014-.56-.04-1.29-.066-1.85v-.274c0-.274.065-.105.104-.053.209.261.639.978.86 1.317.248.417.47.703.678 1.146.13.274.013.43-.274.443-.09 0-.17.027-.26.027-.99.065-1.017.235-1.056-.769zm-.183 15.207c0 .235 0 .574-.196.56-.104 0-.365-.09-.612-.195-.13-.09-.183-.143-.13-.286.26-.678.416-1.277.625-1.916.052-.143.143-.482.17-.534.13-.248.143.156.143.43 0 .482.052 1.433.026 1.942zm-1.486 1.42c-.39-.195-.43-.56-.17-.911.444.156.887.3 1.343.469-.235.573-.652.743-1.173.443m-.404-1.616c-.065-.209.17-.56.313-.847h.013l.495-1.017c.078-.104.378-.781.47-.977.051-.091.169-.417.195-.482.26-.639.312.104.26.3-.026.078-.664 2.358-.834 2.788-.065.196-.208.6-.378.548-.17-.053-.495-.144-.547-.3zm-1.134-.104c-.234-.078.014-.326.065-.443.118-.3.287-.626.43-.886l1.147-2.411c.144-.209.209-.47.508-.404.443.104.443.352.313.756-.144.456-.404 1.003-.626 1.485l-.638 1.251c-.078.144-.17.287-.248.404-.208.56-.743.3-.938.235zm-1.394-.391c-.209-.078-.43-.17-.69-.287-.235-.104-.274-.456-.287-.651-.066-.9-.066-1.316-.157-2.242-.039-.312-.182-.43-.43-.43-1.082 0-1.863.027-2.932 0H48.36c-.235 0 .56-.534.639-.573 1.055-.613 3.844-2.137 4.639-2.646.86-.56 1.955-1.524 2.789-2.293.781-.717 1.277-1.29 1.68-1.694.313-.417.444-.04.379.17-.17.43-.144.416-.261.677-.235.47-.482.938-.69 1.407-.444.965-1.851 3.063-1.916 3.193-.052.13-.639-.013-.287.391.104.117.769.156.938.222.574.156 1.538.26 1.59.651.027.287-.234.9-.234.9s-1.212 2.397-1.642 3.114c-.183.3-.248.352-1.069.091zm-2.124-.769c-.417-.143-.834-.521-1.616-1.16-.482-.404-1.342-1.342-.938-1.355 1.264-.027 1.837.027 2.606.027.651 0 .612.195.664.586.065.443.027 1.095.052 1.538.04.443-.338.56-.755.378zm.182 3.805c-.17.078-.404-.26-.56-.456-.313-.352-.404-.756-.613-1.407-.352-1.069-.625-2.333.027-1.929.417.248.404.235.704.456.312.274.326.834.352.952.143.716.156 1.055.182 1.759.013.365.078.534-.078.6zm-2.762-2.28c-.639-.547-2.033-1.837-2.945-2.671-.157-.157-.978-.887-.9-1.2.105-.247.43-.156 1.056-.169h1.095c.86 0 1.12.456 1.329.704.039.039.052.078.078.104.3.352.521.704.743 1.42.195.613 1.107 3.141-.456 1.812m8.105-14.387c-.534.052-.52-.287-.443-.482.287-.782.639-1.551.965-2.32.065-.195.17-.221.17-.027 0 .496.026 2.099.012 2.216-.013.651-.247.56-.703.612m.82 3.597c.027.404.014 1.46.014 1.76v.82c0 .091.013.26-.104.287-.144.052-.378-.052-.47-.078-.351-.091-.573-.13-.898-.3-.326-.17-.052-.495.013-.638.273-.704.482-1.186.808-1.877.078-.156.234-.69.43-.573.182.143.17.443.182.6zm-.794 4.626c-.13.157-.26.196-.365.196-.73.026-1.264.052-1.59 0-.352-.065-.43-.196-.17-.535.079-.104.326-.456.457-.677.143-.235.273-.495.482-.77.052-.064.065-.143.13-.156.144-.026.313.065.417.104.378.13.626.17 1.2.404.299.105-.014.496-.17.782-.157.26-.274.522-.391.652m.782-.027c-.183.065-.326.144-.391.091-.104-.078.026-.234.13-.404.118-.182.04-.052.157-.247.09-.144.182-.052.182.117 0 .17.065.404-.078.443m3.505-1.042c.222.339.34.443-.09.456-.3 0-.86 0-1.16.039-.326.027-.391-.183-.444-.56 0-.079-.482-3.31-.547-3.988-.065-.287.157-.274.26 0 .353.964 1.708 3.61 1.982 4.053m-1.304-5.93c.391-.286.56.027.782.287.521.638 1.056 1.277 1.551 1.916.091.117.143.351.091.482a40.6 40.6 0 0 1-.951 1.837c-.157.274-.391.183-.56-.117-.392-.717-1.421-2.92-1.5-3.245-.026-.17-.038-.248.04-.391.09-.17.339-.6.56-.769zm1.916-1.055c.274-.104.052-.196-.404-.222-.196 0-.052-.078.052-.17a206.07 206.07 0 0 0 1.55-1.29c.183-.156.757-.599 1.03-.52.248.077.144.273.118.403-.014.13-1.16 3.897-1.46 4.614-.078.195-.195.169-.247.104-.56-.678-1.095-1.251-1.538-2.06-.196-.351.247-.599.925-.86zm1.968-3.428c.39-.95.769-1.863 1.147-2.775.169-.496.247-.196.26-.014.04.483.027 2.216.027 2.36 0 .169-.144.312-.313.377-.273.13-.6.287-1.003.365-.13.027-.248-.065-.118-.326zm.039 8.471c-.73.221-1.16.313-1.72.443-.352.13-.313-.039-.196-.247.222-.444.326-.691.613-1.265.065-.117.143-.247.234-.182.391.274.704.573 1.095.912.195.183.039.3-.027.326zm-.795-1.577c-.157-.13-.104-.352.027-.678.065-.156 1.316-4.209 1.42-4.404.104-.326.234-.56.195.143 0 .13-.312 4.561-.351 5.03-.014.196 0 .86-.222.756-.156-.065-.9-.69-1.069-.847m1.93 1.2c-.222-.04-.353.143-.287-.73.09-1.095.326-4.966.338-5.357.066-.638.17-.586.183.274 0 .17.039 4.105.065 5.082 0 .17.13.77-.3.743zm22.7 5.199h-2.554c-.339 0-.26-.287-.26-.495.013-.887 0-5.513 0-5.917h-.248c-.027.313-.027.821-.027 1.16 0 .287-1.824 1.59-2.606 1.12-.339-.22-.326-.442-.352-.742-.065-.547-.3-1.043-.82-1.251-.73-.3-2.373.547-2.88 1.212-.496.638-.496 5.577-.21 6.894a.341.341 0 0 1-.195.013c-.26-.065-.47-.47-.73-.86-.026-.04-1.355-1.786-1.407-1.89-.404-.664-1.017-1.55-1.46-2.19-.469-.677.104-.716.821-.976.613-.235.926-.56 1.525-.56.795 0 .534-.274.326-.248-.586 0-.73-.352-.834-.587-.326-.717-.964-2.033-1.251-2.684a8.131 8.131 0 0 1-.443-.86c-.47-1.043-1.004-2.28-1.499-3.31-.339-.691-.677-1.356-.638-2.138.013-.338.013-.925 0-1.133-.99-.274-1.108-.091-1.812.469-.365.3-1.12.247-1.368.065.156.443.69.638.834.69.69.235.977-.026 1.707-.143.209-.039.443-.078.443.078 0 .104.014.26 0 .43-.078 1.147-.443 2.177-.82 3.258-.379 1.095-.926 2.111-1.408 3.154-.13.273-.235.586-.43.326-.313-.417-2.737-4.21-2.841-4.77-.091-.352.339-.352.678-.443.86-.221.912-1.03 1.655-1.29.182-.091.078-.274-.313-.235-.782.105-1.147-.586-1.447-1.068a23.261 23.261 0 0 1-1.316-2.32c-.104-.208-.078-.508-.078-.782 0-.273.013-.247.04-.664-.353.312-.978.234-1.33.547-.495.456-.456 1.838-1.642.808.156.222.287.873 1.134.86.43 0 .769-.091 1.107-.612.222-.34.496-.365.378-.104-.026.052-.638 1.642-.886 2.202-.312.704-.586 1.46-.977 1.968-.13.182-.17.312-.508.39-.065.027-.417.027-.417.131 0 .104.039.052.312.091.782.144.365.69-.221 1.082-.027.013-.978.808-.978.808-.508.404-.795.508-1.199 0-.625-.77-1.12-1.694-1.68-2.515-.496-.73-.64-1.551-.626-2.463.013-.522 0-.86 0-1.512-.77.078-1.186.547-1.603.951-.482.443-.665 1.043-1.355 1.121.495.417 1.238.182 1.993-.43.222-.17.587-.248.613.287 0 .234.027.443.013.677-.013.339-.039.417-.09.613-.248.703-.548 1.316-.887 2.098-.26.612-.508 1.355-.925 1.68-.17.131-.378.274-.665.287-.547.04-.404.274-.312.274.573.156 1.055.286 1.511.417.534.156.912.86.665 1.264-.052.078-.104.156-.17.235-.17.208-.977 1.133-1.993 2.045-.9.821-1.981 1.642-2.62 2.06-.847.56-3.362 1.863-4.235 2.371-.665.391-1.447 1.082-2.085 1.082-.157 0-.3-.222-.3-.6.04-1.107.078-3.284.065-5.799-.586 0-.508.587-1.107.652-.443.052-.535.208-.548.352-.052.651-.052 1.03-.052 1.29.118.027.287-.078.378-.144.639-.43.548-.234 1.082-.325.026.742 0 3.297-.04 4.065 0 .17-.051.496-.39.496h-2.046c-.144-.014-.144.26.156.364.196.052.482.027.704.04.313.026.586.26.652.364 1.225 1.303 3.635 3.493 4.157 3.91.338.273.703.56 1.094 1.055.378.509 1.486 2.32 1.747 2.515h.026c.639.235 1.186.652 1.786.952.95.482 1.902.951 2.88 1.316.834.326 1.576.534 2.436.769 1.095.312 2.281.69 3.402.847 1.355.195 2.072.273 3.101.273 1.46.014 2.932-.013 4.379-.143 1.199-.104 2.385-.352 3.57-.6.782-.156 1.551-.377 2.307-.651.69-.248 1.316-.547 1.994-.86.625-.313 1.733-1.03 2.359-1.381-.144-.261-.574-.34-.9-.092-.664.378-.795.535-1.876 1.03-1.004.443-1.942.886-2.997 1.147-1.538.39-2.893.651-4.744.899-1.916.156-3.831.17-5.656 0-2.032-.222-3.257-.547-5.212-1.108-.821-.195-1.642-.495-2.424-.82-.9-.366-1.903-.887-2.437-1.304-.756-.586-.99-1.407-.938-3.18 0-.469.195-.677.456-.612.17.052.326.091.482.143.547.17 1.264.443 1.811.639a27.677 27.677 0 0 0 4.9 1.33c.495.09 1.147.195 1.89.234 0-.196.065-.313-.027-.378-.117-.078-.534-.078-.508-.391 0-.17.443-.17.6-.17.416.014.69.052 1.12.104.157.04.078.756.052.965.665.013 1.264.065 1.968.052.247 0 .677-.04.704.208.026.222-.027.17-1.004.209-.117 0-.104.143 0 .143.118 0 .508.091.613.183.286.3.234.664.221 1.107-.027.704.404.652.938.678 1.147.039 2.033-.052 2.841-.117.365-.065.43-.3.43-.548-.964 0-2.932.235-2.997.118-.143-.04-.117-.13-.143-.3-.027-.156.117-.156.6-.17.625-.013 1.003-.078 1.589-.09.456-.014.586-.17.586-.391h-2.854c-.13 0 .014-.522.274-.522 2.085 0 2.19-.234 3.219-.286.247-.014.769.143.769.6 0 1.185.43 1.094.769 1.042.065-.014.638.039.534-.77-.013-.442-.248-1.016-.013-1.315.273-.378.86-.509 1.42-.756.456-.196.274-.313.17-.56-.131-.313.051-.509.325-.613.691-.235 1.356-.495 2.033-.769.287-.117.717-.3 1.004-.417.651-.287.664-.625 1.068.17.027.065.04.13.104.312.313-.208.795-.352.808-.547.091-.821.626-1.356 1.095-1.929.456-.56.977-1.277 1.798-1.342.274-.027 5.187.027 5.59 0 .17-.26.418-.626.053-.626zM77.72 18.257c-.104.326-.43.508-.716.417-.3-.09-.443-.443-.34-.756.092-.326.43-.508.718-.417.3.092.443.443.338.756m-1.264 4.6-1.303.821-1.264-1.55 1.89-.665.69 1.381zm-.899 2.998c1.03-.313.86 1.238-.078.73.235.338 0 .56-.404.469a.256.256 0 0 0-.039.065c0 .026-.013.039-.013.078-.027 0-.065-.027-.091-.04-.235.274-.496.522-.913.509-.052-.052-.13-.091-.221-.156-.339.26-.6.586-1.108.638v-.352c-.495.3-.938.639-1.498.73-.04-.091-.066-.196-.092-.287-.573.209-1.055.574-1.733.56.014-.13.04-.247.052-.364-.508.17-1.03.6-1.642.443-.117-.143.078-.196.04-.313-.522.157-1.056.483-1.695.313.027-.091.04-.183.052-.287-.638.092-1.212.404-1.89.235.04-.13.079-.222.118-.365-.639.13-1.238.391-1.89.117.105-.09.196-.169.274-.247-.521-.17-1.199.195-1.785-.091.065-.091.13-.17.182-.248-.365-.247-.938.144-1.394-.065.09-.117.17-.208.234-.3-.52-.064-1.146.157-1.668-.103 0-.091 0-.17-.026-.26h-.378a.099.099 0 0 1 .065-.028.854.854 0 0 1 .208-.117s-.013-.027-.026-.039h-.014c-.013 0-.039-.027-.039-.027.56-.052 1.03.417 1.616.313-.078-.287-.469-.248-.573-.587 4.535-1.537 10.151-1.89 14.452.248-.118.117-.274.234-.417.365.378-.118.938-.078 1.133-.417-.39-.274-.742-.69-1.185-.912-.027.09-.04.195-.065.3-.6-.079-.887-.535-1.395-.783 0 .118-.027.222-.027.326-.508 0-.834-.39-1.264-.521-.052.078-.09.143-.13.208-.47-.039-.886-.221-1.251-.469a1.385 1.385 0 0 0-.13.235c-.56.065-1.03-.222-1.538-.391 0 .104.026.195.026.287-.6-.04-1.172-.118-1.72-.34-.013.105-.026.17-.039.248-.534.183-1.016-.143-1.537-.17.039.118.078.21.09.313-.455.183-.886.014-1.316-.026.014.09.027.156.027.221-.573.248-1.068-.065-1.642-.013.052.09.091.17.157.286-.456.17-.9.104-1.343.052 0 .091 0 .196.014.26-.391.21-.795.066-1.212.04.09.143.13.208.208.326-.208.378-1.03.339-1.016.6h-.052c-.027 0-.091 0 0 0h-.287c-.104.09-.365.117-.547.09-.078-.039-.209-.456-.052-.586-.925.352-.938-.613-.118-.808-1.342.182.457-1.186.365-.456.665-1.03 1.486-1.095 1.16-.482.978-1.056 1.525-1.043 1.082-.3 1.081-1.055 1.733-1.055 1.238-.286 1.173-1.134 2.098-1.043 1.694-.34 1.316-1.029 1.811-.807 1.407-.22 1.277-.952 2.164-.613 1.46-.04 1.902-1.03 2.215-.547 1.668-.052 1.733-.82 2.137-.39 1.603.027 1.98-.613 2.41-.144 1.537.26 1.93-.52 2.203-.065 1.551.34 1.694-.43 2.072.013 1.303.377 1.447-.3 1.903.104 1.317.482 1.785 0 2.02.509 1.16.86zM56.14 22.857l.69-1.381 1.877.665-1.25 1.55-1.304-.82zm5.121-2.45c.874-.169 1.668.196 1.799.808.104.613-.495 1.238-1.368 1.408-.86.17-1.656-.196-1.786-.808-.117-.613.495-1.238 1.355-1.408m5.03-.794L68.3 21.02l-2.007 1.42-1.994-1.42zm0-4.027c.34 0 .626.286.626.625a.634.634 0 0 1-.625.626.623.623 0 0 1-.613-.626c0-.339.274-.625.613-.625m3.258 5.616c.104-.612.912-.964 1.785-.808.873.183 1.472.795 1.355 1.408-.104.612-.912.964-1.785.808-.873-.17-1.473-.795-1.355-1.408m-13.97-2.528c-.287.091-.613-.09-.73-.417-.091-.326.052-.664.339-.756.3-.09.625.092.73.417.117.326-.04.665-.34.756m20.76-3.596-.039.182c.586.417.834 1.082.704 1.864-.17.052-.34.143-.456.273-.522-.365-.795-.925-.73-1.446-.013 0-.183-.065-.183-.065l-.925 3.075.144.039a1.705 1.705 0 0 1 1.42-.717c.013.091.039.17.065.248a.392.392 0 0 1 .065.13c-.547 1.004-1.147 1.538-2.346 1.316-1.446-.26-1.811-1.472-1.472-2.098.234-.469.482-.534.769-.43.273.091.443.495.195 1.082.548-.104 1.108-.821 1.16-1.447.052-.638-.482-1.068-.938-1.107-.43-.052-.834.09-1.186.547.612-1.251.782-2.02.091-3.05-.951.587-1.16 1.408-.964 2.946-.43-1.356-1.59-1.434-2.098-.613-.509.834.13 1.812.482 2.15-.196-.651.078-1.133.664-1.016.587.13.587 1.355-.156 1.98-.756.613-1.916.509-2.659-.038-.625-.47-.886-.978-1.042-1.903a.908.908 0 0 0 .234-.26c.808.156 1.408.677 1.5 1.316h.169l.117-3.519h-.209c-.13.613-.73 1.147-1.511 1.29a.9.9 0 0 0-.326-.404c.182-.86.73-1.498 1.42-1.615v-.209h-4.052v.209c.69.117 1.238.755 1.433 1.616-.143.104-.26.247-.339.403-.782-.143-1.381-.677-1.498-1.29h-.222l.117 3.519h.17c.091-.639.69-1.16 1.512-1.316.052.104.13.182.221.26-.156.926-.417 1.434-1.042 1.903-.743.547-1.89.651-2.646.039-.756-.626-.756-1.85-.17-1.98.6-.118.86.364.678 1.016.352-.34.978-1.317.47-2.15-.509-.822-1.669-.743-2.099.612.196-1.538-.013-2.359-.964-2.945-.69 1.03-.521 1.811.104 3.05-.365-.457-.756-.6-1.199-.548-.456.039-.99.469-.938 1.107.052.626.625 1.343 1.16 1.447-.248-.586-.078-.99.195-1.082.287-.104.535-.039.782.43.326.626-.039 1.838-1.485 2.098-1.2.222-1.799-.312-2.346-1.316a.628.628 0 0 1 .065-.13c.039-.078.052-.17.065-.248.6 0 1.095.274 1.42.717.014 0 .144-.039.144-.039l-.925-3.075s-.17.052-.183.065c.065.52-.221 1.081-.73 1.446a1.02 1.02 0 0 0-.456-.273c-.117-.782.13-1.434.704-1.864l-.039-.182-2.763.886.04.143c.43.065.781.183 1.263 1.2a.984.984 0 0 0-.247.325 1.046 1.046 0 0 0-.04.743c.131.417.51.717.926.717h.04c.22.677.481 1.511.794 2.567l-.678 1.355.313.209.977.612c.065.274.144.534.222.821-.13.078-.274.144-.391.222-.652.351-.86 1.185-.508 1.824.182.326 4.157 2.541 9.786 2.528 2.529.091 5.382-.286 7.806-1.055.9-.378 2.568-1.447 2.594-1.473.364-.652.156-1.473-.496-1.824-.13-.079-.26-.144-.39-.222.078-.287.156-.56.22-.82l.978-.613.313-.209-.678-1.355c.3-1.043.56-1.877.795-2.567h.027c.417 0 .795-.287.938-.717a1.044 1.044 0 0 0-.039-.743.986.986 0 0 0-.247-.326c.482-1.016.82-1.147 1.25-1.199l.053-.143-2.763-.886zm0 0"/>
  <path d="M66.487 23.9c.235-.117.495-.365.521-.665-.273.26-1.146.574-2.02.886.926.118 1.734.496 1.955.756 0-.287-.221-.56-.443-.677.547.117.834.052 1.2-.078-.327-.196-.64-.326-1.2-.222zM61.913 24.343c.209-.17.404-.47.352-.756-.209.3-.99.808-1.772 1.303.938-.09 1.798.078 2.072.313-.052-.3-.34-.495-.587-.573.56 0 .834-.144 1.16-.352-.365-.104-.704-.17-1.212.078zM58.12 25.412c.157-.209.287-.548.17-.821-.143.351-.782 1.016-1.433 1.668.873-.287 1.629-.365 2.059-.274-.13-.273-.43-.313-.69-.313.533-.13.781-.325 1.042-.599-.378-.027-.717 0-1.16.339zM74.801 26.624c.13-.261.027-.522-.117-.73.43.339.73.404 1.12.456-.221-.326-.456-.574-.99-.717.26 0 .6-.052.743-.312-.352.104-1.264-.04-2.19-.157.783.508 1.369 1.12 1.447 1.46zM71.674 23.848c-.313.182-1.238.286-2.164.39.86.327 1.577.874 1.72 1.187.079-.287-.09-.6-.273-.77.495.235.795.222 1.186.183-.287-.26-.56-.456-1.12-.469.247-.065.56-.247.638-.521zM74.306 13.149c-.782-.547-1.525-.639-2.19-.704-.599-.052-.99-.247-1.407-.899-.417-.665-1.199-1.03-1.98-1.03-.365 0-.417.326 0 .326.469 0 1.329.222 1.72.99.3.587.417 1.135 1.72 1.095.938-.039 2.45.105 3.232 2.177.104.286.404.26.221-.17-.117-.273-.508-1.212-1.29-1.772zM61.874 11.546c-.417.652-.795.86-1.394.9-.665.064-1.408.156-2.19.703-.808.56-1.173 1.499-1.303 1.785-.182.43.13.443.222.17.782-2.072 2.306-2.229 3.231-2.19 1.304.04 1.434-.508 1.72-1.094.405-.77 1.265-.99 1.72-.99.405 0 .353-.313 0-.313-.781 0-1.563.365-1.98 1.016zM76.13 14.504l.99.313c-1.589-3.336-4.469-5.838-7.961-6.725-.091.222-.157.483-.235.743 3.05.77 5.656 2.854 7.207 5.669M55.462 14.83l1.004-.326c1.55-2.802 4.13-4.887 7.206-5.656-.065-.26-.156-.508-.247-.756-3.48.9-6.386 3.402-7.963 6.738M72.599 7.532a.554.554 0 1 1 .014 1.108.554.554 0 0 1-.014-1.108M69.927 6.385c.313 0 .56.248.56.56 0 .3-.247.561-.56.561-.3 0-.547-.26-.547-.56 0-.313.248-.56.547-.56M71.296 6.894c.312 0 .56.234.56.547a.554.554 0 1 1-1.108 0c0-.313.248-.547.548-.547M76.912 11.403c.3 0 .548.26.548.56 0 .3-.248.56-.548.56a.565.565 0 0 1-.56-.56c0-.3.248-.56.56-.56M73.824 8.327a.554.554 0 1 1 .014 1.107.554.554 0 0 1-.014-1.107M78.372 13.93a.554.554 0 1 1-.012 1.108.554.554 0 0 1 .012-1.107M77.707 12.64a.554.554 0 1 1 .014 1.108.554.554 0 0 1-.014-1.107M75.987 10.269c.313 0 .56.247.56.56 0 .3-.247.56-.56.56-.3 0-.547-.26-.547-.56 0-.312.247-.56.547-.56M74.958 9.24c.312 0 .56.247.56.56 0 .3-.248.56-.56.56-.3 0-.548-.26-.548-.56 0-.313.248-.56.548-.56M56.596 10.269c.313 0 .56.247.56.56 0 .3-.247.56-.56.56-.3 0-.547-.26-.547-.56 0-.312.247-.56.547-.56M61.288 6.894c.312 0 .56.234.56.547a.554.554 0 1 1-1.108 0c0-.313.248-.547.548-.547M55.684 11.403c.3 0 .547.26.547.56 0 .3-.247.56-.547.56a.565.565 0 0 1-.56-.56c0-.3.247-.56.56-.56M62.656 6.385c.312 0 .56.248.56.56 0 .3-.247.561-.56.561-.3 0-.547-.26-.547-.56 0-.313.247-.56.547-.56M54.876 12.64a.554.554 0 1 1 .014 1.108.554.554 0 0 1-.014-1.107M57.626 9.24c.312 0 .56.247.56.56 0 .3-.248.56-.56.56-.3 0-.548-.26-.548-.56 0-.313.248-.56.548-.56M58.76 8.327a.554.554 0 1 1 .013 1.107.554.554 0 0 1-.014-1.107M59.984 7.532a.554.554 0 1 1 .014 1.108.554.554 0 0 1-.014-1.108M54.224 13.93a.554.554 0 1 1-.012 1.108.554.554 0 0 1 .012-1.107"/>
  <path d="M67.243 13.11h.743c0-2.333.339-4.34.938-5.682a.368.368 0 0 0-.182-.482.29.29 0 0 0-.144-.04.366.366 0 0 0-.339.222c-.873 1.929-1.016 4.561-1.016 5.982M64.61 13.11h.73c0-1.42-.13-4.053-1.003-5.982a.353.353 0 0 0-.339-.221c-.052 0-.104 0-.143.039-.183.078-.274.3-.183.482.613 1.342.938 3.349.938 5.682M66.292 11.91c.338 0 .6.261.6.6 0 .326-.261.6-.6.6a.606.606 0 0 1-.6-.6c0-.339.274-.6.6-.6M66.292 10.412c.338 0 .6.274.6.6 0 .326-.261.6-.6.6a.606.606 0 0 1-.6-.6c0-.326.274-.6.6-.6M66.292 8.914c.338 0 .6.273.6.6 0 .338-.261.598-.6.598-.326 0-.6-.26-.6-.599 0-.326.274-.6.6-.6M66.292 7.623c-.326 0-.6.274-.6.6 0 .17.065.313.17.417a.954.954 0 0 1 .43-.104c.143 0 .286.039.417.104a.603.603 0 0 0 .17-.417c0-.326-.274-.6-.613-.6zM66.292 6.438c-.326 0-.6.273-.6.6 0 .13.052.26.13.364.131-.078.3-.13.47-.13.17 0 .326.051.482.13a.606.606 0 0 0-.482-.964"/>
  <path d="M66.292 1.525c.26 0 .482.208.482.469a.49.49 0 0 1-.482.482.478.478 0 0 1-.47-.482c0-.26.209-.47.47-.47m-.691.9a.628.628 0 0 0 .26.26c-.156.6-.508 1.043-.925 1.121v.196h.978s-.091.078-.13.13a1.92 1.92 0 0 0-1.421 1.864c0 .794.482 1.485 1.173 1.772a1.05 1.05 0 0 1 .508-1.76c-.521.014-.977.105-1.33.248 0-.091-.013-.182-.013-.273 0-.13.014-.248.04-.378a4.447 4.447 0 0 1 1.224-.235c0-.508.027-.977.065-1.368h.535c.039.378.052.86.065 1.368.482.026.912.117 1.225.235.039.13.052.247.052.378 0 .09 0 .182-.027.273-.339-.143-.808-.234-1.33-.247a1.05 1.05 0 0 1 .51 1.759 1.93 1.93 0 0 0 1.185-1.772c0-.9-.6-1.642-1.433-1.864-.027-.052-.079-.091-.118-.13h.964v-.196c-.417-.078-.768-.521-.925-1.12a.626.626 0 0 0 .26-.261c.6.156 1.043.508 1.122.925h.195V.652h-.195c-.079.417-.522.768-1.121.925a.628.628 0 0 0-.26-.26c.156-.6.508-1.043.925-1.122V0H64.96v.195c.417.079.769.522.925 1.121a.626.626 0 0 0-.26.26c-.6-.156-1.043-.507-1.121-.924h-.196v2.697h.196c.078-.417.521-.769 1.12-.925zM35.785 20.603c-.3.17-.014.625.273.443.274-.17 0-.612-.273-.443M35.954 21.346c-.3.17-.013.612.274.43.273-.17 0-.613-.274-.43"/>
  <path d="M35.72 18.779s.026-.04.039-.065l.599.208-.13-.821-.522.26s-.052-.038-.065-.038l.104-.743c-.195.026-.6.104-.782.117l.326.665s-.026.039-.039.065l-.573-.078.13.82.509-.39s.052.039.078.052l-.17 1.003c-.09.9 1.356.652.99-.17l-.481-.911zM32.879 21.424c-.365-.091-.509.482-.144.56.378.091.495-.482.144-.56M32.657 22.14c-.365-.09-.495.496-.13.574.365.091.495-.495.13-.573M34.39 19.873c-.365-.09-.495.495-.143.574.378.09.508-.483.143-.574M33.257 20.798c-.365-.09-.496.483-.13.56.364.092.494-.481.13-.56M39.407 21.945c.118.287.13.43.105.626-.118-.078-.248-.235-.352-.496l-.13 1.004c.156-.157.26-.26.43-.274-.21.926-1.043 1.121-1.16.391.013-.286.3-.417.495-.117.182-.587-.3-.678-.56-.47.364-.52.364-.924-.092-1.342-.43.47-.378.848-.065 1.343-.352-.287-.769-.04-.521.469.156-.365.47-.196.482.117-.13.834-1.629.756-1.603-.156.157-.065.456.039.756.339l-.078-1.03a1.014 1.014 0 0 1-.704.456c.04-.286.365-.808.365-.808l-1.264.209s.482.378.613.638c-.261.04-.509.027-.821-.195l.26.99c.17-.378.43-.56.6-.56.325.86-1.082 1.407-1.46.651-.091-.312.143-.56.417-.26.078-.56-.417-.665-.652-.3.144-.56.066-.95-.482-1.238-.286.535-.17.913.352 1.29-.326-.117-.743.118-.39.613.077-.352.39-.326.494-.052.118.73-.716.808-1.225-.013.17-.014.313.039.509.13l-.443-.912c-.04.286-.092.482-.17.586-.104-.182-.117-.339-.104-.638l-.56.3c.39.377.782.938 1.212 1.954.99-.625 4.574-1.264 5.838-.951.078-1.095.286-1.747.534-2.229l-.626-.117zM34.677 20.525c-.795.352-1.381 1.081-1.616 1.994l.222-.118c.247-.769.782-1.394 1.485-1.694-.039-.065-.065-.13-.09-.182"/>
  <path d="M34.886 20.29c-.065-.117-.235 0-.17.104.209.326.365.834.443 1.434l.196-.027c-.052-.365-.17-1.043-.483-1.512zM33.778 20.264c-.365-.091-.495.482-.13.56.364.092.495-.482.13-.56M38.99 20.316c-.312.209.014.704.326.495.326-.208-.013-.69-.326-.495M39.447 20.916c-.313.208.013.703.338.495.313-.209-.013-.69-.338-.495M37.023 19.417c-.313.196.013.704.339.482.312-.195-.014-.69-.34-.482M38.404 19.873c-.313.209.013.704.339.495.312-.208-.014-.69-.339-.495M36.997 20.12c0 .066-.014.131-.027.196.756.04 1.473.43 1.98 1.069l.248.027c-.534-.756-1.342-1.251-2.215-1.29zM36.853 19.99c.014-.117-.17-.156-.195-.026-.118.534 0 1.212.09 1.577l.183-.04c-.13-.599-.17-1.12-.078-1.511M37.74 19.56c-.313.209.013.704.325.483.326-.196 0-.691-.326-.483"/>
  <path fill="#e52d13" d="M0 205.795h4.757V2.906H0zm0 0"/>
</svg>
